{"glyphs":{"0":{"ha":693,"x_min":92,"x_max":616,"o":"m 92 413 q 109 590 92 501 q 168 735 126 680 q 226 802 199 776 q 284 844 252 828 q 355 859 316 859 q 475 821 420 859 q 563 728 531 782 q 605 596 595 674 q 616 427 616 519 q 600 276 616 343 q 556 158 583 217 q 480 52 530 100 q 437 15 454 28 q 393 -9 419 1 q 333 -20 366 -20 q 231 9 275 -20 q 152 94 187 37 q 108 230 125 138 q 92 413 92 322 m 380 100 q 421 106 401 100 q 452 125 442 113 q 476 175 467 142 q 492 245 486 207 q 507 420 507 338 q 484 611 507 521 q 423 709 469 673 q 316 746 377 746 q 256 724 276 746 q 229 673 236 701 q 199 445 199 582 q 209 310 199 378 q 233 198 219 242 q 262 151 242 174 q 313 114 283 128 q 380 100 344 100 z "},"1":{"ha":693,"x_min":62,"x_max":600,"o":"m 66 20 q 116 98 92 64 q 127 109 121 106 q 149 113 134 113 l 254 113 q 286 127 273 113 q 300 167 300 142 q 301 207 300 193 l 302 250 q 286 602 302 458 q 210 694 275 694 l 159 694 q 138 698 147 694 q 129 712 129 702 q 134 724 129 719 q 233 798 168 755 q 349 867 298 842 q 367 872 355 872 q 385 866 378 872 q 394 847 392 859 q 404 720 400 804 q 407 612 407 636 q 408 517 407 576 q 410 391 410 457 q 414 155 414 186 q 423 123 414 134 q 451 113 431 113 l 586 113 q 595 109 591 113 q 600 100 600 105 q 594 89 600 97 q 574 61 585 75 q 551 32 563 47 q 536 15 552 33 q 521 1 527 3 q 500 -1 515 -1 l 92 -1 q 69 0 77 -1 q 62 8 62 2 q 66 20 62 13 z "},"2":{"ha":693,"x_min":109,"x_max":611,"o":"m 112 28 q 167 138 132 83 q 250 258 202 193 l 271 288 q 309 339 285 307 q 369 424 345 389 q 410 498 393 459 q 427 572 427 538 q 415 625 427 597 q 382 675 404 652 q 330 709 361 698 q 251 727 302 720 q 158 734 199 734 q 143 737 149 734 q 137 745 137 740 q 139 750 137 747 q 142 756 141 753 q 210 846 155 777 q 221 854 214 850 q 238 859 229 859 q 282 857 260 859 q 414 827 357 848 q 507 762 471 806 q 547 701 534 730 q 559 623 559 671 q 530 522 559 574 q 446 404 500 469 q 378 308 418 368 q 308 195 338 248 q 278 129 279 143 q 281 120 278 124 q 287 117 283 117 l 598 117 q 611 108 611 117 q 608 98 611 102 q 579 50 597 78 q 549 9 562 22 q 539 3 544 5 q 529 1 535 1 l 130 1 q 109 16 109 1 q 112 28 109 18 z "},"3":{"ha":693,"x_min":94,"x_max":591,"o":"m 153 108 q 161 117 156 111 q 169 123 165 123 q 172 122 170 123 q 174 121 173 121 q 312 94 262 94 q 442 138 397 94 q 469 182 458 155 q 480 232 480 209 q 467 299 480 271 q 423 350 453 326 q 339 385 398 370 q 227 399 279 399 q 220 406 220 399 q 222 413 220 410 l 239 436 q 275 485 263 473 q 311 503 286 496 q 363 526 335 509 q 410 568 391 543 q 430 625 430 594 q 412 679 430 661 q 366 707 393 696 q 279 731 332 722 q 169 740 227 740 q 155 751 155 740 q 158 763 155 757 q 230 851 172 784 q 248 859 238 859 q 312 854 269 859 q 402 835 355 848 q 477 799 448 821 q 524 745 511 773 q 537 680 537 716 q 511 591 537 636 q 427 506 486 545 q 422 498 422 502 q 425 492 422 496 q 434 487 429 489 q 517 443 482 472 q 572 375 553 413 q 591 297 591 337 q 552 159 591 229 q 457 44 513 89 q 371 -3 416 12 q 282 -18 325 -18 q 186 -8 236 -18 q 107 15 136 2 q 98 20 102 17 q 94 26 94 22 q 95 30 94 27 q 98 34 97 33 q 126 76 108 52 q 153 108 144 100 z "},"4":{"ha":693,"x_min":62,"x_max":633,"o":"m 382 241 q 377 254 382 251 q 359 258 372 258 l 116 258 q 75 283 87 258 q 62 343 62 309 q 80 434 62 379 q 121 541 98 490 q 158 616 144 592 q 266 762 206 701 q 407 867 326 823 q 425 872 414 872 q 444 865 435 872 q 454 847 452 859 q 467 659 463 768 q 473 410 470 551 l 473 387 q 477 376 473 378 q 486 373 480 373 l 621 373 q 633 364 633 373 q 631 355 633 359 q 607 316 622 340 q 580 273 593 293 q 569 262 574 266 q 553 259 564 259 l 487 259 q 477 257 479 259 q 475 248 475 254 q 476 212 475 230 l 477 98 q 471 68 477 81 q 411 -24 439 7 q 399 -31 404 -31 q 389 -25 393 -31 q 385 -11 385 -20 q 382 193 385 83 l 382 241 m 355 691 q 340 707 354 707 q 326 703 334 707 q 273 666 295 687 q 231 617 252 645 q 174 509 204 578 q 144 412 144 439 q 151 383 144 393 q 170 373 158 373 l 367 373 q 374 377 371 373 q 378 387 378 381 q 371 529 377 439 q 355 691 366 619 z "},"5":{"ha":693,"x_min":92,"x_max":577,"o":"m 153 117 q 168 124 159 124 q 180 121 170 124 q 253 105 207 112 q 330 98 298 98 q 380 104 358 98 q 420 125 403 110 q 459 177 444 144 q 474 242 474 209 q 458 304 474 275 q 414 355 441 334 q 348 382 389 374 q 250 390 307 390 l 199 390 q 160 401 173 390 q 146 430 147 413 q 141 554 142 493 q 140 706 140 616 q 139 722 140 711 q 137 740 137 732 q 142 769 137 758 l 152 789 q 177 837 168 821 q 197 867 186 853 q 209 872 201 872 q 225 865 221 872 q 250 824 243 833 q 259 818 254 819 q 273 817 264 817 l 551 817 q 567 813 562 817 q 572 804 572 809 q 569 797 572 802 q 565 789 567 791 q 553 769 561 783 q 515 711 529 730 q 504 703 510 705 q 486 701 498 701 l 255 701 q 238 696 243 701 q 233 682 233 692 q 235 616 234 662 q 237 542 236 571 q 246 516 237 527 q 267 506 255 506 l 341 506 q 444 484 389 506 q 538 413 498 461 q 577 293 577 366 q 564 219 577 255 q 523 139 551 184 q 516 129 496 94 q 408 21 472 62 q 273 -20 345 -20 q 184 -11 233 -20 q 103 14 135 -1 q 94 20 96 17 q 92 26 92 22 q 96 41 92 33 q 153 117 132 91 z "},"6":{"ha":693,"x_min":80,"x_max":623,"o":"m 135 420 q 256 617 172 494 q 399 807 340 741 q 416 822 406 816 q 429 830 426 828 q 481 856 448 841 q 525 870 514 870 q 536 862 536 870 q 528 845 536 857 q 503 810 519 833 l 491 795 q 371 624 456 747 q 286 493 286 502 q 287 491 286 492 q 289 490 288 490 q 318 510 290 490 q 402 530 347 530 q 557 464 494 530 q 606 387 589 433 q 623 281 623 340 q 589 161 623 222 q 505 56 556 101 q 321 -20 418 -20 q 203 17 259 -20 q 114 113 148 54 q 80 232 80 172 q 94 324 80 282 q 135 420 109 366 m 490 354 q 427 408 465 389 q 345 428 389 428 q 266 409 303 428 q 207 354 229 389 q 184 275 184 319 q 209 182 184 224 q 275 116 233 140 q 367 92 317 92 q 446 112 411 92 q 499 169 480 132 q 519 250 519 205 q 512 305 519 277 q 490 354 505 334 z "},"7":{"ha":693,"x_min":60,"x_max":632,"o":"m 165 124 q 213 223 182 166 q 310 390 245 280 l 330 423 q 425 591 391 526 q 458 686 458 656 q 454 696 458 694 q 439 699 449 699 l 86 699 q 67 707 75 699 q 60 724 60 714 q 61 730 60 727 q 63 734 62 732 q 109 806 83 770 q 157 864 135 842 q 164 869 159 867 q 170 872 168 872 q 186 857 182 872 q 197 829 191 838 q 215 819 203 821 q 253 817 227 817 l 610 817 q 628 812 624 817 q 632 800 632 807 q 609 735 632 785 q 554 637 590 694 q 460 492 519 581 q 446 471 452 480 q 436 456 440 463 q 352 315 391 388 q 296 188 313 243 q 283 145 288 166 q 277 116 277 124 q 264 81 277 98 q 222 32 250 59 q 168 -17 195 4 q 158 -24 163 -21 q 149 -28 152 -28 q 141 -25 144 -28 q 138 -17 138 -22 q 165 124 138 48 z "},"8":{"ha":693,"x_min":79,"x_max":598,"o":"m 79 221 q 118 346 79 297 q 219 429 157 394 q 226 437 226 432 q 224 442 226 440 q 152 506 183 463 q 121 617 121 549 q 129 667 121 639 q 151 713 137 694 q 200 774 168 741 q 256 823 233 807 q 304 849 278 839 q 366 859 330 859 q 463 835 418 859 q 533 769 507 811 q 559 676 559 728 q 530 575 559 623 q 458 495 502 527 l 446 486 q 433 475 436 479 q 431 471 431 474 q 435 463 431 465 q 478 436 452 454 q 525 402 505 418 q 578 337 558 376 q 598 255 598 298 q 580 172 598 216 q 529 90 562 127 q 434 14 492 47 q 326 -20 376 -20 q 234 1 286 -20 q 147 60 182 22 q 79 221 79 130 m 364 513 q 429 566 404 534 q 454 635 454 597 q 434 693 454 665 q 382 737 414 720 q 315 753 350 753 q 268 736 287 753 q 240 694 249 720 q 231 642 231 668 q 260 569 231 599 q 330 520 290 538 q 355 511 349 511 q 364 513 361 511 m 486 227 q 470 288 486 260 q 428 332 454 315 q 381 359 408 345 q 326 388 355 374 q 307 397 323 389 q 300 399 304 399 q 294 397 297 399 q 252 374 277 391 q 208 326 227 356 q 188 258 188 296 q 211 174 188 212 q 276 115 234 136 q 370 93 317 93 q 457 128 428 93 q 486 227 486 163 z "},"9":{"ha":693,"x_min":79,"x_max":626,"o":"m 397 310 q 393 316 397 316 q 366 308 390 315 q 307 300 341 300 q 226 316 266 300 q 155 364 186 332 q 79 552 79 441 q 97 652 79 607 q 150 745 115 698 q 244 827 186 794 q 363 859 302 859 q 492 823 431 859 q 589 727 553 787 q 626 600 626 667 q 605 482 626 540 q 549 364 585 424 q 461 228 521 317 q 370 95 401 138 q 339 60 357 77 q 296 27 328 50 q 234 -13 264 5 q 193 -31 204 -31 q 184 -26 187 -31 q 181 -15 181 -21 q 186 0 181 -8 q 234 70 205 30 q 397 310 397 305 m 319 749 q 250 730 281 749 q 198 680 218 711 q 178 591 178 648 q 193 509 178 543 q 237 448 208 474 q 295 415 260 427 q 364 404 331 404 q 420 412 398 404 q 463 441 443 421 q 499 496 485 463 q 513 572 513 530 q 486 666 513 626 q 415 727 459 706 q 319 749 370 749 z "},"\r":{"ha":393,"x_min":0,"x_max":0,"o":""}," ":{"ha":285,"x_min":0,"x_max":0,"o":""},"A":{"ha":827,"x_min":0,"x_max":812,"o":"m 183 75 q 182 67 182 70 q 205 43 182 52 q 282 29 229 35 l 282 0 l 0 0 l 0 29 q 77 47 53 39 q 107 75 101 56 l 359 839 q 393 866 373 854 q 439 893 413 879 l 724 75 q 750 45 730 56 q 812 29 770 34 l 812 0 l 526 0 l 526 29 q 593 40 572 32 q 614 64 614 47 q 612 75 614 69 l 535 302 l 258 302 l 183 75 m 395 711 l 279 363 l 514 363 l 395 711 z "},"Á":{"ha":827,"x_min":0,"x_max":812,"o":"m 183 75 q 182 67 182 70 q 205 43 182 52 q 282 29 229 35 l 282 0 l 0 0 l 0 29 q 77 47 53 39 q 107 75 101 56 l 359 839 q 393 866 373 854 q 439 893 413 879 l 724 75 q 750 45 730 56 q 812 29 770 34 l 812 0 l 526 0 l 526 29 q 593 40 572 32 q 614 64 614 47 q 612 75 614 69 l 535 302 l 258 302 l 183 75 m 395 711 l 279 363 l 514 363 l 395 711 m 317 927 q 303 936 308 931 q 294 947 298 940 q 286 958 289 954 l 549 1173 q 586 1152 554 1170 q 629 1122 617 1134 l 635 1092 l 317 927 z "},"Ă":{"ha":827,"x_min":0,"x_max":812,"o":"m 183 75 q 182 67 182 70 q 205 43 182 52 q 282 29 229 35 l 282 0 l 0 0 l 0 29 q 77 47 53 39 q 107 75 101 56 l 359 839 q 393 866 373 854 q 439 893 413 879 l 724 75 q 750 45 730 56 q 812 29 770 34 l 812 0 l 526 0 l 526 29 q 593 40 572 32 q 614 64 614 47 q 612 75 614 69 l 535 302 l 258 302 l 183 75 m 395 711 l 279 363 l 514 363 l 395 711 m 408 943 q 281 989 337 943 q 186 1139 224 1035 q 202 1158 193 1151 q 222 1170 210 1164 q 303 1065 253 1099 q 405 1032 353 1032 q 510 1065 459 1032 q 591 1170 561 1098 q 611 1158 603 1164 q 627 1139 618 1152 q 531 989 588 1036 q 408 943 474 943 z "},"Ắ":{"ha":827,"x_min":0,"x_max":812,"o":"m 183 75 q 182 67 182 70 q 205 43 182 52 q 282 29 229 35 l 282 0 l 0 0 l 0 29 q 77 47 53 39 q 107 75 101 56 l 359 839 q 393 866 373 854 q 439 893 413 879 l 724 75 q 750 45 730 56 q 812 29 770 34 l 812 0 l 526 0 l 526 29 q 593 40 572 32 q 614 64 614 47 q 612 75 614 69 l 535 302 l 258 302 l 183 75 m 395 711 l 279 363 l 514 363 l 395 711 m 408 943 q 281 989 337 943 q 186 1139 224 1035 q 202 1158 193 1151 q 222 1170 210 1164 q 303 1065 253 1099 q 405 1032 353 1032 q 510 1065 459 1032 q 591 1170 561 1098 q 611 1158 603 1164 q 627 1139 618 1152 q 531 989 588 1036 q 408 943 474 943 m 317 1144 q 303 1153 308 1148 q 294 1164 298 1157 q 286 1175 289 1171 l 549 1390 q 586 1369 554 1387 q 629 1339 617 1351 l 635 1309 l 317 1144 z "},"Ặ":{"ha":827,"x_min":0,"x_max":812,"o":"m 183 75 q 182 67 182 70 q 205 43 182 52 q 282 29 229 35 l 282 0 l 0 0 l 0 29 q 77 47 53 39 q 107 75 101 56 l 359 839 q 393 866 373 854 q 439 893 413 879 l 724 75 q 750 45 730 56 q 812 29 770 34 l 812 0 l 526 0 l 526 29 q 593 40 572 32 q 614 64 614 47 q 612 75 614 69 l 535 302 l 258 302 l 183 75 m 395 711 l 279 363 l 514 363 l 395 711 m 395 -282 q 338 -217 338 -282 q 349 -171 338 -192 q 377 -137 359 -149 q 416 -125 395 -125 q 474 -189 474 -125 q 451 -255 474 -228 q 395 -282 429 -282 m 408 943 q 281 989 337 943 q 186 1139 224 1035 q 202 1158 193 1151 q 222 1170 210 1164 q 303 1065 253 1099 q 405 1032 353 1032 q 510 1065 459 1032 q 591 1170 561 1098 q 611 1158 603 1164 q 627 1139 618 1152 q 531 989 588 1036 q 408 943 474 943 z "},"Ằ":{"ha":827,"x_min":0,"x_max":812,"o":"m 183 75 q 182 67 182 70 q 205 43 182 52 q 282 29 229 35 l 282 0 l 0 0 l 0 29 q 77 47 53 39 q 107 75 101 56 l 359 839 q 393 866 373 854 q 439 893 413 879 l 724 75 q 750 45 730 56 q 812 29 770 34 l 812 0 l 526 0 l 526 29 q 593 40 572 32 q 614 64 614 47 q 612 75 614 69 l 535 302 l 258 302 l 183 75 m 395 711 l 279 363 l 514 363 l 395 711 m 408 943 q 281 989 337 943 q 186 1139 224 1035 q 202 1158 193 1151 q 222 1170 210 1164 q 303 1065 253 1099 q 405 1032 353 1032 q 510 1065 459 1032 q 591 1170 561 1098 q 611 1158 603 1164 q 627 1139 618 1152 q 531 989 588 1036 q 408 943 474 943 m 178 1309 l 183 1339 q 228 1370 195 1352 q 264 1390 260 1388 l 526 1175 q 517 1163 523 1171 q 507 1151 512 1155 q 496 1144 503 1147 l 178 1309 z "},"Ẳ":{"ha":827,"x_min":0,"x_max":812,"o":"m 183 75 q 182 67 182 70 q 205 43 182 52 q 282 29 229 35 l 282 0 l 0 0 l 0 29 q 77 47 53 39 q 107 75 101 56 l 359 839 q 393 866 373 854 q 439 893 413 879 l 724 75 q 750 45 730 56 q 812 29 770 34 l 812 0 l 526 0 l 526 29 q 593 40 572 32 q 614 64 614 47 q 612 75 614 69 l 535 302 l 258 302 l 183 75 m 395 711 l 279 363 l 514 363 l 395 711 m 408 943 q 281 989 337 943 q 186 1139 224 1035 q 202 1158 193 1151 q 222 1170 210 1164 q 303 1065 253 1099 q 405 1032 353 1032 q 510 1065 459 1032 q 591 1170 561 1098 q 611 1158 603 1164 q 627 1139 618 1152 q 531 989 588 1036 q 408 943 474 943 m 456 1171 q 439 1163 448 1165 q 414 1160 430 1161 q 366 1190 380 1177 q 351 1217 351 1204 q 363 1241 351 1230 q 399 1268 375 1252 q 441 1300 427 1287 q 454 1329 454 1313 q 442 1367 454 1354 q 409 1380 429 1380 q 376 1367 390 1380 q 363 1338 363 1354 q 368 1324 363 1333 q 336 1315 358 1320 q 300 1309 314 1310 l 293 1316 l 293 1325 q 314 1366 293 1345 q 368 1400 336 1387 q 431 1413 400 1413 q 497 1392 473 1413 q 520 1338 520 1372 q 505 1301 520 1318 q 463 1265 490 1285 q 428 1236 439 1246 q 418 1213 418 1225 q 456 1171 418 1193 z "},"Ẵ":{"ha":827,"x_min":0,"x_max":812,"o":"m 183 75 q 182 67 182 70 q 205 43 182 52 q 282 29 229 35 l 282 0 l 0 0 l 0 29 q 77 47 53 39 q 107 75 101 56 l 359 839 q 393 866 373 854 q 439 893 413 879 l 724 75 q 750 45 730 56 q 812 29 770 34 l 812 0 l 526 0 l 526 29 q 593 40 572 32 q 614 64 614 47 q 612 75 614 69 l 535 302 l 258 302 l 183 75 m 395 711 l 279 363 l 514 363 l 395 711 m 475 1215 q 434 1225 453 1215 q 385 1255 414 1235 q 341 1282 358 1274 q 308 1291 325 1291 q 261 1271 283 1291 q 211 1209 239 1251 l 175 1223 q 245 1331 202 1286 q 337 1376 288 1376 q 385 1364 362 1376 q 438 1331 408 1352 q 475 1307 460 1315 q 503 1299 490 1299 q 601 1383 553 1299 l 637 1367 q 567 1260 610 1305 q 475 1215 524 1215 m 408 943 q 281 989 337 943 q 186 1139 224 1035 q 202 1158 193 1151 q 222 1170 210 1164 q 303 1065 253 1099 q 405 1032 353 1032 q 510 1065 459 1032 q 591 1170 561 1098 q 611 1158 603 1164 q 627 1139 618 1152 q 531 989 588 1036 q 408 943 474 943 z "},"Ǎ":{"ha":827,"x_min":0,"x_max":812,"o":"m 183 75 q 182 67 182 70 q 205 43 182 52 q 282 29 229 35 l 282 0 l 0 0 l 0 29 q 77 47 53 39 q 107 75 101 56 l 359 839 q 393 866 373 854 q 439 893 413 879 l 724 75 q 750 45 730 56 q 812 29 770 34 l 812 0 l 526 0 l 526 29 q 593 40 572 32 q 614 64 614 47 q 612 75 614 69 l 535 302 l 258 302 l 183 75 m 395 711 l 279 363 l 514 363 l 395 711 m 370 943 l 191 1152 q 199 1163 193 1154 q 210 1175 205 1171 q 222 1183 214 1179 l 408 1040 l 591 1183 q 607 1173 602 1178 q 621 1152 611 1167 l 443 943 l 370 943 z "},"Â":{"ha":827,"x_min":0,"x_max":812,"o":"m 183 75 q 182 67 182 70 q 205 43 182 52 q 282 29 229 35 l 282 0 l 0 0 l 0 29 q 77 47 53 39 q 107 75 101 56 l 359 839 q 393 866 373 854 q 439 893 413 879 l 724 75 q 750 45 730 56 q 812 29 770 34 l 812 0 l 526 0 l 526 29 q 593 40 572 32 q 614 64 614 47 q 612 75 614 69 l 535 302 l 258 302 l 183 75 m 395 711 l 279 363 l 514 363 l 395 711 m 406 1068 l 222 927 q 209 935 214 931 q 200 946 205 939 q 191 958 195 954 l 370 1167 l 443 1167 l 621 958 q 613 947 618 955 q 604 935 608 939 q 591 927 599 930 l 406 1068 z "},"Ấ":{"ha":827,"x_min":0,"x_max":812,"o":"m 183 75 q 182 67 182 70 q 205 43 182 52 q 282 29 229 35 l 282 0 l 0 0 l 0 29 q 77 47 53 39 q 107 75 101 56 l 359 839 q 393 866 373 854 q 439 893 413 879 l 724 75 q 750 45 730 56 q 812 29 770 34 l 812 0 l 526 0 l 526 29 q 593 40 572 32 q 614 64 614 47 q 612 75 614 69 l 535 302 l 258 302 l 183 75 m 395 711 l 279 363 l 514 363 l 395 711 m 406 1068 l 222 927 q 209 935 214 931 q 200 946 205 939 q 191 958 195 954 l 370 1167 l 443 1167 l 621 958 q 613 947 618 955 q 604 935 608 939 q 591 927 599 930 l 406 1068 m 317 1198 q 303 1207 308 1202 q 294 1218 298 1211 q 286 1229 289 1225 l 549 1444 q 586 1423 554 1441 q 629 1394 617 1405 l 635 1363 l 317 1198 z "},"Ậ":{"ha":827,"x_min":0,"x_max":812,"o":"m 183 75 q 182 67 182 70 q 205 43 182 52 q 282 29 229 35 l 282 0 l 0 0 l 0 29 q 77 47 53 39 q 107 75 101 56 l 359 839 q 393 866 373 854 q 439 893 413 879 l 724 75 q 750 45 730 56 q 812 29 770 34 l 812 0 l 526 0 l 526 29 q 593 40 572 32 q 614 64 614 47 q 612 75 614 69 l 535 302 l 258 302 l 183 75 m 395 711 l 279 363 l 514 363 l 395 711 m 395 -282 q 338 -217 338 -282 q 349 -171 338 -192 q 377 -137 359 -149 q 416 -125 395 -125 q 474 -189 474 -125 q 451 -255 474 -228 q 395 -282 429 -282 m 406 1068 l 222 927 q 209 935 214 931 q 200 946 205 939 q 191 958 195 954 l 370 1167 l 443 1167 l 621 958 q 613 947 618 955 q 604 935 608 939 q 591 927 599 930 l 406 1068 z "},"Ầ":{"ha":827,"x_min":0,"x_max":812,"o":"m 183 75 q 182 67 182 70 q 205 43 182 52 q 282 29 229 35 l 282 0 l 0 0 l 0 29 q 77 47 53 39 q 107 75 101 56 l 359 839 q 393 866 373 854 q 439 893 413 879 l 724 75 q 750 45 730 56 q 812 29 770 34 l 812 0 l 526 0 l 526 29 q 593 40 572 32 q 614 64 614 47 q 612 75 614 69 l 535 302 l 258 302 l 183 75 m 395 711 l 279 363 l 514 363 l 395 711 m 406 1068 l 222 927 q 209 935 214 931 q 200 946 205 939 q 191 958 195 954 l 370 1167 l 443 1167 l 621 958 q 613 947 618 955 q 604 935 608 939 q 591 927 599 930 l 406 1068 m 178 1363 l 183 1394 q 228 1424 195 1407 q 264 1444 260 1442 l 526 1229 q 517 1217 523 1225 q 507 1205 512 1209 q 496 1198 503 1202 l 178 1363 z "},"Ẩ":{"ha":827,"x_min":0,"x_max":812,"o":"m 183 75 q 182 67 182 70 q 205 43 182 52 q 282 29 229 35 l 282 0 l 0 0 l 0 29 q 77 47 53 39 q 107 75 101 56 l 359 839 q 393 866 373 854 q 439 893 413 879 l 724 75 q 750 45 730 56 q 812 29 770 34 l 812 0 l 526 0 l 526 29 q 593 40 572 32 q 614 64 614 47 q 612 75 614 69 l 535 302 l 258 302 l 183 75 m 395 711 l 279 363 l 514 363 l 395 711 m 406 1068 l 222 927 q 209 935 214 931 q 200 946 205 939 q 191 958 195 954 l 370 1167 l 443 1167 l 621 958 q 613 947 618 955 q 604 935 608 939 q 591 927 599 930 l 406 1068 m 456 1225 q 439 1217 448 1219 q 414 1214 430 1215 q 366 1244 380 1231 q 351 1271 351 1258 q 363 1295 351 1284 q 399 1322 375 1306 q 441 1354 427 1341 q 454 1383 454 1367 q 442 1421 454 1408 q 409 1434 429 1434 q 376 1421 390 1434 q 363 1392 363 1408 q 368 1378 363 1388 q 336 1369 358 1374 q 300 1363 314 1364 l 293 1371 l 293 1379 q 314 1420 293 1400 q 368 1454 336 1441 q 431 1467 400 1467 q 497 1447 473 1467 q 520 1392 520 1426 q 505 1356 520 1372 q 463 1319 490 1339 q 428 1290 439 1301 q 418 1267 418 1280 q 456 1225 418 1247 z "},"Ẫ":{"ha":827,"x_min":0,"x_max":812,"o":"m 183 75 q 182 67 182 70 q 205 43 182 52 q 282 29 229 35 l 282 0 l 0 0 l 0 29 q 77 47 53 39 q 107 75 101 56 l 359 839 q 393 866 373 854 q 439 893 413 879 l 724 75 q 750 45 730 56 q 812 29 770 34 l 812 0 l 526 0 l 526 29 q 593 40 572 32 q 614 64 614 47 q 612 75 614 69 l 535 302 l 258 302 l 183 75 m 395 711 l 279 363 l 514 363 l 395 711 m 406 1068 l 222 927 q 209 935 214 931 q 200 946 205 939 q 191 958 195 954 l 370 1167 l 443 1167 l 621 958 q 613 947 618 955 q 604 935 608 939 q 591 927 599 930 l 406 1068 m 475 1221 q 434 1232 453 1221 q 385 1262 414 1242 q 341 1289 358 1280 q 308 1298 325 1298 q 261 1278 283 1298 q 211 1216 239 1258 l 175 1230 q 245 1338 202 1293 q 337 1383 288 1383 q 385 1371 362 1383 q 438 1338 408 1359 q 475 1314 460 1322 q 503 1306 490 1306 q 601 1390 553 1306 l 637 1374 q 567 1266 610 1312 q 475 1221 524 1221 z "},"Ä":{"ha":827,"x_min":0,"x_max":812,"o":"m 183 75 q 182 67 182 70 q 205 43 182 52 q 282 29 229 35 l 282 0 l 0 0 l 0 29 q 77 47 53 39 q 107 75 101 56 l 359 839 q 393 866 373 854 q 439 893 413 879 l 724 75 q 750 45 730 56 q 812 29 770 34 l 812 0 l 526 0 l 526 29 q 593 40 572 32 q 614 64 614 47 q 612 75 614 69 l 535 302 l 258 302 l 183 75 m 395 711 l 279 363 l 514 363 l 395 711 m 260 952 q 203 1017 203 952 q 213 1064 203 1042 q 242 1097 224 1085 q 281 1109 260 1109 q 338 1045 338 1109 q 316 979 338 1006 q 260 952 293 952 m 531 952 q 474 1017 474 952 q 485 1064 474 1042 q 513 1097 495 1085 q 552 1109 531 1109 q 610 1045 610 1109 q 587 979 610 1006 q 531 952 564 952 z "},"Ǟ":{"ha":827,"x_min":0,"x_max":812,"o":"m 183 75 q 182 67 182 70 q 205 43 182 52 q 282 29 229 35 l 282 0 l 0 0 l 0 29 q 77 47 53 39 q 107 75 101 56 l 359 839 q 393 866 373 854 q 439 893 413 879 l 724 75 q 750 45 730 56 q 812 29 770 34 l 812 0 l 526 0 l 526 29 q 593 40 572 32 q 614 64 614 47 q 612 75 614 69 l 535 302 l 258 302 l 183 75 m 395 711 l 279 363 l 514 363 l 395 711 m 260 952 q 203 1017 203 952 q 213 1064 203 1042 q 242 1097 224 1085 q 281 1109 260 1109 q 338 1045 338 1109 q 316 979 338 1006 q 260 952 293 952 m 531 952 q 474 1017 474 952 q 485 1064 474 1042 q 513 1097 495 1085 q 552 1109 531 1109 q 610 1045 610 1109 q 587 979 610 1006 q 531 952 564 952 m 199 1204 l 184 1221 q 195 1255 186 1234 q 212 1292 203 1276 l 627 1292 l 642 1276 q 628 1235 639 1260 q 616 1204 618 1209 l 199 1204 z "},"Ȧ":{"ha":827,"x_min":0,"x_max":812,"o":"m 183 75 q 182 67 182 70 q 205 43 182 52 q 282 29 229 35 l 282 0 l 0 0 l 0 29 q 77 47 53 39 q 107 75 101 56 l 359 839 q 393 866 373 854 q 439 893 413 879 l 724 75 q 750 45 730 56 q 812 29 770 34 l 812 0 l 526 0 l 526 29 q 593 40 572 32 q 614 64 614 47 q 612 75 614 69 l 535 302 l 258 302 l 183 75 m 395 711 l 279 363 l 514 363 l 395 711 m 395 952 q 338 1017 338 952 q 349 1064 338 1042 q 377 1097 359 1085 q 416 1109 395 1109 q 474 1045 474 1109 q 451 979 474 1006 q 395 952 429 952 z "},"Ạ":{"ha":827,"x_min":0,"x_max":812,"o":"m 183 75 q 182 67 182 70 q 205 43 182 52 q 282 29 229 35 l 282 0 l 0 0 l 0 29 q 77 47 53 39 q 107 75 101 56 l 359 839 q 393 866 373 854 q 439 893 413 879 l 724 75 q 750 45 730 56 q 812 29 770 34 l 812 0 l 526 0 l 526 29 q 593 40 572 32 q 614 64 614 47 q 612 75 614 69 l 535 302 l 258 302 l 183 75 m 395 711 l 279 363 l 514 363 l 395 711 m 395 -282 q 338 -217 338 -282 q 349 -171 338 -192 q 377 -137 359 -149 q 416 -125 395 -125 q 474 -189 474 -125 q 451 -255 474 -228 q 395 -282 429 -282 z "},"Ǡ":{"ha":827,"x_min":0,"x_max":812,"o":"m 183 75 q 182 67 182 70 q 205 43 182 52 q 282 29 229 35 l 282 0 l 0 0 l 0 29 q 77 47 53 39 q 107 75 101 56 l 359 839 q 393 866 373 854 q 439 893 413 879 l 724 75 q 750 45 730 56 q 812 29 770 34 l 812 0 l 526 0 l 526 29 q 593 40 572 32 q 614 64 614 47 q 612 75 614 69 l 535 302 l 258 302 l 183 75 m 395 711 l 279 363 l 514 363 l 395 711 m 395 952 q 338 1017 338 952 q 349 1064 338 1042 q 377 1097 359 1085 q 416 1109 395 1109 q 474 1045 474 1109 q 451 979 474 1006 q 395 952 429 952 m 199 1204 l 184 1221 q 195 1255 186 1234 q 212 1292 203 1276 l 627 1292 l 642 1276 q 628 1235 639 1260 q 616 1204 618 1209 l 199 1204 z "},"À":{"ha":827,"x_min":0,"x_max":812,"o":"m 183 75 q 182 67 182 70 q 205 43 182 52 q 282 29 229 35 l 282 0 l 0 0 l 0 29 q 77 47 53 39 q 107 75 101 56 l 359 839 q 393 866 373 854 q 439 893 413 879 l 724 75 q 750 45 730 56 q 812 29 770 34 l 812 0 l 526 0 l 526 29 q 593 40 572 32 q 614 64 614 47 q 612 75 614 69 l 535 302 l 258 302 l 183 75 m 395 711 l 279 363 l 514 363 l 395 711 m 178 1092 l 183 1122 q 228 1153 195 1135 q 264 1173 260 1171 l 526 958 q 517 946 523 954 q 507 934 512 938 q 496 927 503 930 l 178 1092 z "},"Ả":{"ha":827,"x_min":0,"x_max":812,"o":"m 183 75 q 182 67 182 70 q 205 43 182 52 q 282 29 229 35 l 282 0 l 0 0 l 0 29 q 77 47 53 39 q 107 75 101 56 l 359 839 q 393 866 373 854 q 439 893 413 879 l 724 75 q 750 45 730 56 q 812 29 770 34 l 812 0 l 526 0 l 526 29 q 593 40 572 32 q 614 64 614 47 q 612 75 614 69 l 535 302 l 258 302 l 183 75 m 395 711 l 279 363 l 514 363 l 395 711 m 456 954 q 439 946 448 948 q 414 943 430 944 q 366 973 380 960 q 351 1000 351 987 q 363 1024 351 1013 q 399 1051 375 1035 q 441 1083 427 1070 q 454 1112 454 1096 q 442 1150 454 1137 q 409 1163 429 1163 q 376 1150 390 1163 q 363 1121 363 1137 q 368 1107 363 1116 q 336 1098 358 1103 q 300 1092 314 1093 l 293 1099 l 293 1108 q 314 1149 293 1128 q 368 1183 336 1170 q 431 1196 400 1196 q 497 1175 473 1196 q 520 1121 520 1155 q 505 1084 520 1101 q 463 1048 490 1068 q 428 1019 439 1029 q 418 996 418 1008 q 456 954 418 976 z "},"Ā":{"ha":827,"x_min":0,"x_max":812,"o":"m 183 75 q 182 67 182 70 q 205 43 182 52 q 282 29 229 35 l 282 0 l 0 0 l 0 29 q 77 47 53 39 q 107 75 101 56 l 359 839 q 393 866 373 854 q 439 893 413 879 l 724 75 q 750 45 730 56 q 812 29 770 34 l 812 0 l 526 0 l 526 29 q 593 40 572 32 q 614 64 614 47 q 612 75 614 69 l 535 302 l 258 302 l 183 75 m 395 711 l 279 363 l 514 363 l 395 711 m 199 987 l 184 1004 q 195 1038 186 1017 q 212 1075 203 1059 l 627 1075 l 642 1059 q 628 1018 639 1043 q 616 987 618 992 l 199 987 z "},"Å":{"ha":827,"x_min":0,"x_max":812,"o":"m 183 75 q 182 67 182 70 q 205 43 182 52 q 282 29 229 35 l 282 0 l 0 0 l 0 29 q 77 47 53 39 q 107 75 101 56 l 359 839 q 393 866 373 854 q 439 893 413 879 l 724 75 q 750 45 730 56 q 812 29 770 34 l 812 0 l 526 0 l 526 29 q 593 40 572 32 q 614 64 614 47 q 612 75 614 69 l 535 302 l 258 302 l 183 75 m 395 711 l 279 363 l 514 363 l 395 711 m 385 929 q 331 943 355 929 q 294 981 307 958 q 280 1034 280 1005 q 302 1115 280 1078 q 358 1173 323 1152 q 427 1194 392 1194 q 480 1179 456 1194 q 518 1140 504 1164 q 532 1088 532 1116 q 510 1007 532 1044 q 454 950 488 971 q 385 929 420 929 m 413 1142 q 362 1119 384 1142 q 341 1061 341 1097 q 357 1005 341 1029 q 399 981 374 981 q 450 1002 429 981 q 471 1060 471 1023 q 455 1118 471 1094 q 413 1142 439 1142 z "},"Ǻ":{"ha":827,"x_min":0,"x_max":812,"o":"m 183 75 q 182 67 182 70 q 205 43 182 52 q 282 29 229 35 l 282 0 l 0 0 l 0 29 q 77 47 53 39 q 107 75 101 56 l 359 839 q 393 866 373 854 q 439 893 413 879 l 724 75 q 750 45 730 56 q 812 29 770 34 l 812 0 l 526 0 l 526 29 q 593 40 572 32 q 614 64 614 47 q 612 75 614 69 l 535 302 l 258 302 l 183 75 m 395 711 l 279 363 l 514 363 l 395 711 m 385 929 q 331 943 355 929 q 294 981 307 958 q 280 1034 280 1005 q 302 1115 280 1078 q 358 1173 323 1152 q 427 1194 392 1194 q 480 1179 456 1194 q 518 1140 504 1164 q 532 1088 532 1116 q 510 1007 532 1044 q 454 950 488 971 q 385 929 420 929 m 413 1142 q 362 1119 384 1142 q 341 1061 341 1097 q 357 1005 341 1029 q 399 981 374 981 q 450 1002 429 981 q 471 1060 471 1023 q 455 1118 471 1094 q 413 1142 439 1142 m 317 1225 q 303 1234 308 1230 q 294 1245 298 1238 q 286 1256 289 1252 l 549 1471 q 586 1450 554 1468 q 629 1421 617 1432 l 635 1390 l 317 1225 z "},"Ã":{"ha":827,"x_min":0,"x_max":812,"o":"m 183 75 q 182 67 182 70 q 205 43 182 52 q 282 29 229 35 l 282 0 l 0 0 l 0 29 q 77 47 53 39 q 107 75 101 56 l 359 839 q 393 866 373 854 q 439 893 413 879 l 724 75 q 750 45 730 56 q 812 29 770 34 l 812 0 l 526 0 l 526 29 q 593 40 572 32 q 614 64 614 47 q 612 75 614 69 l 535 302 l 258 302 l 183 75 m 395 711 l 279 363 l 514 363 l 395 711 m 475 950 q 434 960 453 950 q 385 991 414 970 q 341 1018 358 1009 q 308 1027 325 1027 q 261 1007 283 1027 q 211 945 239 987 l 175 958 q 245 1066 202 1021 q 337 1112 288 1112 q 385 1100 362 1112 q 438 1067 408 1088 q 475 1043 460 1050 q 503 1035 490 1035 q 601 1118 553 1035 l 637 1103 q 567 995 610 1040 q 475 950 524 950 z "},"Æ":{"ha":1082,"x_min":0,"x_max":1042,"o":"m 428 0 l 428 29 q 499 50 473 38 q 525 71 525 61 l 525 441 l 342 441 l 193 75 q 191 64 191 70 q 212 42 191 50 q 282 29 234 35 l 282 0 l 0 0 l 0 29 q 75 47 52 38 q 107 75 99 57 l 387 768 q 389 777 389 774 q 360 803 389 793 q 258 825 331 812 l 258 854 l 975 854 l 996 838 q 985 756 994 802 q 968 685 977 710 l 937 685 q 922 770 935 746 q 882 793 909 793 l 633 793 l 633 498 l 908 498 l 926 479 q 895 436 913 458 q 864 404 878 414 q 814 433 844 425 q 729 441 785 441 l 633 441 l 633 104 q 644 80 633 90 q 686 66 655 71 q 774 61 716 61 l 861 61 q 931 68 907 61 q 974 100 956 76 q 1011 178 991 125 l 1042 165 q 1013 0 1033 78 l 428 0 m 525 779 q 520 788 525 785 q 507 792 515 792 q 487 786 497 792 q 472 767 477 779 l 366 498 l 525 498 l 525 779 z "},"Ǽ":{"ha":1082,"x_min":0,"x_max":1042,"o":"m 428 0 l 428 29 q 499 50 473 38 q 525 71 525 61 l 525 441 l 342 441 l 193 75 q 191 64 191 70 q 212 42 191 50 q 282 29 234 35 l 282 0 l 0 0 l 0 29 q 75 47 52 38 q 107 75 99 57 l 387 768 q 389 777 389 774 q 360 803 389 793 q 258 825 331 812 l 258 854 l 975 854 l 996 838 q 985 756 994 802 q 968 685 977 710 l 937 685 q 922 770 935 746 q 882 793 909 793 l 633 793 l 633 498 l 908 498 l 926 479 q 895 436 913 458 q 864 404 878 414 q 814 433 844 425 q 729 441 785 441 l 633 441 l 633 104 q 644 80 633 90 q 686 66 655 71 q 774 61 716 61 l 861 61 q 931 68 907 61 q 974 100 956 76 q 1011 178 991 125 l 1042 165 q 1013 0 1033 78 l 428 0 m 525 779 q 520 788 525 785 q 507 792 515 792 q 487 786 497 792 q 472 767 477 779 l 366 498 l 525 498 l 525 779 m 537 927 q 524 936 528 931 q 514 947 519 940 q 507 958 509 954 l 769 1173 q 806 1152 774 1170 q 849 1122 838 1134 l 855 1092 l 537 927 z "},"Ǣ":{"ha":1082,"x_min":0,"x_max":1042,"o":"m 428 0 l 428 29 q 499 50 473 38 q 525 71 525 61 l 525 441 l 342 441 l 193 75 q 191 64 191 70 q 212 42 191 50 q 282 29 234 35 l 282 0 l 0 0 l 0 29 q 75 47 52 38 q 107 75 99 57 l 387 768 q 389 777 389 774 q 360 803 389 793 q 258 825 331 812 l 258 854 l 975 854 l 996 838 q 985 756 994 802 q 968 685 977 710 l 937 685 q 922 770 935 746 q 882 793 909 793 l 633 793 l 633 498 l 908 498 l 926 479 q 895 436 913 458 q 864 404 878 414 q 814 433 844 425 q 729 441 785 441 l 633 441 l 633 104 q 644 80 633 90 q 686 66 655 71 q 774 61 716 61 l 861 61 q 931 68 907 61 q 974 100 956 76 q 1011 178 991 125 l 1042 165 q 1013 0 1033 78 l 428 0 m 525 779 q 520 788 525 785 q 507 792 515 792 q 487 786 497 792 q 472 767 477 779 l 366 498 l 525 498 l 525 779 m 419 987 l 404 1004 q 415 1038 407 1017 q 432 1075 424 1059 l 848 1075 l 863 1059 q 849 1018 859 1043 q 836 987 838 992 l 419 987 z "},"B":{"ha":764,"x_min":28,"x_max":689,"o":"m 379 -9 q 224 -5 330 -9 q 83 0 119 -1 l 34 0 l 34 29 q 105 50 79 38 q 132 71 132 61 l 132 807 q 34 792 90 802 l 28 834 q 168 863 86 850 q 318 875 249 875 q 475 853 408 875 q 578 789 542 831 q 614 692 614 748 q 579 567 614 620 q 485 490 545 513 q 589 444 543 479 q 662 356 635 408 q 689 241 689 303 q 650 109 689 165 q 541 21 611 52 q 379 -9 470 -9 m 241 492 l 264 492 q 509 659 509 492 q 456 775 509 732 q 280 818 404 818 q 241 817 268 818 l 241 492 m 241 71 q 247 60 241 66 q 364 47 286 47 q 477 69 429 47 q 551 129 525 90 q 578 218 578 168 q 553 323 578 272 q 477 408 528 374 q 353 441 427 441 q 241 431 302 441 l 241 71 z "},"Ḃ":{"ha":764,"x_min":28,"x_max":689,"o":"m 379 -9 q 224 -5 330 -9 q 83 0 119 -1 l 34 0 l 34 29 q 105 50 79 38 q 132 71 132 61 l 132 807 q 34 792 90 802 l 28 834 q 168 863 86 850 q 318 875 249 875 q 475 853 408 875 q 578 789 542 831 q 614 692 614 748 q 579 567 614 620 q 485 490 545 513 q 589 444 543 479 q 662 356 635 408 q 689 241 689 303 q 650 109 689 165 q 541 21 611 52 q 379 -9 470 -9 m 241 492 l 264 492 q 509 659 509 492 q 456 775 509 732 q 280 818 404 818 q 241 817 268 818 l 241 492 m 241 71 q 247 60 241 66 q 364 47 286 47 q 477 69 429 47 q 551 129 525 90 q 578 218 578 168 q 553 323 578 272 q 477 408 528 374 q 353 441 427 441 q 241 431 302 441 l 241 71 m 347 952 q 290 1017 290 952 q 301 1064 290 1042 q 329 1097 311 1085 q 368 1109 347 1109 q 426 1045 426 1109 q 403 979 426 1006 q 347 952 380 952 z "},"Ḅ":{"ha":764,"x_min":28,"x_max":689,"o":"m 379 -9 q 224 -5 330 -9 q 83 0 119 -1 l 34 0 l 34 29 q 105 50 79 38 q 132 71 132 61 l 132 807 q 34 792 90 802 l 28 834 q 168 863 86 850 q 318 875 249 875 q 475 853 408 875 q 578 789 542 831 q 614 692 614 748 q 579 567 614 620 q 485 490 545 513 q 589 444 543 479 q 662 356 635 408 q 689 241 689 303 q 650 109 689 165 q 541 21 611 52 q 379 -9 470 -9 m 241 492 l 264 492 q 509 659 509 492 q 456 775 509 732 q 280 818 404 818 q 241 817 268 818 l 241 492 m 241 71 q 247 60 241 66 q 364 47 286 47 q 477 69 429 47 q 551 129 525 90 q 578 218 578 168 q 553 323 578 272 q 477 408 528 374 q 353 441 427 441 q 241 431 302 441 l 241 71 m 347 -282 q 290 -217 290 -282 q 301 -171 290 -192 q 329 -137 311 -149 q 368 -125 347 -125 q 426 -189 426 -125 q 403 -255 426 -228 q 347 -282 380 -282 z "},"Ɓ":{"ha":920,"x_min":20,"x_max":845,"o":"m 399 875 q 585 861 515 875 q 703 816 655 848 q 752 763 734 795 q 770 692 770 730 q 735 567 770 620 q 641 490 701 513 q 745 444 699 479 q 818 356 791 408 q 845 241 845 303 q 806 109 845 165 q 696 21 767 52 q 535 -9 626 -9 q 380 -5 486 -9 q 239 0 275 -1 l 190 0 l 190 29 q 261 50 235 38 q 288 71 288 61 l 288 813 q 173 776 214 804 q 132 703 132 749 q 144 660 132 679 q 178 631 157 641 q 159 614 176 625 q 118 594 141 604 q 78 581 96 584 q 36 618 52 591 q 20 680 20 644 q 66 783 20 739 q 198 851 112 827 q 399 875 283 875 m 397 492 l 420 492 q 664 659 664 492 q 651 722 664 692 q 613 770 637 751 q 533 807 580 796 q 397 818 487 817 l 397 492 m 397 71 q 403 60 397 66 q 520 47 442 47 q 633 69 585 47 q 707 129 681 90 q 734 218 734 168 q 709 323 734 272 q 633 407 684 374 q 509 440 583 440 q 397 431 454 440 l 397 71 z "},"Ḇ":{"ha":764,"x_min":28,"x_max":689,"o":"m 379 -9 q 224 -5 330 -9 q 83 0 119 -1 l 34 0 l 34 29 q 105 50 79 38 q 132 71 132 61 l 132 807 q 34 792 90 802 l 28 834 q 168 863 86 850 q 318 875 249 875 q 475 853 408 875 q 578 789 542 831 q 614 692 614 748 q 579 567 614 620 q 485 490 545 513 q 589 444 543 479 q 662 356 635 408 q 689 241 689 303 q 650 109 689 165 q 541 21 611 52 q 379 -9 470 -9 m 241 492 l 264 492 q 509 659 509 492 q 456 775 509 732 q 280 818 404 818 q 241 817 268 818 l 241 492 m 241 71 q 247 60 241 66 q 364 47 286 47 q 477 69 429 47 q 551 129 525 90 q 578 218 578 168 q 553 323 578 272 q 477 408 528 374 q 353 441 427 441 q 241 431 302 441 l 241 71 m 144 -227 l 129 -210 q 140 -176 132 -197 q 157 -139 149 -155 l 572 -139 l 587 -155 q 573 -196 584 -171 q 561 -227 563 -222 l 144 -227 z "},"C":{"ha":745,"x_min":47,"x_max":690,"o":"m 387 -20 q 223 31 302 -20 q 96 177 145 81 q 47 397 47 272 q 103 647 47 538 q 253 815 159 755 q 458 875 347 875 q 583 856 527 875 q 677 807 640 838 q 662 774 684 802 q 616 724 640 747 l 593 728 q 508 781 556 762 q 401 800 460 800 q 291 762 349 800 q 193 638 233 723 q 153 422 153 553 q 195 227 153 309 q 303 103 237 144 q 436 61 368 61 q 536 88 477 61 q 665 174 595 115 q 680 158 671 171 q 690 143 688 145 q 534 17 608 54 q 387 -20 461 -20 z "},"Ć":{"ha":745,"x_min":47,"x_max":690,"o":"m 387 -20 q 223 31 302 -20 q 96 177 145 81 q 47 397 47 272 q 103 647 47 538 q 253 815 159 755 q 458 875 347 875 q 583 856 527 875 q 677 807 640 838 q 662 774 684 802 q 616 724 640 747 l 593 728 q 508 781 556 762 q 401 800 460 800 q 291 762 349 800 q 193 638 233 723 q 153 422 153 553 q 195 227 153 309 q 303 103 237 144 q 436 61 368 61 q 536 88 477 61 q 665 174 595 115 q 680 158 671 171 q 690 143 688 145 q 534 17 608 54 q 387 -20 461 -20 m 327 927 q 313 936 318 931 q 304 947 309 940 q 296 958 299 954 l 559 1173 q 596 1152 564 1170 q 639 1122 627 1134 l 645 1092 l 327 927 z "},"Č":{"ha":745,"x_min":47,"x_max":690,"o":"m 387 -20 q 223 31 302 -20 q 96 177 145 81 q 47 397 47 272 q 103 647 47 538 q 253 815 159 755 q 458 875 347 875 q 583 856 527 875 q 677 807 640 838 q 662 774 684 802 q 616 724 640 747 l 593 728 q 508 781 556 762 q 401 800 460 800 q 291 762 349 800 q 193 638 233 723 q 153 422 153 553 q 195 227 153 309 q 303 103 237 144 q 436 61 368 61 q 536 88 477 61 q 665 174 595 115 q 680 158 671 171 q 690 143 688 145 q 534 17 608 54 q 387 -20 461 -20 m 380 943 l 201 1152 q 209 1163 203 1154 q 220 1175 215 1171 q 232 1183 224 1179 l 418 1040 l 602 1183 q 617 1173 612 1178 q 631 1152 621 1167 l 453 943 l 380 943 z "},"Ç":{"ha":745,"x_min":47,"x_max":690,"o":"m 690 143 q 556 29 620 67 q 431 -18 493 -9 l 413 -71 q 481 -100 454 -79 q 508 -155 508 -120 q 457 -247 508 -208 q 299 -301 406 -286 l 284 -268 q 382 -234 350 -256 q 414 -187 414 -212 q 397 -155 414 -165 q 337 -142 380 -146 q 346 -115 338 -140 q 377 -20 355 -91 q 217 35 293 -17 q 94 180 141 86 q 47 397 47 274 q 103 647 47 538 q 253 815 159 755 q 458 875 347 875 q 583 856 527 875 q 677 807 640 838 q 662 774 684 802 q 616 724 640 747 l 593 728 q 508 781 556 762 q 401 800 460 800 q 291 762 349 800 q 193 638 233 723 q 153 422 153 553 q 195 227 153 309 q 303 103 237 144 q 436 61 368 61 q 536 88 477 61 q 665 174 595 115 q 680 158 671 171 q 690 143 688 145 z "},"Ḉ":{"ha":745,"x_min":47,"x_max":690,"o":"m 327 927 q 313 936 318 931 q 304 947 309 940 q 296 958 299 954 l 559 1173 q 596 1152 564 1170 q 639 1122 627 1134 l 645 1092 l 327 927 m 690 143 q 556 29 620 67 q 431 -18 493 -9 l 413 -71 q 481 -100 454 -79 q 508 -155 508 -120 q 457 -247 508 -208 q 299 -301 406 -286 l 284 -268 q 382 -234 350 -256 q 414 -187 414 -212 q 397 -155 414 -165 q 337 -142 380 -146 q 346 -115 338 -140 q 377 -20 355 -91 q 217 35 293 -17 q 94 180 141 86 q 47 397 47 274 q 103 647 47 538 q 253 815 159 755 q 458 875 347 875 q 583 856 527 875 q 677 807 640 838 q 662 774 684 802 q 616 724 640 747 l 593 728 q 508 781 556 762 q 401 800 460 800 q 291 762 349 800 q 193 638 233 723 q 153 422 153 553 q 195 227 153 309 q 303 103 237 144 q 436 61 368 61 q 536 88 477 61 q 665 174 595 115 q 680 158 671 171 q 690 143 688 145 z "},"Ĉ":{"ha":745,"x_min":47,"x_max":690,"o":"m 387 -20 q 223 31 302 -20 q 96 177 145 81 q 47 397 47 272 q 103 647 47 538 q 253 815 159 755 q 458 875 347 875 q 583 856 527 875 q 677 807 640 838 q 662 774 684 802 q 616 724 640 747 l 593 728 q 508 781 556 762 q 401 800 460 800 q 291 762 349 800 q 193 638 233 723 q 153 422 153 553 q 195 227 153 309 q 303 103 237 144 q 436 61 368 61 q 536 88 477 61 q 665 174 595 115 q 680 158 671 171 q 690 143 688 145 q 534 17 608 54 q 387 -20 461 -20 m 416 1068 l 232 927 q 219 935 224 931 q 210 946 215 939 q 201 958 205 954 l 380 1167 l 453 1167 l 631 958 q 624 947 629 955 q 614 935 618 939 q 602 927 609 930 l 416 1068 z "},"Ċ":{"ha":745,"x_min":47,"x_max":690,"o":"m 387 -20 q 223 31 302 -20 q 96 177 145 81 q 47 397 47 272 q 103 647 47 538 q 253 815 159 755 q 458 875 347 875 q 583 856 527 875 q 677 807 640 838 q 662 774 684 802 q 616 724 640 747 l 593 728 q 508 781 556 762 q 401 800 460 800 q 291 762 349 800 q 193 638 233 723 q 153 422 153 553 q 195 227 153 309 q 303 103 237 144 q 436 61 368 61 q 536 88 477 61 q 665 174 595 115 q 680 158 671 171 q 690 143 688 145 q 534 17 608 54 q 387 -20 461 -20 m 406 952 q 349 1017 349 952 q 359 1064 349 1042 q 388 1097 370 1085 q 427 1109 406 1109 q 484 1045 484 1109 q 461 979 484 1006 q 406 952 439 952 z "},"D":{"ha":823,"x_min":28,"x_max":762,"o":"m 34 0 l 34 29 q 105 50 79 38 q 132 71 132 61 l 132 806 q 65 797 142 807 q 34 792 54 795 l 28 834 q 181 863 89 851 q 351 875 273 875 q 569 825 477 875 q 712 682 662 776 q 762 458 762 588 q 703 197 762 300 q 556 47 644 94 q 379 0 468 0 l 34 0 m 241 104 q 248 80 241 90 q 285 62 258 68 q 364 57 312 57 q 496 100 431 57 q 604 227 561 142 q 646 432 646 312 q 607 639 646 552 q 491 772 567 726 q 307 818 415 818 q 241 816 273 818 l 241 104 z "},"Ɖ":{"ha":823,"x_min":18,"x_max":762,"o":"m 351 875 q 569 825 477 875 q 712 682 662 776 q 762 458 762 588 q 703 197 762 300 q 556 47 644 94 q 379 0 468 0 l 34 0 l 34 29 q 105 50 79 38 q 132 71 132 61 l 132 417 l 33 417 l 18 434 q 33 478 25 457 l 132 478 l 132 806 q 65 797 142 807 q 34 792 54 795 l 28 834 q 181 863 89 851 q 351 875 273 875 m 364 57 q 496 100 431 57 q 604 227 561 142 q 646 432 646 312 q 607 639 646 552 q 491 772 567 726 q 307 818 415 818 q 241 816 273 818 l 241 478 l 416 478 l 433 463 l 416 417 l 241 417 l 241 104 q 248 80 241 90 q 285 62 258 68 q 364 57 312 57 z "},"Ð":{"ha":823,"x_min":18,"x_max":762,"o":"m 351 875 q 569 825 477 875 q 712 682 662 776 q 762 458 762 588 q 703 197 762 300 q 556 47 644 94 q 379 0 468 0 l 34 0 l 34 29 q 105 50 79 38 q 132 71 132 61 l 132 417 l 33 417 l 18 434 q 33 478 25 457 l 132 478 l 132 806 q 65 797 142 807 q 34 792 54 795 l 28 834 q 181 863 89 851 q 351 875 273 875 m 364 57 q 496 100 431 57 q 604 227 561 142 q 646 432 646 312 q 607 639 646 552 q 491 772 567 726 q 307 818 415 818 q 241 816 273 818 l 241 478 l 416 478 l 433 463 l 416 417 l 241 417 l 241 104 q 248 80 241 90 q 285 62 258 68 q 364 57 312 57 z "},"Ď":{"ha":823,"x_min":28,"x_max":762,"o":"m 34 0 l 34 29 q 105 50 79 38 q 132 71 132 61 l 132 806 q 65 797 142 807 q 34 792 54 795 l 28 834 q 181 863 89 851 q 351 875 273 875 q 569 825 477 875 q 712 682 662 776 q 762 458 762 588 q 703 197 762 300 q 556 47 644 94 q 379 0 468 0 l 34 0 m 241 104 q 248 80 241 90 q 285 62 258 68 q 364 57 312 57 q 496 100 431 57 q 604 227 561 142 q 646 432 646 312 q 607 639 646 552 q 491 772 567 726 q 307 818 415 818 q 241 816 273 818 l 241 104 m 337 943 l 158 1152 q 166 1163 160 1154 q 176 1175 172 1171 q 189 1183 181 1179 l 375 1040 l 558 1183 q 573 1173 569 1178 q 587 1152 578 1167 l 410 943 l 337 943 z "},"Đ":{"ha":823,"x_min":18,"x_max":762,"o":"m 351 875 q 569 825 477 875 q 712 682 662 776 q 762 458 762 588 q 703 197 762 300 q 556 47 644 94 q 379 0 468 0 l 34 0 l 34 29 q 105 50 79 38 q 132 71 132 61 l 132 417 l 33 417 l 18 434 q 33 478 25 457 l 132 478 l 132 806 q 65 797 142 807 q 34 792 54 795 l 28 834 q 181 863 89 851 q 351 875 273 875 m 364 57 q 496 100 431 57 q 604 227 561 142 q 646 432 646 312 q 607 639 646 552 q 491 772 567 726 q 307 818 415 818 q 241 816 273 818 l 241 478 l 416 478 l 433 463 l 416 417 l 241 417 l 241 104 q 248 80 241 90 q 285 62 258 68 q 364 57 312 57 z "},"Ḋ":{"ha":823,"x_min":28,"x_max":762,"o":"m 34 0 l 34 29 q 105 50 79 38 q 132 71 132 61 l 132 806 q 65 797 142 807 q 34 792 54 795 l 28 834 q 181 863 89 851 q 351 875 273 875 q 569 825 477 875 q 712 682 662 776 q 762 458 762 588 q 703 197 762 300 q 556 47 644 94 q 379 0 468 0 l 34 0 m 241 104 q 248 80 241 90 q 285 62 258 68 q 364 57 312 57 q 496 100 431 57 q 604 227 561 142 q 646 432 646 312 q 607 639 646 552 q 491 772 567 726 q 307 818 415 818 q 241 816 273 818 l 241 104 m 362 952 q 305 1017 305 952 q 316 1064 305 1042 q 344 1097 326 1085 q 383 1109 362 1109 q 441 1045 441 1109 q 418 979 441 1006 q 362 952 395 952 z "},"Ḍ":{"ha":823,"x_min":28,"x_max":762,"o":"m 34 0 l 34 29 q 105 50 79 38 q 132 71 132 61 l 132 806 q 65 797 142 807 q 34 792 54 795 l 28 834 q 181 863 89 851 q 351 875 273 875 q 569 825 477 875 q 712 682 662 776 q 762 458 762 588 q 703 197 762 300 q 556 47 644 94 q 379 0 468 0 l 34 0 m 241 104 q 248 80 241 90 q 285 62 258 68 q 364 57 312 57 q 496 100 431 57 q 604 227 561 142 q 646 432 646 312 q 607 639 646 552 q 491 772 567 726 q 307 818 415 818 q 241 816 273 818 l 241 104 m 362 -282 q 305 -217 305 -282 q 316 -171 305 -192 q 344 -137 326 -149 q 383 -125 362 -125 q 441 -189 441 -125 q 418 -255 441 -228 q 362 -282 395 -282 z "},"Ɗ":{"ha":979,"x_min":20,"x_max":918,"o":"m 446 875 q 625 861 557 875 q 743 815 692 848 q 918 458 918 703 q 859 197 918 300 q 712 47 800 94 q 535 0 624 0 l 190 0 l 190 29 q 261 50 235 38 q 288 71 288 61 l 288 812 q 132 703 132 793 q 144 660 132 679 q 178 631 157 641 q 159 614 176 625 q 118 594 141 604 q 78 581 96 584 q 36 618 52 591 q 20 680 20 644 q 134 827 20 779 q 446 875 248 875 m 397 104 q 404 80 397 90 q 441 62 414 68 q 520 57 468 57 q 652 100 587 57 q 760 227 717 142 q 802 432 802 312 q 772 614 802 530 q 680 748 743 697 q 610 790 647 775 q 524 811 574 804 q 397 818 473 817 l 397 104 z "},"Ḏ":{"ha":823,"x_min":28,"x_max":762,"o":"m 34 0 l 34 29 q 105 50 79 38 q 132 71 132 61 l 132 806 q 65 797 142 807 q 34 792 54 795 l 28 834 q 181 863 89 851 q 351 875 273 875 q 569 825 477 875 q 712 682 662 776 q 762 458 762 588 q 703 197 762 300 q 556 47 644 94 q 379 0 468 0 l 34 0 m 241 104 q 248 80 241 90 q 285 62 258 68 q 364 57 312 57 q 496 100 431 57 q 604 227 561 142 q 646 432 646 312 q 607 639 646 552 q 491 772 567 726 q 307 818 415 818 q 241 816 273 818 l 241 104 m 159 -227 l 144 -210 q 155 -176 146 -197 q 172 -139 163 -155 l 587 -139 l 602 -155 q 588 -196 599 -171 q 576 -227 578 -222 l 159 -227 z "},"E":{"ha":689,"x_min":34,"x_max":647,"o":"m 34 0 l 34 29 q 105 50 79 38 q 132 71 132 61 l 132 783 q 106 804 132 792 q 34 825 80 817 l 34 854 l 581 854 l 603 838 q 592 759 601 804 q 575 685 584 713 l 545 685 q 528 769 542 745 q 489 793 515 793 l 241 793 l 241 498 l 515 498 l 533 479 q 503 437 521 459 q 471 404 485 414 q 420 433 449 425 q 336 441 392 441 l 241 441 l 241 104 q 251 80 241 90 q 292 66 262 71 q 379 61 321 61 l 467 61 q 537 68 512 61 q 580 100 562 76 q 618 178 599 125 l 647 165 q 634 70 642 113 q 619 0 627 26 l 34 0 z "},"É":{"ha":689,"x_min":34,"x_max":647,"o":"m 34 0 l 34 29 q 105 50 79 38 q 132 71 132 61 l 132 783 q 106 804 132 792 q 34 825 80 817 l 34 854 l 581 854 l 603 838 q 592 759 601 804 q 575 685 584 713 l 545 685 q 528 769 542 745 q 489 793 515 793 l 241 793 l 241 498 l 515 498 l 533 479 q 503 437 521 459 q 471 404 485 414 q 420 433 449 425 q 336 441 392 441 l 241 441 l 241 104 q 251 80 241 90 q 292 66 262 71 q 379 61 321 61 l 467 61 q 537 68 512 61 q 580 100 562 76 q 618 178 599 125 l 647 165 q 634 70 642 113 q 619 0 627 26 l 34 0 m 251 927 q 237 936 242 931 q 228 947 233 940 q 220 958 223 954 l 483 1173 q 520 1152 488 1170 q 563 1122 551 1134 l 569 1092 l 251 927 z "},"Ĕ":{"ha":689,"x_min":34,"x_max":647,"o":"m 34 0 l 34 29 q 105 50 79 38 q 132 71 132 61 l 132 783 q 106 804 132 792 q 34 825 80 817 l 34 854 l 581 854 l 603 838 q 592 759 601 804 q 575 685 584 713 l 545 685 q 528 769 542 745 q 489 793 515 793 l 241 793 l 241 498 l 515 498 l 533 479 q 503 437 521 459 q 471 404 485 414 q 420 433 449 425 q 336 441 392 441 l 241 441 l 241 104 q 251 80 241 90 q 292 66 262 71 q 379 61 321 61 l 467 61 q 537 68 512 61 q 580 100 562 76 q 618 178 599 125 l 647 165 q 634 70 642 113 q 619 0 627 26 l 34 0 m 342 943 q 215 989 271 943 q 120 1139 159 1035 q 136 1158 127 1151 q 156 1170 144 1164 q 237 1065 187 1099 q 339 1032 288 1032 q 444 1065 393 1032 q 525 1170 495 1098 q 545 1158 537 1164 q 561 1139 553 1152 q 465 989 522 1036 q 342 943 408 943 z "},"Ě":{"ha":689,"x_min":34,"x_max":647,"o":"m 34 0 l 34 29 q 105 50 79 38 q 132 71 132 61 l 132 783 q 106 804 132 792 q 34 825 80 817 l 34 854 l 581 854 l 603 838 q 592 759 601 804 q 575 685 584 713 l 545 685 q 528 769 542 745 q 489 793 515 793 l 241 793 l 241 498 l 515 498 l 533 479 q 503 437 521 459 q 471 404 485 414 q 420 433 449 425 q 336 441 392 441 l 241 441 l 241 104 q 251 80 241 90 q 292 66 262 71 q 379 61 321 61 l 467 61 q 537 68 512 61 q 580 100 562 76 q 618 178 599 125 l 647 165 q 634 70 642 113 q 619 0 627 26 l 34 0 m 304 943 l 125 1152 q 133 1163 127 1154 q 144 1175 139 1171 q 156 1183 149 1179 l 342 1040 l 526 1183 q 541 1173 536 1178 q 555 1152 545 1167 l 377 943 l 304 943 z "},"Ȩ":{"ha":689,"x_min":34,"x_max":647,"o":"m 34 0 l 34 29 q 105 50 79 38 q 132 71 132 61 l 132 783 q 106 804 132 792 q 34 825 80 817 l 34 854 l 581 854 l 603 838 q 592 759 601 804 q 575 685 584 713 l 545 685 q 528 769 542 745 q 489 793 515 793 l 241 793 l 241 498 l 515 498 l 533 479 q 503 437 521 459 q 471 404 485 414 q 420 433 449 425 q 336 441 392 441 l 241 441 l 241 104 q 251 80 241 90 q 292 66 262 71 q 379 61 321 61 l 467 61 q 537 68 512 61 q 580 100 562 76 q 618 178 599 125 l 647 165 q 634 70 642 113 q 619 0 627 26 l 34 0 m 229 -268 q 327 -234 294 -256 q 359 -187 359 -212 q 342 -155 359 -165 q 281 -142 325 -146 q 293 -109 283 -140 q 331 9 303 -78 l 384 8 l 357 -71 q 426 -100 399 -79 q 452 -155 452 -120 q 401 -247 452 -208 q 243 -301 350 -286 l 229 -268 z "},"Ḝ":{"ha":689,"x_min":34,"x_max":647,"o":"m 34 0 l 34 29 q 105 50 79 38 q 132 71 132 61 l 132 783 q 106 804 132 792 q 34 825 80 817 l 34 854 l 581 854 l 603 838 q 592 759 601 804 q 575 685 584 713 l 545 685 q 528 769 542 745 q 489 793 515 793 l 241 793 l 241 498 l 515 498 l 533 479 q 503 437 521 459 q 471 404 485 414 q 420 433 449 425 q 336 441 392 441 l 241 441 l 241 104 q 251 80 241 90 q 292 66 262 71 q 379 61 321 61 l 467 61 q 537 68 512 61 q 580 100 562 76 q 618 178 599 125 l 647 165 q 634 70 642 113 q 619 0 627 26 l 34 0 m 229 -268 q 327 -234 294 -256 q 359 -187 359 -212 q 342 -155 359 -165 q 281 -142 325 -146 q 293 -109 283 -140 q 331 9 303 -78 l 384 8 l 357 -71 q 426 -100 399 -79 q 452 -155 452 -120 q 401 -247 452 -208 q 243 -301 350 -286 l 229 -268 m 342 943 q 215 989 271 943 q 120 1139 159 1035 q 136 1158 127 1151 q 156 1170 144 1164 q 237 1065 187 1099 q 339 1032 288 1032 q 444 1065 393 1032 q 525 1170 495 1098 q 545 1158 537 1164 q 561 1139 553 1152 q 465 989 522 1036 q 342 943 408 943 z "},"Ê":{"ha":689,"x_min":34,"x_max":647,"o":"m 34 0 l 34 29 q 105 50 79 38 q 132 71 132 61 l 132 783 q 106 804 132 792 q 34 825 80 817 l 34 854 l 581 854 l 603 838 q 592 759 601 804 q 575 685 584 713 l 545 685 q 528 769 542 745 q 489 793 515 793 l 241 793 l 241 498 l 515 498 l 533 479 q 503 437 521 459 q 471 404 485 414 q 420 433 449 425 q 336 441 392 441 l 241 441 l 241 104 q 251 80 241 90 q 292 66 262 71 q 379 61 321 61 l 467 61 q 537 68 512 61 q 580 100 562 76 q 618 178 599 125 l 647 165 q 634 70 642 113 q 619 0 627 26 l 34 0 m 340 1068 l 156 927 q 143 935 148 931 q 134 946 139 939 q 125 958 129 954 l 304 1167 l 377 1167 l 555 958 q 548 947 553 955 q 538 935 543 939 q 526 927 533 930 l 340 1068 z "},"Ế":{"ha":689,"x_min":34,"x_max":647,"o":"m 34 0 l 34 29 q 105 50 79 38 q 132 71 132 61 l 132 783 q 106 804 132 792 q 34 825 80 817 l 34 854 l 581 854 l 603 838 q 592 759 601 804 q 575 685 584 713 l 545 685 q 528 769 542 745 q 489 793 515 793 l 241 793 l 241 498 l 515 498 l 533 479 q 503 437 521 459 q 471 404 485 414 q 420 433 449 425 q 336 441 392 441 l 241 441 l 241 104 q 251 80 241 90 q 292 66 262 71 q 379 61 321 61 l 467 61 q 537 68 512 61 q 580 100 562 76 q 618 178 599 125 l 647 165 q 634 70 642 113 q 619 0 627 26 l 34 0 m 340 1068 l 156 927 q 143 935 148 931 q 134 946 139 939 q 125 958 129 954 l 304 1167 l 377 1167 l 555 958 q 548 947 553 955 q 538 935 543 939 q 526 927 533 930 l 340 1068 m 251 1198 q 237 1207 242 1202 q 228 1218 233 1211 q 220 1229 223 1225 l 483 1444 q 520 1423 488 1441 q 563 1394 551 1405 l 569 1363 l 251 1198 z "},"Ệ":{"ha":689,"x_min":34,"x_max":647,"o":"m 34 0 l 34 29 q 105 50 79 38 q 132 71 132 61 l 132 783 q 106 804 132 792 q 34 825 80 817 l 34 854 l 581 854 l 603 838 q 592 759 601 804 q 575 685 584 713 l 545 685 q 528 769 542 745 q 489 793 515 793 l 241 793 l 241 498 l 515 498 l 533 479 q 503 437 521 459 q 471 404 485 414 q 420 433 449 425 q 336 441 392 441 l 241 441 l 241 104 q 251 80 241 90 q 292 66 262 71 q 379 61 321 61 l 467 61 q 537 68 512 61 q 580 100 562 76 q 618 178 599 125 l 647 165 q 634 70 642 113 q 619 0 627 26 l 34 0 m 330 -282 q 273 -217 273 -282 q 283 -171 273 -192 q 312 -137 294 -149 q 351 -125 330 -125 q 408 -189 408 -125 q 386 -255 408 -228 q 330 -282 363 -282 m 340 1068 l 156 927 q 143 935 148 931 q 134 946 139 939 q 125 958 129 954 l 304 1167 l 377 1167 l 555 958 q 548 947 553 955 q 538 935 543 939 q 526 927 533 930 l 340 1068 z "},"Ề":{"ha":689,"x_min":34,"x_max":647,"o":"m 34 0 l 34 29 q 105 50 79 38 q 132 71 132 61 l 132 783 q 106 804 132 792 q 34 825 80 817 l 34 854 l 581 854 l 603 838 q 592 759 601 804 q 575 685 584 713 l 545 685 q 528 769 542 745 q 489 793 515 793 l 241 793 l 241 498 l 515 498 l 533 479 q 503 437 521 459 q 471 404 485 414 q 420 433 449 425 q 336 441 392 441 l 241 441 l 241 104 q 251 80 241 90 q 292 66 262 71 q 379 61 321 61 l 467 61 q 537 68 512 61 q 580 100 562 76 q 618 178 599 125 l 647 165 q 634 70 642 113 q 619 0 627 26 l 34 0 m 340 1068 l 156 927 q 143 935 148 931 q 134 946 139 939 q 125 958 129 954 l 304 1167 l 377 1167 l 555 958 q 548 947 553 955 q 538 935 543 939 q 526 927 533 930 l 340 1068 m 112 1363 l 117 1394 q 162 1424 130 1407 q 198 1444 195 1442 l 460 1229 q 452 1217 457 1225 q 441 1205 446 1209 q 430 1198 437 1202 l 112 1363 z "},"Ể":{"ha":689,"x_min":34,"x_max":647,"o":"m 34 0 l 34 29 q 105 50 79 38 q 132 71 132 61 l 132 783 q 106 804 132 792 q 34 825 80 817 l 34 854 l 581 854 l 603 838 q 592 759 601 804 q 575 685 584 713 l 545 685 q 528 769 542 745 q 489 793 515 793 l 241 793 l 241 498 l 515 498 l 533 479 q 503 437 521 459 q 471 404 485 414 q 420 433 449 425 q 336 441 392 441 l 241 441 l 241 104 q 251 80 241 90 q 292 66 262 71 q 379 61 321 61 l 467 61 q 537 68 512 61 q 580 100 562 76 q 618 178 599 125 l 647 165 q 634 70 642 113 q 619 0 627 26 l 34 0 m 340 1068 l 156 927 q 143 935 148 931 q 134 946 139 939 q 125 958 129 954 l 304 1167 l 377 1167 l 555 958 q 548 947 553 955 q 538 935 543 939 q 526 927 533 930 l 340 1068 m 390 1225 q 373 1217 382 1219 q 349 1214 364 1215 q 300 1244 315 1231 q 285 1271 285 1258 q 297 1295 285 1284 q 334 1322 309 1306 q 375 1354 361 1341 q 389 1383 389 1367 q 376 1421 389 1408 q 343 1434 363 1434 q 311 1421 324 1434 q 297 1392 297 1408 q 302 1378 297 1388 q 270 1369 292 1374 q 235 1363 248 1364 l 227 1371 l 227 1379 q 249 1420 227 1400 q 302 1454 270 1441 q 366 1467 334 1467 q 431 1447 408 1467 q 454 1392 454 1426 q 439 1356 454 1372 q 397 1319 425 1339 q 362 1290 373 1301 q 352 1267 352 1280 q 390 1225 352 1247 z "},"Ễ":{"ha":689,"x_min":34,"x_max":647,"o":"m 34 0 l 34 29 q 105 50 79 38 q 132 71 132 61 l 132 783 q 106 804 132 792 q 34 825 80 817 l 34 854 l 581 854 l 603 838 q 592 759 601 804 q 575 685 584 713 l 545 685 q 528 769 542 745 q 489 793 515 793 l 241 793 l 241 498 l 515 498 l 533 479 q 503 437 521 459 q 471 404 485 414 q 420 433 449 425 q 336 441 392 441 l 241 441 l 241 104 q 251 80 241 90 q 292 66 262 71 q 379 61 321 61 l 467 61 q 537 68 512 61 q 580 100 562 76 q 618 178 599 125 l 647 165 q 634 70 642 113 q 619 0 627 26 l 34 0 m 340 1068 l 156 927 q 143 935 148 931 q 134 946 139 939 q 125 958 129 954 l 304 1167 l 377 1167 l 555 958 q 548 947 553 955 q 538 935 543 939 q 526 927 533 930 l 340 1068 m 409 1221 q 368 1232 387 1221 q 319 1262 349 1242 q 276 1289 292 1280 q 242 1298 259 1298 q 195 1278 217 1298 q 145 1216 173 1258 l 109 1230 q 179 1338 136 1293 q 271 1383 222 1383 q 319 1371 296 1383 q 372 1338 342 1359 q 409 1314 395 1322 q 437 1306 424 1306 q 535 1390 487 1306 l 572 1374 q 501 1266 545 1312 q 409 1221 458 1221 z "},"Ë":{"ha":689,"x_min":34,"x_max":647,"o":"m 34 0 l 34 29 q 105 50 79 38 q 132 71 132 61 l 132 783 q 106 804 132 792 q 34 825 80 817 l 34 854 l 581 854 l 603 838 q 592 759 601 804 q 575 685 584 713 l 545 685 q 528 769 542 745 q 489 793 515 793 l 241 793 l 241 498 l 515 498 l 533 479 q 503 437 521 459 q 471 404 485 414 q 420 433 449 425 q 336 441 392 441 l 241 441 l 241 104 q 251 80 241 90 q 292 66 262 71 q 379 61 321 61 l 467 61 q 537 68 512 61 q 580 100 562 76 q 618 178 599 125 l 647 165 q 634 70 642 113 q 619 0 627 26 l 34 0 m 194 952 q 137 1017 137 952 q 148 1064 137 1042 q 176 1097 158 1085 q 215 1109 194 1109 q 273 1045 273 1109 q 250 979 273 1006 q 194 952 227 952 m 465 952 q 408 1017 408 952 q 419 1064 408 1042 q 447 1097 429 1085 q 486 1109 465 1109 q 544 1045 544 1109 q 521 979 544 1006 q 465 952 498 952 z "},"Ė":{"ha":689,"x_min":34,"x_max":647,"o":"m 34 0 l 34 29 q 105 50 79 38 q 132 71 132 61 l 132 783 q 106 804 132 792 q 34 825 80 817 l 34 854 l 581 854 l 603 838 q 592 759 601 804 q 575 685 584 713 l 545 685 q 528 769 542 745 q 489 793 515 793 l 241 793 l 241 498 l 515 498 l 533 479 q 503 437 521 459 q 471 404 485 414 q 420 433 449 425 q 336 441 392 441 l 241 441 l 241 104 q 251 80 241 90 q 292 66 262 71 q 379 61 321 61 l 467 61 q 537 68 512 61 q 580 100 562 76 q 618 178 599 125 l 647 165 q 634 70 642 113 q 619 0 627 26 l 34 0 m 330 952 q 273 1017 273 952 q 283 1064 273 1042 q 312 1097 294 1085 q 351 1109 330 1109 q 408 1045 408 1109 q 386 979 408 1006 q 330 952 363 952 z "},"Ẹ":{"ha":689,"x_min":34,"x_max":647,"o":"m 34 0 l 34 29 q 105 50 79 38 q 132 71 132 61 l 132 783 q 106 804 132 792 q 34 825 80 817 l 34 854 l 581 854 l 603 838 q 592 759 601 804 q 575 685 584 713 l 545 685 q 528 769 542 745 q 489 793 515 793 l 241 793 l 241 498 l 515 498 l 533 479 q 503 437 521 459 q 471 404 485 414 q 420 433 449 425 q 336 441 392 441 l 241 441 l 241 104 q 251 80 241 90 q 292 66 262 71 q 379 61 321 61 l 467 61 q 537 68 512 61 q 580 100 562 76 q 618 178 599 125 l 647 165 q 634 70 642 113 q 619 0 627 26 l 34 0 m 330 -282 q 273 -217 273 -282 q 283 -171 273 -192 q 312 -137 294 -149 q 351 -125 330 -125 q 408 -189 408 -125 q 386 -255 408 -228 q 330 -282 363 -282 z "},"È":{"ha":689,"x_min":34,"x_max":647,"o":"m 34 0 l 34 29 q 105 50 79 38 q 132 71 132 61 l 132 783 q 106 804 132 792 q 34 825 80 817 l 34 854 l 581 854 l 603 838 q 592 759 601 804 q 575 685 584 713 l 545 685 q 528 769 542 745 q 489 793 515 793 l 241 793 l 241 498 l 515 498 l 533 479 q 503 437 521 459 q 471 404 485 414 q 420 433 449 425 q 336 441 392 441 l 241 441 l 241 104 q 251 80 241 90 q 292 66 262 71 q 379 61 321 61 l 467 61 q 537 68 512 61 q 580 100 562 76 q 618 178 599 125 l 647 165 q 634 70 642 113 q 619 0 627 26 l 34 0 m 112 1092 l 117 1122 q 162 1153 130 1135 q 198 1173 195 1171 l 460 958 q 452 946 457 954 q 441 934 446 938 q 430 927 437 930 l 112 1092 z "},"Ẻ":{"ha":689,"x_min":34,"x_max":647,"o":"m 34 0 l 34 29 q 105 50 79 38 q 132 71 132 61 l 132 783 q 106 804 132 792 q 34 825 80 817 l 34 854 l 581 854 l 603 838 q 592 759 601 804 q 575 685 584 713 l 545 685 q 528 769 542 745 q 489 793 515 793 l 241 793 l 241 498 l 515 498 l 533 479 q 503 437 521 459 q 471 404 485 414 q 420 433 449 425 q 336 441 392 441 l 241 441 l 241 104 q 251 80 241 90 q 292 66 262 71 q 379 61 321 61 l 467 61 q 537 68 512 61 q 580 100 562 76 q 618 178 599 125 l 647 165 q 634 70 642 113 q 619 0 627 26 l 34 0 m 390 954 q 373 946 382 948 q 349 943 364 944 q 300 973 315 960 q 285 1000 285 987 q 297 1024 285 1013 q 334 1051 309 1035 q 375 1083 361 1070 q 389 1112 389 1096 q 376 1150 389 1137 q 343 1163 363 1163 q 311 1150 324 1163 q 297 1121 297 1137 q 302 1107 297 1116 q 270 1098 292 1103 q 235 1092 248 1093 l 227 1099 l 227 1108 q 249 1149 227 1128 q 302 1183 270 1170 q 366 1196 334 1196 q 431 1175 408 1196 q 454 1121 454 1155 q 439 1084 454 1101 q 397 1048 425 1068 q 362 1019 373 1029 q 352 996 352 1008 q 390 954 352 976 z "},"Ē":{"ha":689,"x_min":34,"x_max":647,"o":"m 34 0 l 34 29 q 105 50 79 38 q 132 71 132 61 l 132 783 q 106 804 132 792 q 34 825 80 817 l 34 854 l 581 854 l 603 838 q 592 759 601 804 q 575 685 584 713 l 545 685 q 528 769 542 745 q 489 793 515 793 l 241 793 l 241 498 l 515 498 l 533 479 q 503 437 521 459 q 471 404 485 414 q 420 433 449 425 q 336 441 392 441 l 241 441 l 241 104 q 251 80 241 90 q 292 66 262 71 q 379 61 321 61 l 467 61 q 537 68 512 61 q 580 100 562 76 q 618 178 599 125 l 647 165 q 634 70 642 113 q 619 0 627 26 l 34 0 m 133 987 l 118 1004 q 129 1038 121 1017 q 146 1075 138 1059 l 562 1075 l 576 1059 q 563 1018 573 1043 q 550 987 552 992 l 133 987 z "},"Ḗ":{"ha":689,"x_min":34,"x_max":647,"o":"m 34 0 l 34 29 q 105 50 79 38 q 132 71 132 61 l 132 783 q 106 804 132 792 q 34 825 80 817 l 34 854 l 581 854 l 603 838 q 592 759 601 804 q 575 685 584 713 l 545 685 q 528 769 542 745 q 489 793 515 793 l 241 793 l 241 498 l 515 498 l 533 479 q 503 437 521 459 q 471 404 485 414 q 420 433 449 425 q 336 441 392 441 l 241 441 l 241 104 q 251 80 241 90 q 292 66 262 71 q 379 61 321 61 l 467 61 q 537 68 512 61 q 580 100 562 76 q 618 178 599 125 l 647 165 q 634 70 642 113 q 619 0 627 26 l 34 0 m 133 987 l 118 1004 q 129 1038 121 1017 q 146 1075 138 1059 l 562 1075 l 576 1059 q 563 1018 573 1043 q 550 987 552 992 l 133 987 m 251 1144 q 237 1153 242 1148 q 228 1164 233 1157 q 220 1175 223 1171 l 483 1390 q 520 1369 488 1387 q 563 1339 551 1351 l 569 1309 l 251 1144 z "},"Ḕ":{"ha":689,"x_min":34,"x_max":647,"o":"m 34 0 l 34 29 q 105 50 79 38 q 132 71 132 61 l 132 783 q 106 804 132 792 q 34 825 80 817 l 34 854 l 581 854 l 603 838 q 592 759 601 804 q 575 685 584 713 l 545 685 q 528 769 542 745 q 489 793 515 793 l 241 793 l 241 498 l 515 498 l 533 479 q 503 437 521 459 q 471 404 485 414 q 420 433 449 425 q 336 441 392 441 l 241 441 l 241 104 q 251 80 241 90 q 292 66 262 71 q 379 61 321 61 l 467 61 q 537 68 512 61 q 580 100 562 76 q 618 178 599 125 l 647 165 q 634 70 642 113 q 619 0 627 26 l 34 0 m 133 987 l 118 1004 q 129 1038 121 1017 q 146 1075 138 1059 l 562 1075 l 576 1059 q 563 1018 573 1043 q 550 987 552 992 l 133 987 m 112 1309 l 117 1339 q 162 1370 130 1352 q 198 1390 195 1388 l 460 1175 q 452 1163 457 1171 q 441 1151 446 1155 q 430 1144 437 1147 l 112 1309 z "},"Ɛ":{"ha":707,"x_min":54,"x_max":653,"o":"m 310 -20 q 173 13 231 -20 q 85 95 115 45 q 54 192 54 144 q 76 291 54 243 q 135 375 98 338 q 215 431 172 412 q 113 501 149 454 q 77 614 77 548 q 110 726 77 673 q 203 815 142 779 q 399 875 300 875 q 535 857 473 875 q 640 804 597 840 q 616 766 630 784 q 579 722 602 748 l 550 728 q 463 783 505 766 q 363 800 420 800 q 269 779 313 800 q 198 719 225 757 q 172 636 172 682 q 229 528 172 571 q 428 478 286 484 l 428 427 q 280 391 340 421 q 192 319 220 361 q 163 233 163 277 q 190 147 163 186 q 264 86 217 109 q 368 64 311 64 q 451 73 416 64 q 526 104 486 81 q 624 175 566 127 l 653 144 q 546 47 598 83 q 437 -5 494 11 q 310 -20 380 -20 z "},"Ǝ":{"ha":689,"x_min":44,"x_max":647,"o":"m 44 17 q 58 120 46 51 q 79 215 71 189 l 109 215 q 124 102 113 144 q 158 61 135 61 l 304 61 q 391 66 361 61 q 430 81 420 71 q 440 111 440 92 l 440 444 l 298 444 q 227 440 266 444 q 165 431 187 436 l 148 450 q 178 492 160 470 q 210 525 196 515 q 247 506 227 510 q 309 501 267 501 l 345 501 l 440 501 l 440 793 l 275 793 q 205 786 230 793 q 162 754 180 779 q 124 677 143 730 l 95 689 q 107 785 100 741 q 123 854 115 829 l 647 854 l 647 825 q 575 805 602 817 q 549 784 549 793 l 549 71 q 575 50 549 62 q 647 29 601 38 l 647 0 l 66 0 l 44 17 z "},"Ʃ":{"ha":722,"x_min":40,"x_max":684,"o":"m 61 0 l 40 29 l 336 431 l 54 825 l 54 854 l 511 854 q 589 856 559 854 q 656 865 619 858 l 659 661 l 621 653 q 589 745 605 715 q 561 780 574 774 q 529 787 547 787 l 211 787 l 443 457 l 174 95 l 548 95 q 592 107 576 95 q 618 147 608 119 q 648 242 629 175 l 684 234 q 667 0 680 165 l 61 0 z "},"Ẽ":{"ha":689,"x_min":34,"x_max":647,"o":"m 34 0 l 34 29 q 105 50 79 38 q 132 71 132 61 l 132 783 q 106 804 132 792 q 34 825 80 817 l 34 854 l 581 854 l 603 838 q 592 759 601 804 q 575 685 584 713 l 545 685 q 528 769 542 745 q 489 793 515 793 l 241 793 l 241 498 l 515 498 l 533 479 q 503 437 521 459 q 471 404 485 414 q 420 433 449 425 q 336 441 392 441 l 241 441 l 241 104 q 251 80 241 90 q 292 66 262 71 q 379 61 321 61 l 467 61 q 537 68 512 61 q 580 100 562 76 q 618 178 599 125 l 647 165 q 634 70 642 113 q 619 0 627 26 l 34 0 m 409 950 q 368 960 387 950 q 319 991 349 970 q 276 1018 292 1009 q 242 1027 259 1027 q 195 1007 217 1027 q 145 945 173 987 l 109 958 q 179 1066 136 1021 q 271 1112 222 1112 q 319 1100 296 1112 q 372 1067 342 1088 q 409 1043 395 1050 q 437 1035 424 1035 q 535 1118 487 1035 l 572 1103 q 501 995 545 1040 q 409 950 458 950 z "},"Ʒ":{"ha":723,"x_min":64,"x_max":662,"o":"m 331 -20 q 198 3 259 -20 q 100 56 137 26 q 64 104 64 87 q 80 127 64 109 q 119 161 97 146 q 158 180 141 177 q 210 119 177 146 q 281 77 243 92 q 357 61 320 61 q 504 111 448 61 q 560 260 560 161 q 536 363 560 315 q 466 440 511 411 q 362 469 421 469 q 308 461 334 469 q 245 435 281 453 l 212 418 l 210 420 q 199 432 206 424 q 189 447 193 440 l 188 448 l 188 449 q 188 449 188 449 q 189 450 189 449 l 468 787 l 209 787 q 177 770 194 787 q 144 724 159 754 q 121 653 130 693 l 82 661 l 102 865 q 151 856 130 858 q 222 854 172 854 l 608 854 l 625 825 l 389 533 q 433 538 415 538 q 546 509 493 538 q 630 426 598 481 q 662 294 662 370 q 616 130 662 202 q 494 19 570 58 q 331 -20 418 -20 z "},"Ǯ":{"ha":723,"x_min":64,"x_max":662,"o":"m 331 -20 q 198 3 259 -20 q 100 56 137 26 q 64 104 64 87 q 80 127 64 109 q 119 161 97 146 q 158 180 141 177 q 210 119 177 146 q 281 77 243 92 q 357 61 320 61 q 504 111 448 61 q 560 260 560 161 q 536 363 560 315 q 466 440 511 411 q 362 469 421 469 q 308 461 334 469 q 245 435 281 453 l 212 418 l 210 420 q 199 432 206 424 q 189 447 193 440 l 188 448 l 188 449 q 188 449 188 449 q 189 450 189 449 l 468 787 l 209 787 q 177 770 194 787 q 144 724 159 754 q 121 653 130 693 l 82 661 l 102 865 q 151 856 130 858 q 222 854 172 854 l 608 854 l 625 825 l 389 533 q 433 538 415 538 q 546 509 493 538 q 630 426 598 481 q 662 294 662 370 q 616 130 662 202 q 494 19 570 58 q 331 -20 418 -20 m 327 943 l 148 1185 q 156 1197 150 1188 q 166 1209 161 1205 q 178 1217 171 1213 l 365 1047 l 548 1217 q 563 1206 559 1212 q 577 1185 568 1201 l 399 943 l 327 943 z "},"F":{"ha":664,"x_min":34,"x_max":608,"o":"m 34 29 q 105 50 79 38 q 132 71 132 61 l 132 783 q 106 804 132 792 q 34 825 80 817 l 34 854 l 587 854 l 608 838 q 599 759 608 805 q 582 685 591 713 l 550 685 q 535 769 548 745 q 494 793 522 793 l 241 793 l 241 498 l 494 498 l 514 479 q 481 436 499 458 q 450 404 463 414 q 401 433 430 425 q 317 441 372 441 l 241 441 l 241 71 q 359 29 241 52 l 359 0 l 34 0 l 34 29 z "},"Ḟ":{"ha":664,"x_min":34,"x_max":608,"o":"m 34 29 q 105 50 79 38 q 132 71 132 61 l 132 783 q 106 804 132 792 q 34 825 80 817 l 34 854 l 587 854 l 608 838 q 599 759 608 805 q 582 685 591 713 l 550 685 q 535 769 548 745 q 494 793 522 793 l 241 793 l 241 498 l 494 498 l 514 479 q 481 436 499 458 q 450 404 463 414 q 401 433 430 425 q 317 441 372 441 l 241 441 l 241 71 q 359 29 241 52 l 359 0 l 34 0 l 34 29 m 310 952 q 253 1017 253 952 q 263 1064 253 1042 q 292 1097 274 1085 q 331 1109 310 1109 q 389 1045 389 1109 q 366 979 389 1006 q 310 952 343 952 z "},"G":{"ha":810,"x_min":47,"x_max":777,"o":"m 619 730 q 527 786 577 771 q 406 800 477 800 q 303 763 363 800 q 198 644 243 726 q 153 432 153 561 q 194 229 153 313 q 300 103 235 144 q 437 61 366 61 q 604 99 535 61 l 604 329 q 572 359 604 345 q 464 385 541 372 l 464 414 l 777 414 l 777 385 q 723 361 740 376 q 705 329 705 346 l 705 104 q 592 24 641 52 q 504 -12 543 -3 q 419 -20 465 -20 q 239 27 324 -20 q 101 168 154 74 q 47 395 47 262 q 108 650 47 541 q 271 817 168 759 q 500 875 374 875 q 606 856 547 875 q 707 806 665 838 q 642 726 720 795 l 619 730 z "},"Ǵ":{"ha":810,"x_min":47,"x_max":777,"o":"m 619 730 q 527 786 577 771 q 406 800 477 800 q 303 763 363 800 q 198 644 243 726 q 153 432 153 561 q 194 229 153 313 q 300 103 235 144 q 437 61 366 61 q 604 99 535 61 l 604 329 q 572 359 604 345 q 464 385 541 372 l 464 414 l 777 414 l 777 385 q 723 361 740 376 q 705 329 705 346 l 705 104 q 592 24 641 52 q 504 -12 543 -3 q 419 -20 465 -20 q 239 27 324 -20 q 101 168 154 74 q 47 395 47 262 q 108 650 47 541 q 271 817 168 759 q 500 875 374 875 q 606 856 547 875 q 707 806 665 838 q 642 726 720 795 l 619 730 m 345 927 q 331 936 336 931 q 321 947 326 940 q 314 958 317 954 l 576 1173 q 613 1152 582 1170 q 656 1122 645 1134 l 663 1092 l 345 927 z "},"Ğ":{"ha":810,"x_min":47,"x_max":777,"o":"m 619 730 q 527 786 577 771 q 406 800 477 800 q 303 763 363 800 q 198 644 243 726 q 153 432 153 561 q 194 229 153 313 q 300 103 235 144 q 437 61 366 61 q 604 99 535 61 l 604 329 q 572 359 604 345 q 464 385 541 372 l 464 414 l 777 414 l 777 385 q 723 361 740 376 q 705 329 705 346 l 705 104 q 592 24 641 52 q 504 -12 543 -3 q 419 -20 465 -20 q 239 27 324 -20 q 101 168 154 74 q 47 395 47 262 q 108 650 47 541 q 271 817 168 759 q 500 875 374 875 q 606 856 547 875 q 707 806 665 838 q 642 726 720 795 l 619 730 m 435 943 q 309 989 365 943 q 214 1139 252 1035 q 230 1158 221 1151 q 250 1170 238 1164 q 331 1065 281 1099 q 433 1032 381 1032 q 538 1065 487 1032 q 618 1170 589 1098 q 638 1158 631 1164 q 654 1139 646 1152 q 559 989 616 1036 q 435 943 502 943 z "},"Ǧ":{"ha":810,"x_min":47,"x_max":777,"o":"m 619 730 q 527 786 577 771 q 406 800 477 800 q 303 763 363 800 q 198 644 243 726 q 153 432 153 561 q 194 229 153 313 q 300 103 235 144 q 437 61 366 61 q 604 99 535 61 l 604 329 q 572 359 604 345 q 464 385 541 372 l 464 414 l 777 414 l 777 385 q 723 361 740 376 q 705 329 705 346 l 705 104 q 592 24 641 52 q 504 -12 543 -3 q 419 -20 465 -20 q 239 27 324 -20 q 101 168 154 74 q 47 395 47 262 q 108 650 47 541 q 271 817 168 759 q 500 875 374 875 q 606 856 547 875 q 707 806 665 838 q 642 726 720 795 l 619 730 m 398 943 l 219 1152 q 227 1163 221 1154 q 237 1175 233 1171 q 250 1183 242 1179 l 436 1040 l 619 1183 q 634 1173 630 1178 q 648 1152 639 1167 l 471 943 l 398 943 z "},"Ĝ":{"ha":810,"x_min":47,"x_max":777,"o":"m 619 730 q 527 786 577 771 q 406 800 477 800 q 303 763 363 800 q 198 644 243 726 q 153 432 153 561 q 194 229 153 313 q 300 103 235 144 q 437 61 366 61 q 604 99 535 61 l 604 329 q 572 359 604 345 q 464 385 541 372 l 464 414 l 777 414 l 777 385 q 723 361 740 376 q 705 329 705 346 l 705 104 q 592 24 641 52 q 504 -12 543 -3 q 419 -20 465 -20 q 239 27 324 -20 q 101 168 154 74 q 47 395 47 262 q 108 650 47 541 q 271 817 168 759 q 500 875 374 875 q 606 856 547 875 q 707 806 665 838 q 642 726 720 795 l 619 730 m 433 1068 l 250 927 q 237 935 241 931 q 228 946 233 939 q 219 958 222 954 l 398 1167 l 471 1167 l 648 958 q 641 947 646 955 q 631 935 636 939 q 619 927 627 930 l 433 1068 z "},"Ġ":{"ha":810,"x_min":47,"x_max":777,"o":"m 619 730 q 527 786 577 771 q 406 800 477 800 q 303 763 363 800 q 198 644 243 726 q 153 432 153 561 q 194 229 153 313 q 300 103 235 144 q 437 61 366 61 q 604 99 535 61 l 604 329 q 572 359 604 345 q 464 385 541 372 l 464 414 l 777 414 l 777 385 q 723 361 740 376 q 705 329 705 346 l 705 104 q 592 24 641 52 q 504 -12 543 -3 q 419 -20 465 -20 q 239 27 324 -20 q 101 168 154 74 q 47 395 47 262 q 108 650 47 541 q 271 817 168 759 q 500 875 374 875 q 606 856 547 875 q 707 806 665 838 q 642 726 720 795 l 619 730 m 423 952 q 366 1017 366 952 q 377 1064 366 1042 q 405 1097 387 1085 q 444 1109 423 1109 q 502 1045 502 1109 q 479 979 502 1006 q 423 952 456 952 z "},"Ɂ":{"ha":644,"x_min":27,"x_max":604,"o":"m 156 29 q 241 49 214 39 q 268 71 268 59 l 268 269 q 286 357 268 318 q 329 425 304 397 q 397 490 355 452 q 450 539 430 519 q 482 584 469 559 q 495 637 495 608 q 444 764 495 720 q 301 807 393 807 q 221 786 257 807 q 165 731 185 765 q 145 662 145 698 q 157 609 145 630 q 50 583 120 591 l 32 604 q 27 640 27 627 q 72 756 27 702 q 191 843 116 810 q 354 875 267 875 q 489 850 433 875 q 574 778 545 825 q 604 668 604 732 q 586 582 604 618 q 545 520 569 545 q 480 465 520 496 q 425 418 445 437 q 390 371 404 398 q 376 309 376 344 l 376 71 q 405 49 376 60 q 488 29 434 38 l 488 0 l 156 0 l 156 29 z "},"Ḡ":{"ha":810,"x_min":47,"x_max":777,"o":"m 619 730 q 527 786 577 771 q 406 800 477 800 q 303 763 363 800 q 198 644 243 726 q 153 432 153 561 q 194 229 153 313 q 300 103 235 144 q 437 61 366 61 q 604 99 535 61 l 604 329 q 572 359 604 345 q 464 385 541 372 l 464 414 l 777 414 l 777 385 q 723 361 740 376 q 705 329 705 346 l 705 104 q 592 24 641 52 q 504 -12 543 -3 q 419 -20 465 -20 q 239 27 324 -20 q 101 168 154 74 q 47 395 47 262 q 108 650 47 541 q 271 817 168 759 q 500 875 374 875 q 606 856 547 875 q 707 806 665 838 q 642 726 720 795 l 619 730 m 227 987 l 212 1004 q 223 1038 214 1017 q 239 1075 231 1059 l 655 1075 l 670 1059 q 656 1018 667 1043 q 644 987 646 992 l 227 987 z "},"H":{"ha":908,"x_min":34,"x_max":861,"o":"m 34 29 q 105 50 79 38 q 132 71 132 61 l 132 783 q 106 804 132 792 q 34 825 80 817 l 34 854 l 339 854 l 339 825 q 267 804 294 816 q 241 783 241 793 l 241 478 l 654 478 l 654 783 q 628 804 654 792 q 556 825 602 817 l 556 854 l 861 854 l 861 825 q 789 804 816 816 q 763 783 763 793 l 763 71 q 789 50 763 62 q 861 29 815 38 l 861 0 l 556 0 l 556 29 q 628 50 601 38 q 654 71 654 61 l 654 417 l 241 417 l 241 71 q 267 50 241 62 q 339 29 293 38 l 339 0 l 34 0 l 34 29 z "},"Ȟ":{"ha":908,"x_min":34,"x_max":861,"o":"m 34 29 q 105 50 79 38 q 132 71 132 61 l 132 783 q 106 804 132 792 q 34 825 80 817 l 34 854 l 339 854 l 339 825 q 267 804 294 816 q 241 783 241 793 l 241 478 l 654 478 l 654 783 q 628 804 654 792 q 556 825 602 817 l 556 854 l 861 854 l 861 825 q 789 804 816 816 q 763 783 763 793 l 763 71 q 789 50 763 62 q 861 29 815 38 l 861 0 l 556 0 l 556 29 q 628 50 601 38 q 654 71 654 61 l 654 417 l 241 417 l 241 71 q 267 50 241 62 q 339 29 293 38 l 339 0 l 34 0 l 34 29 m 412 943 l 233 1152 q 240 1163 235 1154 q 251 1175 246 1171 q 263 1183 256 1179 l 450 1040 l 633 1183 q 648 1173 644 1178 q 662 1152 652 1167 l 484 943 l 412 943 z "},"Ĥ":{"ha":908,"x_min":34,"x_max":861,"o":"m 34 29 q 105 50 79 38 q 132 71 132 61 l 132 783 q 106 804 132 792 q 34 825 80 817 l 34 854 l 339 854 l 339 825 q 267 804 294 816 q 241 783 241 793 l 241 478 l 654 478 l 654 783 q 628 804 654 792 q 556 825 602 817 l 556 854 l 861 854 l 861 825 q 789 804 816 816 q 763 783 763 793 l 763 71 q 789 50 763 62 q 861 29 815 38 l 861 0 l 556 0 l 556 29 q 628 50 601 38 q 654 71 654 61 l 654 417 l 241 417 l 241 71 q 267 50 241 62 q 339 29 293 38 l 339 0 l 34 0 l 34 29 m 447 1068 l 263 927 q 251 935 255 931 q 241 946 246 939 q 233 958 236 954 l 412 1167 l 484 1167 l 662 958 q 655 947 660 955 q 645 935 650 939 q 633 927 640 930 l 447 1068 z "},"Ḧ":{"ha":908,"x_min":34,"x_max":861,"o":"m 34 29 q 105 50 79 38 q 132 71 132 61 l 132 783 q 106 804 132 792 q 34 825 80 817 l 34 854 l 339 854 l 339 825 q 267 804 294 816 q 241 783 241 793 l 241 478 l 654 478 l 654 783 q 628 804 654 792 q 556 825 602 817 l 556 854 l 861 854 l 861 825 q 789 804 816 816 q 763 783 763 793 l 763 71 q 789 50 763 62 q 861 29 815 38 l 861 0 l 556 0 l 556 29 q 628 50 601 38 q 654 71 654 61 l 654 417 l 241 417 l 241 71 q 267 50 241 62 q 339 29 293 38 l 339 0 l 34 0 l 34 29 m 301 952 q 244 1017 244 952 q 255 1064 244 1042 q 283 1097 265 1085 q 322 1109 301 1109 q 380 1045 380 1109 q 357 979 380 1006 q 301 952 334 952 m 572 952 q 515 1017 515 952 q 526 1064 515 1042 q 554 1097 536 1085 q 593 1109 572 1109 q 651 1045 651 1109 q 628 979 651 1006 q 572 952 606 952 z "},"Ḣ":{"ha":908,"x_min":34,"x_max":861,"o":"m 34 29 q 105 50 79 38 q 132 71 132 61 l 132 783 q 106 804 132 792 q 34 825 80 817 l 34 854 l 339 854 l 339 825 q 267 804 294 816 q 241 783 241 793 l 241 478 l 654 478 l 654 783 q 628 804 654 792 q 556 825 602 817 l 556 854 l 861 854 l 861 825 q 789 804 816 816 q 763 783 763 793 l 763 71 q 789 50 763 62 q 861 29 815 38 l 861 0 l 556 0 l 556 29 q 628 50 601 38 q 654 71 654 61 l 654 417 l 241 417 l 241 71 q 267 50 241 62 q 339 29 293 38 l 339 0 l 34 0 l 34 29 m 437 952 q 380 1017 380 952 q 390 1064 380 1042 q 419 1097 401 1085 q 458 1109 437 1109 q 515 1045 515 1109 q 493 979 515 1006 q 437 952 470 952 z "},"Ḥ":{"ha":908,"x_min":34,"x_max":861,"o":"m 34 29 q 105 50 79 38 q 132 71 132 61 l 132 783 q 106 804 132 792 q 34 825 80 817 l 34 854 l 339 854 l 339 825 q 267 804 294 816 q 241 783 241 793 l 241 478 l 654 478 l 654 783 q 628 804 654 792 q 556 825 602 817 l 556 854 l 861 854 l 861 825 q 789 804 816 816 q 763 783 763 793 l 763 71 q 789 50 763 62 q 861 29 815 38 l 861 0 l 556 0 l 556 29 q 628 50 601 38 q 654 71 654 61 l 654 417 l 241 417 l 241 71 q 267 50 241 62 q 339 29 293 38 l 339 0 l 34 0 l 34 29 m 437 -282 q 380 -217 380 -282 q 390 -171 380 -192 q 419 -137 401 -149 q 458 -125 437 -125 q 515 -189 515 -125 q 493 -255 515 -228 q 437 -282 470 -282 z "},"I":{"ha":414,"x_min":47,"x_max":353,"o":"m 47 29 q 119 50 92 38 q 146 71 146 61 l 146 783 q 120 804 146 792 q 47 825 94 817 l 47 854 l 353 854 l 353 825 q 281 804 307 816 q 254 783 254 793 l 254 71 q 280 50 254 62 q 353 29 307 38 l 353 0 l 47 0 l 47 29 z "},"Ĳ":{"ha":838,"x_min":47,"x_max":790,"o":"m 47 29 q 119 50 92 38 q 146 71 146 61 l 146 783 q 120 804 146 792 q 47 825 94 817 l 47 854 l 353 854 l 353 825 q 281 804 307 816 q 254 783 254 793 l 254 71 q 280 50 254 62 q 353 29 307 38 l 353 0 l 47 0 l 47 29 m 692 139 q 674 -25 692 39 q 629 -124 656 -88 q 557 -195 601 -159 q 475 -240 523 -222 q 397 -258 427 -258 q 345 -248 371 -258 q 302 -225 319 -238 q 285 -203 285 -212 q 314 -168 285 -193 q 363 -136 344 -143 q 421 -167 399 -159 q 471 -174 443 -174 q 523 -151 498 -174 q 566 -68 549 -127 q 583 90 583 -9 l 583 783 q 451 825 583 806 l 451 854 l 790 854 l 790 825 q 718 804 745 816 q 692 783 692 793 l 692 139 z "},"Í":{"ha":414,"x_min":47,"x_max":429,"o":"m 47 29 q 119 50 92 38 q 146 71 146 61 l 146 783 q 120 804 146 792 q 47 825 94 817 l 47 854 l 353 854 l 353 825 q 281 804 307 816 q 254 783 254 793 l 254 71 q 280 50 254 62 q 353 29 307 38 l 353 0 l 47 0 l 47 29 m 111 927 q 97 936 102 931 q 87 947 92 940 q 80 958 83 954 l 342 1173 q 379 1152 348 1170 q 422 1122 411 1134 l 429 1092 l 111 927 z "},"Ĭ":{"ha":414,"x_min":-20,"x_max":420,"o":"m 47 29 q 119 50 92 38 q 146 71 146 61 l 146 783 q 120 804 146 792 q 47 825 94 817 l 47 854 l 353 854 l 353 825 q 281 804 307 816 q 254 783 254 793 l 254 71 q 280 50 254 62 q 353 29 307 38 l 353 0 l 47 0 l 47 29 m 201 943 q 75 989 131 943 q -20 1139 18 1035 q -4 1158 -13 1151 q 16 1170 4 1164 q 97 1065 47 1099 q 199 1032 147 1032 q 304 1065 253 1032 q 385 1170 355 1098 q 405 1158 397 1164 q 420 1139 412 1152 q 325 989 382 1036 q 201 943 268 943 z "},"Ǐ":{"ha":414,"x_min":-15,"x_max":414,"o":"m 47 29 q 119 50 92 38 q 146 71 146 61 l 146 783 q 120 804 146 792 q 47 825 94 817 l 47 854 l 353 854 l 353 825 q 281 804 307 816 q 254 783 254 793 l 254 71 q 280 50 254 62 q 353 29 307 38 l 353 0 l 47 0 l 47 29 m 164 943 l -15 1152 q -7 1163 -13 1154 q 3 1175 -1 1171 q 16 1183 8 1179 l 202 1040 l 385 1183 q 400 1173 396 1178 q 414 1152 405 1167 l 237 943 l 164 943 z "},"Î":{"ha":414,"x_min":-15,"x_max":414,"o":"m 47 29 q 119 50 92 38 q 146 71 146 61 l 146 783 q 120 804 146 792 q 47 825 94 817 l 47 854 l 353 854 l 353 825 q 281 804 307 816 q 254 783 254 793 l 254 71 q 280 50 254 62 q 353 29 307 38 l 353 0 l 47 0 l 47 29 m 199 1068 l 16 927 q 3 935 7 931 q -6 946 -1 939 q -15 958 -12 954 l 164 1167 l 237 1167 l 414 958 q 407 947 412 955 q 397 935 402 939 q 385 927 393 930 l 199 1068 z "},"Ï":{"ha":414,"x_min":-3,"x_max":404,"o":"m 47 29 q 119 50 92 38 q 146 71 146 61 l 146 783 q 120 804 146 792 q 47 825 94 817 l 47 854 l 353 854 l 353 825 q 281 804 307 816 q 254 783 254 793 l 254 71 q 280 50 254 62 q 353 29 307 38 l 353 0 l 47 0 l 47 29 m 54 952 q -3 1017 -3 952 q 7 1064 -3 1042 q 36 1097 18 1085 q 75 1109 54 1109 q 132 1045 132 1109 q 110 979 132 1006 q 54 952 87 952 m 325 952 q 268 1017 268 952 q 278 1064 268 1042 q 307 1097 289 1085 q 346 1109 325 1109 q 404 1045 404 1109 q 381 979 404 1006 q 325 952 358 952 z "},"Ḯ":{"ha":414,"x_min":-3,"x_max":429,"o":"m 47 29 q 119 50 92 38 q 146 71 146 61 l 146 783 q 120 804 146 792 q 47 825 94 817 l 47 854 l 353 854 l 353 825 q 281 804 307 816 q 254 783 254 793 l 254 71 q 280 50 254 62 q 353 29 307 38 l 353 0 l 47 0 l 47 29 m 54 952 q -3 1017 -3 952 q 7 1064 -3 1042 q 36 1097 18 1085 q 75 1109 54 1109 q 132 1045 132 1109 q 110 979 132 1006 q 54 952 87 952 m 325 952 q 268 1017 268 952 q 278 1064 268 1042 q 307 1097 289 1085 q 346 1109 325 1109 q 404 1045 404 1109 q 381 979 404 1006 q 325 952 358 952 m 111 1144 q 97 1153 102 1148 q 87 1164 92 1157 q 80 1175 83 1171 l 342 1390 q 379 1369 348 1387 q 422 1339 411 1351 l 429 1309 l 111 1144 z "},"İ":{"ha":414,"x_min":47,"x_max":353,"o":"m 47 29 q 119 50 92 38 q 146 71 146 61 l 146 783 q 120 804 146 792 q 47 825 94 817 l 47 854 l 353 854 l 353 825 q 281 804 307 816 q 254 783 254 793 l 254 71 q 280 50 254 62 q 353 29 307 38 l 353 0 l 47 0 l 47 29 m 189 952 q 132 1017 132 952 q 143 1064 132 1042 q 171 1097 153 1085 q 210 1109 189 1109 q 268 1045 268 1109 q 245 979 268 1006 q 189 952 222 952 z "},"Ị":{"ha":414,"x_min":47,"x_max":353,"o":"m 47 29 q 119 50 92 38 q 146 71 146 61 l 146 783 q 120 804 146 792 q 47 825 94 817 l 47 854 l 353 854 l 353 825 q 281 804 307 816 q 254 783 254 793 l 254 71 q 280 50 254 62 q 353 29 307 38 l 353 0 l 47 0 l 47 29 m 189 -282 q 132 -217 132 -282 q 143 -171 132 -192 q 171 -137 153 -149 q 210 -125 189 -125 q 268 -189 268 -125 q 245 -255 268 -228 q 189 -282 222 -282 z "},"Ì":{"ha":414,"x_min":-28,"x_max":353,"o":"m 47 29 q 119 50 92 38 q 146 71 146 61 l 146 783 q 120 804 146 792 q 47 825 94 817 l 47 854 l 353 854 l 353 825 q 281 804 307 816 q 254 783 254 793 l 254 71 q 280 50 254 62 q 353 29 307 38 l 353 0 l 47 0 l 47 29 m -28 1092 l -23 1122 q 22 1153 -11 1135 q 58 1173 54 1171 l 320 958 q 311 946 317 954 q 301 934 306 938 q 290 927 296 930 l -28 1092 z "},"Ỉ":{"ha":414,"x_min":47,"x_max":353,"o":"m 47 29 q 119 50 92 38 q 146 71 146 61 l 146 783 q 120 804 146 792 q 47 825 94 817 l 47 854 l 353 854 l 353 825 q 281 804 307 816 q 254 783 254 793 l 254 71 q 280 50 254 62 q 353 29 307 38 l 353 0 l 47 0 l 47 29 m 250 954 q 233 946 241 948 q 208 943 224 944 q 159 973 174 960 q 144 1000 144 987 q 157 1024 144 1013 q 193 1051 169 1035 q 235 1083 221 1070 q 248 1112 248 1096 q 236 1150 248 1137 q 203 1163 223 1163 q 170 1150 184 1163 q 157 1121 157 1137 q 162 1107 157 1116 q 130 1098 152 1103 q 94 1092 108 1093 l 87 1099 l 87 1108 q 108 1149 87 1128 q 162 1183 130 1170 q 225 1196 194 1196 q 291 1175 267 1196 q 314 1121 314 1155 q 299 1084 314 1101 q 256 1048 284 1068 q 222 1019 233 1029 q 212 996 212 1008 q 250 954 212 976 z "},"Ī":{"ha":414,"x_min":32,"x_max":382,"o":"m 47 29 q 119 50 92 38 q 146 71 146 61 l 146 783 q 120 804 146 792 q 47 825 94 817 l 47 854 l 353 854 l 353 825 q 281 804 307 816 q 254 783 254 793 l 254 71 q 280 50 254 62 q 353 29 307 38 l 353 0 l 47 0 l 47 29 m 47 1014 l 32 1031 q 43 1065 35 1044 q 60 1102 52 1086 l 367 1102 l 382 1086 q 368 1045 378 1070 q 355 1014 357 1019 l 47 1014 z "},"Ɨ":{"ha":414,"x_min":33,"x_max":370,"o":"m 254 417 l 254 71 q 280 50 254 62 q 353 29 307 38 l 353 0 l 47 0 l 47 29 q 119 50 92 38 q 146 71 146 61 l 146 417 l 47 417 l 33 433 q 47 478 41 460 l 146 478 l 146 783 q 120 804 146 792 q 47 825 94 817 l 47 854 l 353 854 l 353 825 q 281 804 307 816 q 254 783 254 793 l 254 478 l 353 478 l 370 463 l 353 417 l 254 417 z "},"Ĩ":{"ha":414,"x_min":-31,"x_max":431,"o":"m 47 29 q 119 50 92 38 q 146 71 146 61 l 146 783 q 120 804 146 792 q 47 825 94 817 l 47 854 l 353 854 l 353 825 q 281 804 307 816 q 254 783 254 793 l 254 71 q 280 50 254 62 q 353 29 307 38 l 353 0 l 47 0 l 47 29 m 269 950 q 228 960 247 950 q 178 991 208 970 q 135 1018 152 1009 q 102 1027 119 1027 q 55 1007 77 1027 q 5 945 33 987 l -31 958 q 39 1066 -4 1021 q 131 1112 82 1112 q 179 1100 156 1112 q 232 1067 202 1088 q 269 1043 254 1050 q 296 1035 283 1035 q 395 1118 347 1035 l 431 1103 q 361 995 404 1040 q 269 950 317 950 z "},"J":{"ha":424,"x_min":-129,"x_max":376,"o":"m 278 139 q 260 -25 278 39 q 215 -124 243 -88 q 143 -195 187 -159 q 61 -240 109 -222 q -17 -258 13 -258 q -68 -248 -43 -258 q -112 -225 -94 -238 q -129 -203 -129 -212 q -99 -168 -129 -193 q -50 -136 -70 -143 q 7 -167 -14 -159 q 57 -174 29 -174 q 110 -151 84 -174 q 152 -68 135 -127 q 170 90 170 -9 l 170 783 q 37 825 170 806 l 37 854 l 376 854 l 376 825 q 304 804 331 816 q 278 783 278 793 l 278 139 z "},"K":{"ha":803,"x_min":34,"x_max":796,"o":"m 34 29 q 105 50 79 38 q 132 71 132 61 l 132 783 q 106 804 132 792 q 34 825 80 817 l 34 854 l 339 854 l 339 825 q 267 804 294 816 q 241 783 241 793 l 241 438 l 518 765 q 539 802 539 790 q 523 818 539 813 q 468 825 507 822 l 468 854 l 753 854 l 753 825 q 679 811 702 819 q 637 783 656 804 l 340 455 l 668 86 q 707 60 685 67 q 755 52 728 52 q 791 54 773 52 l 796 25 q 708 0 745 9 q 643 -9 672 -9 q 608 -3 623 -9 q 579 20 593 3 l 241 433 l 241 71 q 267 50 241 62 q 339 29 293 38 l 339 0 l 34 0 l 34 29 z "},"Ḱ":{"ha":803,"x_min":34,"x_max":796,"o":"m 34 29 q 105 50 79 38 q 132 71 132 61 l 132 783 q 106 804 132 792 q 34 825 80 817 l 34 854 l 339 854 l 339 825 q 267 804 294 816 q 241 783 241 793 l 241 438 l 518 765 q 539 802 539 790 q 523 818 539 813 q 468 825 507 822 l 468 854 l 753 854 l 753 825 q 679 811 702 819 q 637 783 656 804 l 340 455 l 668 86 q 707 60 685 67 q 755 52 728 52 q 791 54 773 52 l 796 25 q 708 0 745 9 q 643 -9 672 -9 q 608 -3 623 -9 q 579 20 593 3 l 241 433 l 241 71 q 267 50 241 62 q 339 29 293 38 l 339 0 l 34 0 l 34 29 m 311 927 q 297 936 302 931 q 288 947 292 940 q 280 958 283 954 l 543 1173 q 579 1152 548 1170 q 623 1122 611 1134 l 629 1092 l 311 927 z "},"Ǩ":{"ha":803,"x_min":34,"x_max":796,"o":"m 34 29 q 105 50 79 38 q 132 71 132 61 l 132 783 q 106 804 132 792 q 34 825 80 817 l 34 854 l 339 854 l 339 825 q 267 804 294 816 q 241 783 241 793 l 241 438 l 518 765 q 539 802 539 790 q 523 818 539 813 q 468 825 507 822 l 468 854 l 753 854 l 753 825 q 679 811 702 819 q 637 783 656 804 l 340 455 l 668 86 q 707 60 685 67 q 755 52 728 52 q 791 54 773 52 l 796 25 q 708 0 745 9 q 643 -9 672 -9 q 608 -3 623 -9 q 579 20 593 3 l 241 433 l 241 71 q 267 50 241 62 q 339 29 293 38 l 339 0 l 34 0 l 34 29 m 364 943 l 185 1152 q 193 1163 187 1154 q 203 1175 199 1171 q 216 1183 208 1179 l 402 1040 l 585 1183 q 601 1173 596 1178 q 614 1152 605 1167 l 437 943 l 364 943 z "},"Ḳ":{"ha":803,"x_min":34,"x_max":796,"o":"m 34 29 q 105 50 79 38 q 132 71 132 61 l 132 783 q 106 804 132 792 q 34 825 80 817 l 34 854 l 339 854 l 339 825 q 267 804 294 816 q 241 783 241 793 l 241 438 l 518 765 q 539 802 539 790 q 523 818 539 813 q 468 825 507 822 l 468 854 l 753 854 l 753 825 q 679 811 702 819 q 637 783 656 804 l 340 455 l 668 86 q 707 60 685 67 q 755 52 728 52 q 791 54 773 52 l 796 25 q 708 0 745 9 q 643 -9 672 -9 q 608 -3 623 -9 q 579 20 593 3 l 241 433 l 241 71 q 267 50 241 62 q 339 29 293 38 l 339 0 l 34 0 l 34 29 m 404 -282 q 347 -217 347 -282 q 358 -171 347 -192 q 386 -137 368 -149 q 425 -125 404 -125 q 483 -189 483 -125 q 460 -255 483 -228 q 404 -282 437 -282 z "},"Ƙ":{"ha":857,"x_min":34,"x_max":836,"o":"m 34 29 q 105 50 79 38 q 132 71 132 61 l 132 783 q 106 804 132 792 q 34 825 80 817 l 34 854 l 339 854 l 339 825 q 267 804 294 816 q 241 783 241 793 l 241 439 l 486 748 q 578 833 531 804 q 678 861 626 861 q 791 824 747 861 q 836 709 836 786 q 828 640 836 678 q 783 609 825 629 q 707 581 741 590 l 694 600 q 718 693 718 652 q 699 758 718 734 q 650 781 680 781 q 599 760 625 781 q 545 707 573 740 l 339 456 l 668 86 q 707 60 685 67 q 755 52 728 52 q 791 54 773 52 l 796 25 q 708 0 745 9 q 643 -9 672 -9 q 608 -3 623 -9 q 579 20 593 3 l 241 433 l 241 71 q 267 50 241 62 q 339 29 293 38 l 339 0 l 34 0 l 34 29 z "},"Ḵ":{"ha":803,"x_min":34,"x_max":796,"o":"m 34 29 q 105 50 79 38 q 132 71 132 61 l 132 783 q 106 804 132 792 q 34 825 80 817 l 34 854 l 339 854 l 339 825 q 267 804 294 816 q 241 783 241 793 l 241 438 l 518 765 q 539 802 539 790 q 523 818 539 813 q 468 825 507 822 l 468 854 l 753 854 l 753 825 q 679 811 702 819 q 637 783 656 804 l 340 455 l 668 86 q 707 60 685 67 q 755 52 728 52 q 791 54 773 52 l 796 25 q 708 0 745 9 q 643 -9 672 -9 q 608 -3 623 -9 q 579 20 593 3 l 241 433 l 241 71 q 267 50 241 62 q 339 29 293 38 l 339 0 l 34 0 l 34 29 m 201 -227 l 186 -210 q 197 -176 189 -197 q 214 -139 205 -155 l 629 -139 l 644 -155 q 630 -196 641 -171 q 618 -227 620 -222 l 201 -227 z "},"L":{"ha":661,"x_min":34,"x_max":640,"o":"m 34 0 l 34 29 q 105 50 79 38 q 132 71 132 61 l 132 783 q 106 804 132 792 q 34 825 80 817 l 34 854 l 339 854 l 339 825 q 267 804 294 816 q 241 783 241 793 l 241 111 q 269 73 241 85 q 367 61 296 61 l 464 61 q 533 68 509 61 q 574 100 557 76 q 611 178 591 124 l 640 165 q 612 0 633 79 l 34 0 z "},"Ĺ":{"ha":661,"x_min":34,"x_max":640,"o":"m 34 0 l 34 29 q 105 50 79 38 q 132 71 132 61 l 132 783 q 106 804 132 792 q 34 825 80 817 l 34 854 l 339 854 l 339 825 q 267 804 294 816 q 241 783 241 793 l 241 111 q 269 73 241 85 q 367 61 296 61 l 464 61 q 533 68 509 61 q 574 100 557 76 q 611 178 591 124 l 640 165 q 612 0 633 79 l 34 0 m 227 927 q 214 936 218 931 q 204 947 209 940 q 197 958 199 954 l 459 1173 q 496 1152 465 1170 q 539 1122 528 1134 l 545 1092 l 227 927 z "},"Ƚ":{"ha":661,"x_min":30,"x_max":640,"o":"m 640 165 q 612 0 633 79 l 34 0 l 34 29 q 105 50 79 38 q 132 71 132 61 l 132 364 l 45 364 l 30 381 q 45 425 37 404 l 132 425 l 132 783 q 106 804 132 792 q 34 825 80 817 l 34 854 l 339 854 l 339 825 q 267 804 294 816 q 241 783 241 793 l 241 425 l 404 425 l 420 410 l 404 364 l 241 364 l 241 111 q 269 73 241 85 q 367 61 296 61 l 464 61 q 533 68 509 61 q 574 100 557 76 q 611 178 591 124 l 640 165 z "},"Ḷ":{"ha":661,"x_min":34,"x_max":640,"o":"m 34 0 l 34 29 q 105 50 79 38 q 132 71 132 61 l 132 783 q 106 804 132 792 q 34 825 80 817 l 34 854 l 339 854 l 339 825 q 267 804 294 816 q 241 783 241 793 l 241 111 q 269 73 241 85 q 367 61 296 61 l 464 61 q 533 68 509 61 q 574 100 557 76 q 611 178 591 124 l 640 165 q 612 0 633 79 l 34 0 m 326 -282 q 269 -217 269 -282 q 280 -171 269 -192 q 308 -137 290 -149 q 347 -125 326 -125 q 405 -189 405 -125 q 382 -255 405 -228 q 326 -282 359 -282 z "},"Ḹ":{"ha":661,"x_min":34,"x_max":640,"o":"m 34 0 l 34 29 q 105 50 79 38 q 132 71 132 61 l 132 783 q 106 804 132 792 q 34 825 80 817 l 34 854 l 339 854 l 339 825 q 267 804 294 816 q 241 783 241 793 l 241 111 q 269 73 241 85 q 367 61 296 61 l 464 61 q 533 68 509 61 q 574 100 557 76 q 611 178 591 124 l 640 165 q 612 0 633 79 l 34 0 m 326 -282 q 269 -217 269 -282 q 280 -171 269 -192 q 308 -137 290 -149 q 347 -125 326 -125 q 405 -189 405 -125 q 382 -255 405 -228 q 326 -282 359 -282 m 109 987 l 94 1004 q 105 1038 97 1017 q 122 1075 114 1059 l 538 1075 l 553 1059 q 539 1018 549 1043 q 526 987 528 992 l 109 987 z "},"Ⱡ":{"ha":661,"x_min":30,"x_max":640,"o":"m 34 0 l 34 29 q 105 50 79 38 q 132 71 132 61 l 132 296 l 45 296 l 30 313 q 45 357 37 336 l 132 357 l 132 432 l 45 432 l 30 449 q 45 493 37 472 l 132 493 l 132 783 q 106 804 132 792 q 34 825 80 817 l 34 854 l 339 854 l 339 825 q 267 804 294 816 q 241 783 241 793 l 241 493 l 404 493 l 420 477 l 404 432 l 241 432 l 241 357 l 404 357 l 420 342 l 404 296 l 241 296 l 241 111 q 269 73 241 85 q 367 61 296 61 l 464 61 q 533 68 509 61 q 574 100 557 76 q 611 178 591 124 l 640 165 q 612 0 633 79 l 34 0 z "},"Ḻ":{"ha":661,"x_min":34,"x_max":640,"o":"m 34 0 l 34 29 q 105 50 79 38 q 132 71 132 61 l 132 783 q 106 804 132 792 q 34 825 80 817 l 34 854 l 339 854 l 339 825 q 267 804 294 816 q 241 783 241 793 l 241 111 q 269 73 241 85 q 367 61 296 61 l 464 61 q 533 68 509 61 q 574 100 557 76 q 611 178 591 124 l 640 165 q 612 0 633 79 l 34 0 m 123 -227 l 108 -210 q 119 -176 111 -197 q 136 -139 127 -155 l 551 -139 l 566 -155 q 552 -196 563 -171 q 540 -227 542 -222 l 123 -227 z "},"Ɫ":{"ha":661,"x_min":-41,"x_max":640,"o":"m 34 0 l 34 29 q 105 50 79 38 q 132 71 132 61 l 132 401 q 92 413 110 413 q 45 393 67 413 q -5 331 23 373 l -41 345 q 30 453 -14 408 q 121 498 73 498 l 132 497 l 132 783 q 106 804 132 792 q 34 825 80 817 l 34 854 l 339 854 l 339 825 q 267 804 294 816 q 241 783 241 793 l 241 440 q 287 421 269 421 q 385 505 337 421 l 422 489 q 351 381 395 427 q 259 336 308 336 q 241 338 250 336 l 241 111 q 269 73 241 85 q 367 61 296 61 l 464 61 q 533 68 509 61 q 574 100 557 76 q 611 178 591 124 l 640 165 q 612 0 633 79 l 34 0 z "},"Ł":{"ha":661,"x_min":28,"x_max":640,"o":"m 34 0 l 34 29 q 105 50 79 38 q 132 71 132 61 l 132 361 l 46 318 l 28 333 q 44 367 33 347 q 62 393 54 386 l 132 429 l 132 783 q 106 804 132 792 q 34 825 80 817 l 34 854 l 339 854 l 339 825 q 267 804 294 816 q 241 783 241 793 l 241 483 l 429 578 l 447 562 q 430 531 441 548 q 411 503 420 513 l 241 416 l 241 111 q 269 73 241 85 q 367 61 296 61 l 464 61 q 533 68 509 61 q 574 100 557 76 q 611 178 591 124 l 640 165 q 612 0 633 79 l 34 0 z "},"M":{"ha":1120,"x_min":41,"x_max":1065,"o":"m 966 71 q 992 50 966 62 q 1065 29 1019 38 l 1065 0 l 756 0 l 756 29 q 832 50 802 39 q 861 71 861 62 l 855 705 l 558 0 l 525 0 l 223 701 l 217 71 q 243 50 217 62 q 315 29 269 38 l 315 0 l 41 0 l 41 29 q 112 50 85 38 q 139 71 139 61 l 146 798 q 96 819 122 812 q 47 825 70 825 l 47 854 l 241 854 q 256 850 251 854 q 267 836 262 846 q 285 798 272 826 l 555 186 l 814 798 q 832 837 826 826 q 843 851 838 848 q 857 854 848 854 l 1051 854 l 1051 825 q 1008 819 1032 825 q 960 801 984 812 l 966 71 z "},"Ḿ":{"ha":1120,"x_min":41,"x_max":1065,"o":"m 966 71 q 992 50 966 62 q 1065 29 1019 38 l 1065 0 l 756 0 l 756 29 q 832 50 802 39 q 861 71 861 62 l 855 705 l 558 0 l 525 0 l 223 701 l 217 71 q 243 50 217 62 q 315 29 269 38 l 315 0 l 41 0 l 41 29 q 112 50 85 38 q 139 71 139 61 l 146 798 q 96 819 122 812 q 47 825 70 825 l 47 854 l 241 854 q 256 850 251 854 q 267 836 262 846 q 285 798 272 826 l 555 186 l 814 798 q 832 837 826 826 q 843 851 838 848 q 857 854 848 854 l 1051 854 l 1051 825 q 1008 819 1032 825 q 960 801 984 812 l 966 71 m 463 927 q 450 936 454 931 q 440 947 445 940 q 433 958 435 954 l 695 1173 q 732 1152 701 1170 q 775 1122 764 1134 l 781 1092 l 463 927 z "},"Ṁ":{"ha":1120,"x_min":41,"x_max":1065,"o":"m 966 71 q 992 50 966 62 q 1065 29 1019 38 l 1065 0 l 756 0 l 756 29 q 832 50 802 39 q 861 71 861 62 l 855 705 l 558 0 l 525 0 l 223 701 l 217 71 q 243 50 217 62 q 315 29 269 38 l 315 0 l 41 0 l 41 29 q 112 50 85 38 q 139 71 139 61 l 146 798 q 96 819 122 812 q 47 825 70 825 l 47 854 l 241 854 q 256 850 251 854 q 267 836 262 846 q 285 798 272 826 l 555 186 l 814 798 q 832 837 826 826 q 843 851 838 848 q 857 854 848 854 l 1051 854 l 1051 825 q 1008 819 1032 825 q 960 801 984 812 l 966 71 m 542 952 q 485 1017 485 952 q 495 1064 485 1042 q 524 1097 506 1085 q 563 1109 542 1109 q 621 1045 621 1109 q 598 979 621 1006 q 542 952 575 952 z "},"Ṃ":{"ha":1120,"x_min":41,"x_max":1065,"o":"m 966 71 q 992 50 966 62 q 1065 29 1019 38 l 1065 0 l 756 0 l 756 29 q 832 50 802 39 q 861 71 861 62 l 855 705 l 558 0 l 525 0 l 223 701 l 217 71 q 243 50 217 62 q 315 29 269 38 l 315 0 l 41 0 l 41 29 q 112 50 85 38 q 139 71 139 61 l 146 798 q 96 819 122 812 q 47 825 70 825 l 47 854 l 241 854 q 256 850 251 854 q 267 836 262 846 q 285 798 272 826 l 555 186 l 814 798 q 832 837 826 826 q 843 851 838 848 q 857 854 848 854 l 1051 854 l 1051 825 q 1008 819 1032 825 q 960 801 984 812 l 966 71 m 542 -282 q 485 -217 485 -282 q 495 -171 485 -192 q 524 -137 506 -149 q 563 -125 542 -125 q 621 -189 621 -125 q 598 -255 621 -228 q 542 -282 575 -282 z "},"N":{"ha":901,"x_min":34,"x_max":868,"o":"m 34 29 q 87 40 65 33 q 121 56 110 47 q 132 71 132 64 l 132 779 q 34 825 92 817 l 34 854 l 178 854 q 199 851 191 854 q 215 838 207 848 q 243 802 224 828 l 688 187 l 688 783 q 664 806 688 793 q 590 825 639 819 l 590 854 l 868 854 l 868 825 q 796 807 823 819 q 770 783 770 794 l 770 -20 q 718 -7 738 -16 q 689 14 698 2 l 214 673 l 214 71 q 224 57 214 64 q 257 41 235 49 q 312 29 279 34 l 312 0 l 34 0 l 34 29 z "},"Ń":{"ha":901,"x_min":34,"x_max":868,"o":"m 34 29 q 87 40 65 33 q 121 56 110 47 q 132 71 132 64 l 132 779 q 34 825 92 817 l 34 854 l 178 854 q 199 851 191 854 q 215 838 207 848 q 243 802 224 828 l 688 187 l 688 783 q 664 806 688 793 q 590 825 639 819 l 590 854 l 868 854 l 868 825 q 796 807 823 819 q 770 783 770 794 l 770 -20 q 718 -7 738 -16 q 689 14 698 2 l 214 673 l 214 71 q 224 57 214 64 q 257 41 235 49 q 312 29 279 34 l 312 0 l 34 0 l 34 29 m 361 927 q 348 936 353 931 q 338 947 343 940 q 331 958 334 954 l 593 1173 q 630 1152 599 1170 q 673 1122 662 1134 l 680 1092 l 361 927 z "},"Ň":{"ha":901,"x_min":34,"x_max":868,"o":"m 34 29 q 87 40 65 33 q 121 56 110 47 q 132 71 132 64 l 132 779 q 34 825 92 817 l 34 854 l 178 854 q 199 851 191 854 q 215 838 207 848 q 243 802 224 828 l 688 187 l 688 783 q 664 806 688 793 q 590 825 639 819 l 590 854 l 868 854 l 868 825 q 796 807 823 819 q 770 783 770 794 l 770 -20 q 718 -7 738 -16 q 689 14 698 2 l 214 673 l 214 71 q 224 57 214 64 q 257 41 235 49 q 312 29 279 34 l 312 0 l 34 0 l 34 29 m 415 943 l 236 1152 q 244 1163 238 1154 q 254 1175 250 1171 q 267 1183 259 1179 l 453 1040 l 636 1183 q 651 1173 647 1178 q 665 1152 656 1167 l 488 943 l 415 943 z "},"Ṅ":{"ha":901,"x_min":34,"x_max":868,"o":"m 34 29 q 87 40 65 33 q 121 56 110 47 q 132 71 132 64 l 132 779 q 34 825 92 817 l 34 854 l 178 854 q 199 851 191 854 q 215 838 207 848 q 243 802 224 828 l 688 187 l 688 783 q 664 806 688 793 q 590 825 639 819 l 590 854 l 868 854 l 868 825 q 796 807 823 819 q 770 783 770 794 l 770 -20 q 718 -7 738 -16 q 689 14 698 2 l 214 673 l 214 71 q 224 57 214 64 q 257 41 235 49 q 312 29 279 34 l 312 0 l 34 0 l 34 29 m 440 952 q 383 1017 383 952 q 394 1064 383 1042 q 422 1097 404 1085 q 461 1109 440 1109 q 519 1045 519 1109 q 496 979 519 1006 q 440 952 473 952 z "},"Ṇ":{"ha":901,"x_min":34,"x_max":868,"o":"m 34 29 q 87 40 65 33 q 121 56 110 47 q 132 71 132 64 l 132 779 q 34 825 92 817 l 34 854 l 178 854 q 199 851 191 854 q 215 838 207 848 q 243 802 224 828 l 688 187 l 688 783 q 664 806 688 793 q 590 825 639 819 l 590 854 l 868 854 l 868 825 q 796 807 823 819 q 770 783 770 794 l 770 -20 q 718 -7 738 -16 q 689 14 698 2 l 214 673 l 214 71 q 224 57 214 64 q 257 41 235 49 q 312 29 279 34 l 312 0 l 34 0 l 34 29 m 440 -282 q 383 -217 383 -282 q 394 -171 383 -192 q 422 -137 404 -149 q 461 -125 440 -125 q 519 -189 519 -125 q 496 -255 519 -228 q 440 -282 473 -282 z "},"Ǹ":{"ha":901,"x_min":34,"x_max":868,"o":"m 34 29 q 87 40 65 33 q 121 56 110 47 q 132 71 132 64 l 132 779 q 34 825 92 817 l 34 854 l 178 854 q 199 851 191 854 q 215 838 207 848 q 243 802 224 828 l 688 187 l 688 783 q 664 806 688 793 q 590 825 639 819 l 590 854 l 868 854 l 868 825 q 796 807 823 819 q 770 783 770 794 l 770 -20 q 718 -7 738 -16 q 689 14 698 2 l 214 673 l 214 71 q 224 57 214 64 q 257 41 235 49 q 312 29 279 34 l 312 0 l 34 0 l 34 29 m 222 1092 l 228 1122 q 273 1153 240 1135 q 309 1173 305 1171 l 571 958 q 562 946 568 954 q 552 934 557 938 q 541 927 547 930 l 222 1092 z "},"Ŋ":{"ha":838,"x_min":33,"x_max":763,"o":"m 587 -195 q 496 -240 551 -223 q 392 -258 441 -258 q 315 -245 355 -258 q 250 -216 276 -233 q 224 -184 224 -199 q 259 -146 224 -174 q 317 -109 295 -118 q 395 -161 351 -144 q 477 -179 439 -179 q 563 -142 522 -179 q 629 -30 604 -104 q 654 152 654 45 l 654 591 q 625 738 654 696 q 541 780 596 780 q 409 721 479 780 q 241 507 338 661 l 241 71 q 267 50 241 62 q 339 29 293 38 l 339 0 l 33 0 l 33 29 q 105 50 78 38 q 132 71 132 61 l 132 699 q 127 755 132 739 q 103 779 122 771 q 37 791 84 787 l 37 821 q 217 875 156 843 l 241 851 l 241 629 q 423 820 339 764 q 586 875 507 875 q 710 827 658 875 q 763 665 763 780 l 763 188 q 713 -40 763 57 q 587 -195 664 -136 z "},"Ɲ":{"ha":901,"x_min":-166,"x_max":868,"o":"m 214 673 l 214 139 q 202 -27 214 35 q 167 -127 190 -90 q 106 -195 144 -163 q 23 -240 71 -222 q -54 -258 -25 -258 q -106 -248 -80 -258 q -149 -225 -132 -238 q -166 -203 -166 -212 q -137 -168 -166 -193 q -87 -136 -107 -143 q -30 -167 -52 -159 q 20 -174 -8 -174 q 72 -151 47 -174 q 115 -68 98 -127 q 132 90 132 -9 l 132 779 q 86 810 111 799 q 34 825 62 821 l 34 854 l 178 854 q 199 851 191 854 q 215 838 207 848 q 243 802 222 829 l 688 187 l 688 783 q 664 806 688 793 q 590 825 639 819 l 590 854 l 868 854 l 868 825 q 796 807 823 819 q 770 783 770 794 l 770 -20 q 718 -7 738 -16 q 689 14 698 2 l 214 673 z "},"Ṉ":{"ha":901,"x_min":34,"x_max":868,"o":"m 34 29 q 87 40 65 33 q 121 56 110 47 q 132 71 132 64 l 132 779 q 34 825 92 817 l 34 854 l 178 854 q 199 851 191 854 q 215 838 207 848 q 243 802 224 828 l 688 187 l 688 783 q 664 806 688 793 q 590 825 639 819 l 590 854 l 868 854 l 868 825 q 796 807 823 819 q 770 783 770 794 l 770 -20 q 718 -7 738 -16 q 689 14 698 2 l 214 673 l 214 71 q 224 57 214 64 q 257 41 235 49 q 312 29 279 34 l 312 0 l 34 0 l 34 29 m 237 -227 l 222 -210 q 233 -176 224 -197 q 250 -139 241 -155 l 665 -139 l 680 -155 q 666 -196 677 -171 q 654 -227 656 -222 l 237 -227 z "},"Ñ":{"ha":901,"x_min":34,"x_max":868,"o":"m 34 29 q 87 40 65 33 q 121 56 110 47 q 132 71 132 64 l 132 779 q 34 825 92 817 l 34 854 l 178 854 q 199 851 191 854 q 215 838 207 848 q 243 802 224 828 l 688 187 l 688 783 q 664 806 688 793 q 590 825 639 819 l 590 854 l 868 854 l 868 825 q 796 807 823 819 q 770 783 770 794 l 770 -20 q 718 -7 738 -16 q 689 14 698 2 l 214 673 l 214 71 q 224 57 214 64 q 257 41 235 49 q 312 29 279 34 l 312 0 l 34 0 l 34 29 m 519 950 q 478 960 498 950 q 429 991 459 970 q 386 1018 403 1009 q 353 1027 370 1027 q 306 1007 328 1027 q 256 945 283 987 l 220 958 q 290 1066 247 1021 q 382 1112 333 1112 q 430 1100 407 1112 q 483 1067 453 1088 q 520 1043 505 1050 q 547 1035 534 1035 q 646 1118 597 1035 l 682 1103 q 612 995 655 1040 q 519 950 568 950 z "},"O":{"ha":833,"x_min":47,"x_max":772,"o":"m 390 -20 q 207 40 285 -20 q 89 199 130 100 q 47 415 47 299 q 99 643 47 536 q 237 812 150 749 q 429 875 325 875 q 614 813 536 875 q 732 652 692 752 q 772 439 772 553 q 720 212 772 318 q 579 43 667 106 q 390 -20 491 -20 m 410 797 q 272 752 330 797 q 183 626 214 708 q 153 435 153 545 q 188 249 153 335 q 282 112 223 163 q 410 61 341 61 q 544 103 486 61 q 634 228 602 145 q 667 427 667 310 q 634 606 667 521 q 543 744 602 692 q 410 797 484 797 z "},"Ó":{"ha":833,"x_min":47,"x_max":772,"o":"m 390 -20 q 207 40 285 -20 q 89 199 130 100 q 47 415 47 299 q 99 643 47 536 q 237 812 150 749 q 429 875 325 875 q 614 813 536 875 q 732 652 692 752 q 772 439 772 553 q 720 212 772 318 q 579 43 667 106 q 390 -20 491 -20 m 410 797 q 272 752 330 797 q 183 626 214 708 q 153 435 153 545 q 188 249 153 335 q 282 112 223 163 q 410 61 341 61 q 544 103 486 61 q 634 228 602 145 q 667 427 667 310 q 634 606 667 521 q 543 744 602 692 q 410 797 484 797 m 328 927 q 314 936 319 931 q 304 947 309 940 q 297 958 300 954 l 559 1173 q 596 1152 565 1170 q 640 1122 628 1134 l 646 1092 l 328 927 z "},"Ŏ":{"ha":833,"x_min":47,"x_max":772,"o":"m 390 -20 q 207 40 285 -20 q 89 199 130 100 q 47 415 47 299 q 99 643 47 536 q 237 812 150 749 q 429 875 325 875 q 614 813 536 875 q 732 652 692 752 q 772 439 772 553 q 720 212 772 318 q 579 43 667 106 q 390 -20 491 -20 m 410 797 q 272 752 330 797 q 183 626 214 708 q 153 435 153 545 q 188 249 153 335 q 282 112 223 163 q 410 61 341 61 q 544 103 486 61 q 634 228 602 145 q 667 427 667 310 q 634 606 667 521 q 543 744 602 692 q 410 797 484 797 m 418 943 q 292 989 348 943 q 197 1139 235 1035 q 213 1158 204 1151 q 233 1170 221 1164 q 314 1065 264 1099 q 416 1032 364 1032 q 521 1065 470 1032 q 602 1170 572 1098 q 622 1158 614 1164 q 637 1139 629 1152 q 542 989 599 1036 q 418 943 485 943 z "},"Ǒ":{"ha":833,"x_min":47,"x_max":772,"o":"m 390 -20 q 207 40 285 -20 q 89 199 130 100 q 47 415 47 299 q 99 643 47 536 q 237 812 150 749 q 429 875 325 875 q 614 813 536 875 q 732 652 692 752 q 772 439 772 553 q 720 212 772 318 q 579 43 667 106 q 390 -20 491 -20 m 410 797 q 272 752 330 797 q 183 626 214 708 q 153 435 153 545 q 188 249 153 335 q 282 112 223 163 q 410 61 341 61 q 544 103 486 61 q 634 228 602 145 q 667 427 667 310 q 634 606 667 521 q 543 744 602 692 q 410 797 484 797 m 381 943 l 202 1185 q 210 1197 204 1188 q 220 1209 216 1205 q 233 1217 225 1213 l 419 1047 l 602 1217 q 617 1206 613 1212 q 631 1185 622 1201 l 454 943 l 381 943 z "},"Ɵ":{"ha":833,"x_min":47,"x_max":772,"o":"m 390 -20 q 207 40 285 -20 q 89 199 130 100 q 47 415 47 299 q 99 643 47 536 q 237 812 150 749 q 429 875 325 875 q 614 813 536 875 q 732 652 692 752 q 772 439 772 553 q 720 212 772 318 q 579 43 667 106 q 390 -20 491 -20 m 410 797 q 280 758 336 797 q 192 648 224 720 q 154 478 159 576 l 664 478 q 621 636 655 563 q 532 753 587 709 q 410 797 477 797 m 153 417 q 192 239 156 321 q 286 109 228 157 q 410 61 343 61 q 542 102 484 61 q 632 223 599 143 q 666 417 665 303 l 153 417 z "},"Ô":{"ha":833,"x_min":47,"x_max":772,"o":"m 390 -20 q 207 40 285 -20 q 89 199 130 100 q 47 415 47 299 q 99 643 47 536 q 237 812 150 749 q 429 875 325 875 q 614 813 536 875 q 732 652 692 752 q 772 439 772 553 q 720 212 772 318 q 579 43 667 106 q 390 -20 491 -20 m 410 797 q 272 752 330 797 q 183 626 214 708 q 153 435 153 545 q 188 249 153 335 q 282 112 223 163 q 410 61 341 61 q 544 103 486 61 q 634 228 602 145 q 667 427 667 310 q 634 606 667 521 q 543 744 602 692 q 410 797 484 797 m 416 1068 l 233 927 q 220 935 224 931 q 211 946 216 939 q 202 958 205 954 l 381 1167 l 454 1167 l 631 958 q 624 947 629 955 q 614 935 619 939 q 602 927 610 930 l 416 1068 z "},"Ố":{"ha":833,"x_min":47,"x_max":772,"o":"m 390 -20 q 207 40 285 -20 q 89 199 130 100 q 47 415 47 299 q 99 643 47 536 q 237 812 150 749 q 429 875 325 875 q 614 813 536 875 q 732 652 692 752 q 772 439 772 553 q 720 212 772 318 q 579 43 667 106 q 390 -20 491 -20 m 410 797 q 272 752 330 797 q 183 626 214 708 q 153 435 153 545 q 188 249 153 335 q 282 112 223 163 q 410 61 341 61 q 544 103 486 61 q 634 228 602 145 q 667 427 667 310 q 634 606 667 521 q 543 744 602 692 q 410 797 484 797 m 416 1068 l 233 927 q 220 935 224 931 q 211 946 216 939 q 202 958 205 954 l 381 1167 l 454 1167 l 631 958 q 624 947 629 955 q 614 935 619 939 q 602 927 610 930 l 416 1068 m 328 1198 q 314 1207 319 1202 q 304 1218 309 1211 q 297 1229 300 1225 l 559 1444 q 596 1423 565 1441 q 640 1394 628 1405 l 646 1363 l 328 1198 z "},"Ộ":{"ha":833,"x_min":47,"x_max":772,"o":"m 390 -20 q 207 40 285 -20 q 89 199 130 100 q 47 415 47 299 q 99 643 47 536 q 237 812 150 749 q 429 875 325 875 q 614 813 536 875 q 732 652 692 752 q 772 439 772 553 q 720 212 772 318 q 579 43 667 106 q 390 -20 491 -20 m 410 797 q 272 752 330 797 q 183 626 214 708 q 153 435 153 545 q 188 249 153 335 q 282 112 223 163 q 410 61 341 61 q 544 103 486 61 q 634 228 602 145 q 667 427 667 310 q 634 606 667 521 q 543 744 602 692 q 410 797 484 797 m 406 -282 q 349 -217 349 -282 q 360 -171 349 -192 q 388 -137 370 -149 q 427 -125 406 -125 q 485 -189 485 -125 q 462 -255 485 -228 q 406 -282 439 -282 m 416 1068 l 233 927 q 220 935 224 931 q 211 946 216 939 q 202 958 205 954 l 381 1167 l 454 1167 l 631 958 q 624 947 629 955 q 614 935 619 939 q 602 927 610 930 l 416 1068 z "},"Ồ":{"ha":833,"x_min":47,"x_max":772,"o":"m 390 -20 q 207 40 285 -20 q 89 199 130 100 q 47 415 47 299 q 99 643 47 536 q 237 812 150 749 q 429 875 325 875 q 614 813 536 875 q 732 652 692 752 q 772 439 772 553 q 720 212 772 318 q 579 43 667 106 q 390 -20 491 -20 m 410 797 q 272 752 330 797 q 183 626 214 708 q 153 435 153 545 q 188 249 153 335 q 282 112 223 163 q 410 61 341 61 q 544 103 486 61 q 634 228 602 145 q 667 427 667 310 q 634 606 667 521 q 543 744 602 692 q 410 797 484 797 m 416 1068 l 233 927 q 220 935 224 931 q 211 946 216 939 q 202 958 205 954 l 381 1167 l 454 1167 l 631 958 q 624 947 629 955 q 614 935 619 939 q 602 927 610 930 l 416 1068 m 189 1363 l 194 1394 q 239 1424 206 1407 q 275 1444 271 1442 l 537 1229 q 528 1217 534 1225 q 518 1205 523 1209 q 507 1198 513 1202 l 189 1363 z "},"Ổ":{"ha":833,"x_min":47,"x_max":772,"o":"m 390 -20 q 207 40 285 -20 q 89 199 130 100 q 47 415 47 299 q 99 643 47 536 q 237 812 150 749 q 429 875 325 875 q 614 813 536 875 q 732 652 692 752 q 772 439 772 553 q 720 212 772 318 q 579 43 667 106 q 390 -20 491 -20 m 410 797 q 272 752 330 797 q 183 626 214 708 q 153 435 153 545 q 188 249 153 335 q 282 112 223 163 q 410 61 341 61 q 544 103 486 61 q 634 228 602 145 q 667 427 667 310 q 634 606 667 521 q 543 744 602 692 q 410 797 484 797 m 416 1068 l 233 927 q 220 935 224 931 q 211 946 216 939 q 202 958 205 954 l 381 1167 l 454 1167 l 631 958 q 624 947 629 955 q 614 935 619 939 q 602 927 610 930 l 416 1068 m 467 1225 q 450 1217 458 1219 q 425 1214 441 1215 q 376 1244 391 1231 q 361 1271 361 1258 q 374 1295 361 1284 q 410 1322 386 1306 q 452 1354 438 1341 q 465 1383 465 1367 q 453 1421 465 1408 q 420 1434 440 1434 q 387 1421 401 1434 q 374 1392 374 1408 q 379 1378 374 1388 q 347 1369 369 1374 q 311 1363 325 1364 l 304 1371 l 304 1379 q 325 1420 304 1400 q 379 1454 347 1441 q 442 1467 411 1467 q 508 1447 484 1467 q 531 1392 531 1426 q 516 1356 531 1372 q 473 1319 501 1339 q 439 1290 450 1301 q 429 1267 429 1280 q 467 1225 429 1247 z "},"Ỗ":{"ha":833,"x_min":47,"x_max":772,"o":"m 390 -20 q 207 40 285 -20 q 89 199 130 100 q 47 415 47 299 q 99 643 47 536 q 237 812 150 749 q 429 875 325 875 q 614 813 536 875 q 732 652 692 752 q 772 439 772 553 q 720 212 772 318 q 579 43 667 106 q 390 -20 491 -20 m 410 797 q 272 752 330 797 q 183 626 214 708 q 153 435 153 545 q 188 249 153 335 q 282 112 223 163 q 410 61 341 61 q 544 103 486 61 q 634 228 602 145 q 667 427 667 310 q 634 606 667 521 q 543 744 602 692 q 410 797 484 797 m 416 1068 l 233 927 q 220 935 224 931 q 211 946 216 939 q 202 958 205 954 l 381 1167 l 454 1167 l 631 958 q 624 947 629 955 q 614 935 619 939 q 602 927 610 930 l 416 1068 m 486 1221 q 445 1232 464 1221 q 395 1262 425 1242 q 352 1289 369 1280 q 319 1298 336 1298 q 272 1278 294 1298 q 222 1216 250 1258 l 186 1230 q 256 1338 213 1293 q 348 1383 299 1383 q 396 1371 373 1383 q 449 1338 419 1359 q 486 1314 471 1322 q 513 1306 500 1306 q 612 1390 564 1306 l 648 1374 q 578 1266 621 1312 q 486 1221 534 1221 z "},"Ö":{"ha":833,"x_min":47,"x_max":772,"o":"m 390 -20 q 207 40 285 -20 q 89 199 130 100 q 47 415 47 299 q 99 643 47 536 q 237 812 150 749 q 429 875 325 875 q 614 813 536 875 q 732 652 692 752 q 772 439 772 553 q 720 212 772 318 q 579 43 667 106 q 390 -20 491 -20 m 410 797 q 272 752 330 797 q 183 626 214 708 q 153 435 153 545 q 188 249 153 335 q 282 112 223 163 q 410 61 341 61 q 544 103 486 61 q 634 228 602 145 q 667 427 667 310 q 634 606 667 521 q 543 744 602 692 q 410 797 484 797 m 271 952 q 214 1017 214 952 q 224 1064 214 1042 q 253 1097 235 1085 q 292 1109 271 1109 q 349 1045 349 1109 q 327 979 349 1006 q 271 952 304 952 m 542 952 q 485 1017 485 952 q 495 1064 485 1042 q 524 1097 506 1085 q 563 1109 542 1109 q 621 1045 621 1109 q 598 979 621 1006 q 542 952 575 952 z "},"Ȫ":{"ha":833,"x_min":47,"x_max":772,"o":"m 390 -20 q 207 40 285 -20 q 89 199 130 100 q 47 415 47 299 q 99 643 47 536 q 237 812 150 749 q 429 875 325 875 q 614 813 536 875 q 732 652 692 752 q 772 439 772 553 q 720 212 772 318 q 579 43 667 106 q 390 -20 491 -20 m 410 797 q 272 752 330 797 q 183 626 214 708 q 153 435 153 545 q 188 249 153 335 q 282 112 223 163 q 410 61 341 61 q 544 103 486 61 q 634 228 602 145 q 667 427 667 310 q 634 606 667 521 q 543 744 602 692 q 410 797 484 797 m 271 952 q 214 1017 214 952 q 224 1064 214 1042 q 253 1097 235 1085 q 292 1109 271 1109 q 349 1045 349 1109 q 327 979 349 1006 q 271 952 304 952 m 542 952 q 485 1017 485 952 q 495 1064 485 1042 q 524 1097 506 1085 q 563 1109 542 1109 q 621 1045 621 1109 q 598 979 621 1006 q 542 952 575 952 m 210 1204 l 195 1221 q 206 1255 197 1234 q 222 1292 214 1276 l 638 1292 l 653 1276 q 639 1235 650 1260 q 627 1204 629 1209 l 210 1204 z "},"Ȯ":{"ha":833,"x_min":47,"x_max":772,"o":"m 390 -20 q 207 40 285 -20 q 89 199 130 100 q 47 415 47 299 q 99 643 47 536 q 237 812 150 749 q 429 875 325 875 q 614 813 536 875 q 732 652 692 752 q 772 439 772 553 q 720 212 772 318 q 579 43 667 106 q 390 -20 491 -20 m 410 797 q 272 752 330 797 q 183 626 214 708 q 153 435 153 545 q 188 249 153 335 q 282 112 223 163 q 410 61 341 61 q 544 103 486 61 q 634 228 602 145 q 667 427 667 310 q 634 606 667 521 q 543 744 602 692 q 410 797 484 797 m 406 952 q 349 1017 349 952 q 360 1064 349 1042 q 388 1097 370 1085 q 427 1109 406 1109 q 485 1045 485 1109 q 462 979 485 1006 q 406 952 439 952 z "},"Ȱ":{"ha":833,"x_min":47,"x_max":772,"o":"m 390 -20 q 207 40 285 -20 q 89 199 130 100 q 47 415 47 299 q 99 643 47 536 q 237 812 150 749 q 429 875 325 875 q 614 813 536 875 q 732 652 692 752 q 772 439 772 553 q 720 212 772 318 q 579 43 667 106 q 390 -20 491 -20 m 410 797 q 272 752 330 797 q 183 626 214 708 q 153 435 153 545 q 188 249 153 335 q 282 112 223 163 q 410 61 341 61 q 544 103 486 61 q 634 228 602 145 q 667 427 667 310 q 634 606 667 521 q 543 744 602 692 q 410 797 484 797 m 406 952 q 349 1017 349 952 q 360 1064 349 1042 q 388 1097 370 1085 q 427 1109 406 1109 q 485 1045 485 1109 q 462 979 485 1006 q 406 952 439 952 m 210 1204 l 195 1221 q 206 1255 197 1234 q 222 1292 214 1276 l 638 1292 l 653 1276 q 639 1235 650 1260 q 627 1204 629 1209 l 210 1204 z "},"Ọ":{"ha":833,"x_min":47,"x_max":772,"o":"m 390 -20 q 207 40 285 -20 q 89 199 130 100 q 47 415 47 299 q 99 643 47 536 q 237 812 150 749 q 429 875 325 875 q 614 813 536 875 q 732 652 692 752 q 772 439 772 553 q 720 212 772 318 q 579 43 667 106 q 390 -20 491 -20 m 410 797 q 272 752 330 797 q 183 626 214 708 q 153 435 153 545 q 188 249 153 335 q 282 112 223 163 q 410 61 341 61 q 544 103 486 61 q 634 228 602 145 q 667 427 667 310 q 634 606 667 521 q 543 744 602 692 q 410 797 484 797 m 406 -282 q 349 -217 349 -282 q 360 -171 349 -192 q 388 -137 370 -149 q 427 -125 406 -125 q 485 -189 485 -125 q 462 -255 485 -228 q 406 -282 439 -282 z "},"Ò":{"ha":833,"x_min":47,"x_max":772,"o":"m 390 -20 q 207 40 285 -20 q 89 199 130 100 q 47 415 47 299 q 99 643 47 536 q 237 812 150 749 q 429 875 325 875 q 614 813 536 875 q 732 652 692 752 q 772 439 772 553 q 720 212 772 318 q 579 43 667 106 q 390 -20 491 -20 m 410 797 q 272 752 330 797 q 183 626 214 708 q 153 435 153 545 q 188 249 153 335 q 282 112 223 163 q 410 61 341 61 q 544 103 486 61 q 634 228 602 145 q 667 427 667 310 q 634 606 667 521 q 543 744 602 692 q 410 797 484 797 m 189 1092 l 194 1122 q 239 1153 206 1135 q 275 1173 271 1171 l 537 958 q 528 946 534 954 q 518 934 523 938 q 507 927 513 930 l 189 1092 z "},"Ỏ":{"ha":833,"x_min":47,"x_max":772,"o":"m 390 -20 q 207 40 285 -20 q 89 199 130 100 q 47 415 47 299 q 99 643 47 536 q 237 812 150 749 q 429 875 325 875 q 614 813 536 875 q 732 652 692 752 q 772 439 772 553 q 720 212 772 318 q 579 43 667 106 q 390 -20 491 -20 m 410 797 q 272 752 330 797 q 183 626 214 708 q 153 435 153 545 q 188 249 153 335 q 282 112 223 163 q 410 61 341 61 q 544 103 486 61 q 634 228 602 145 q 667 427 667 310 q 634 606 667 521 q 543 744 602 692 q 410 797 484 797 m 467 954 q 450 946 458 948 q 425 943 441 944 q 376 973 391 960 q 361 1000 361 987 q 374 1024 361 1013 q 410 1051 386 1035 q 452 1083 438 1070 q 465 1112 465 1096 q 453 1150 465 1137 q 420 1163 440 1163 q 387 1150 401 1163 q 374 1121 374 1137 q 379 1107 374 1116 q 347 1098 369 1103 q 311 1092 325 1093 l 304 1099 l 304 1108 q 325 1149 304 1128 q 379 1183 347 1170 q 442 1196 411 1196 q 508 1175 484 1196 q 531 1121 531 1155 q 516 1084 531 1101 q 473 1048 501 1068 q 439 1019 450 1029 q 429 996 429 1008 q 467 954 429 976 z "},"Ơ":{"ha":833,"x_min":47,"x_max":827,"o":"m 667 762 q 745 615 718 700 q 772 439 772 531 q 720 212 772 318 q 579 43 667 106 q 390 -20 491 -20 q 207 40 285 -20 q 89 199 130 100 q 47 415 47 299 q 99 643 47 536 q 237 812 150 749 q 429 875 325 875 q 634 796 548 875 q 691 845 672 820 q 711 889 711 869 q 671 960 711 926 l 792 1014 q 827 944 827 981 q 790 856 827 905 q 667 762 752 807 m 410 797 q 272 752 330 797 q 183 626 214 708 q 153 435 153 545 q 188 249 153 335 q 282 112 223 163 q 410 61 341 61 q 544 103 486 61 q 634 228 602 145 q 667 427 667 310 q 634 606 667 521 q 543 744 602 692 q 410 797 484 797 z "},"Ớ":{"ha":833,"x_min":47,"x_max":827,"o":"m 667 762 q 745 615 718 700 q 772 439 772 531 q 720 212 772 318 q 579 43 667 106 q 390 -20 491 -20 q 207 40 285 -20 q 89 199 130 100 q 47 415 47 299 q 99 643 47 536 q 237 812 150 749 q 429 875 325 875 q 634 796 548 875 q 691 845 672 820 q 711 889 711 869 q 671 960 711 926 l 792 1014 q 827 944 827 981 q 790 856 827 905 q 667 762 752 807 m 410 797 q 272 752 330 797 q 183 626 214 708 q 153 435 153 545 q 188 249 153 335 q 282 112 223 163 q 410 61 341 61 q 544 103 486 61 q 634 228 602 145 q 667 427 667 310 q 634 606 667 521 q 543 744 602 692 q 410 797 484 797 m 328 927 q 314 936 319 931 q 304 947 309 940 q 297 958 300 954 l 559 1173 q 596 1152 565 1170 q 640 1122 628 1134 l 646 1092 l 328 927 z "},"Ợ":{"ha":833,"x_min":47,"x_max":827,"o":"m 667 762 q 745 615 718 700 q 772 439 772 531 q 720 212 772 318 q 579 43 667 106 q 390 -20 491 -20 q 207 40 285 -20 q 89 199 130 100 q 47 415 47 299 q 99 643 47 536 q 237 812 150 749 q 429 875 325 875 q 634 796 548 875 q 691 845 672 820 q 711 889 711 869 q 671 960 711 926 l 792 1014 q 827 944 827 981 q 790 856 827 905 q 667 762 752 807 m 410 797 q 272 752 330 797 q 183 626 214 708 q 153 435 153 545 q 188 249 153 335 q 282 112 223 163 q 410 61 341 61 q 544 103 486 61 q 634 228 602 145 q 667 427 667 310 q 634 606 667 521 q 543 744 602 692 q 410 797 484 797 m 406 -282 q 349 -217 349 -282 q 360 -171 349 -192 q 388 -137 370 -149 q 427 -125 406 -125 q 485 -189 485 -125 q 462 -255 485 -228 q 406 -282 439 -282 z "},"Ờ":{"ha":833,"x_min":47,"x_max":827,"o":"m 667 762 q 745 615 718 700 q 772 439 772 531 q 720 212 772 318 q 579 43 667 106 q 390 -20 491 -20 q 207 40 285 -20 q 89 199 130 100 q 47 415 47 299 q 99 643 47 536 q 237 812 150 749 q 429 875 325 875 q 634 796 548 875 q 691 845 672 820 q 711 889 711 869 q 671 960 711 926 l 792 1014 q 827 944 827 981 q 790 856 827 905 q 667 762 752 807 m 410 797 q 272 752 330 797 q 183 626 214 708 q 153 435 153 545 q 188 249 153 335 q 282 112 223 163 q 410 61 341 61 q 544 103 486 61 q 634 228 602 145 q 667 427 667 310 q 634 606 667 521 q 543 744 602 692 q 410 797 484 797 m 189 1092 l 194 1122 q 239 1153 206 1135 q 275 1173 271 1171 l 537 958 q 528 946 534 954 q 518 934 523 938 q 507 927 513 930 l 189 1092 z "},"Ở":{"ha":833,"x_min":47,"x_max":827,"o":"m 667 762 q 745 615 718 700 q 772 439 772 531 q 720 212 772 318 q 579 43 667 106 q 390 -20 491 -20 q 207 40 285 -20 q 89 199 130 100 q 47 415 47 299 q 99 643 47 536 q 237 812 150 749 q 429 875 325 875 q 634 796 548 875 q 691 845 672 820 q 711 889 711 869 q 671 960 711 926 l 792 1014 q 827 944 827 981 q 790 856 827 905 q 667 762 752 807 m 410 797 q 272 752 330 797 q 183 626 214 708 q 153 435 153 545 q 188 249 153 335 q 282 112 223 163 q 410 61 341 61 q 544 103 486 61 q 634 228 602 145 q 667 427 667 310 q 634 606 667 521 q 543 744 602 692 q 410 797 484 797 m 467 954 q 450 946 458 948 q 425 943 441 944 q 376 973 391 960 q 361 1000 361 987 q 374 1024 361 1013 q 410 1051 386 1035 q 452 1083 438 1070 q 465 1112 465 1096 q 453 1150 465 1137 q 420 1163 440 1163 q 387 1150 401 1163 q 374 1121 374 1137 q 379 1107 374 1116 q 347 1098 369 1103 q 311 1092 325 1093 l 304 1099 l 304 1108 q 325 1149 304 1128 q 379 1183 347 1170 q 442 1196 411 1196 q 508 1175 484 1196 q 531 1121 531 1155 q 516 1084 531 1101 q 473 1048 501 1068 q 439 1019 450 1029 q 429 996 429 1008 q 467 954 429 976 z "},"Ỡ":{"ha":833,"x_min":47,"x_max":827,"o":"m 667 762 q 745 615 718 700 q 772 439 772 531 q 720 212 772 318 q 579 43 667 106 q 390 -20 491 -20 q 207 40 285 -20 q 89 199 130 100 q 47 415 47 299 q 99 643 47 536 q 237 812 150 749 q 429 875 325 875 q 634 796 548 875 q 691 845 672 820 q 711 889 711 869 q 671 960 711 926 l 792 1014 q 827 944 827 981 q 790 856 827 905 q 667 762 752 807 m 410 797 q 272 752 330 797 q 183 626 214 708 q 153 435 153 545 q 188 249 153 335 q 282 112 223 163 q 410 61 341 61 q 544 103 486 61 q 634 228 602 145 q 667 427 667 310 q 634 606 667 521 q 543 744 602 692 q 410 797 484 797 m 486 950 q 445 960 464 950 q 395 991 425 970 q 352 1018 369 1009 q 319 1027 336 1027 q 272 1007 294 1027 q 222 945 250 987 l 186 958 q 256 1066 213 1021 q 348 1112 299 1112 q 396 1100 373 1112 q 449 1067 419 1088 q 486 1043 471 1050 q 513 1035 500 1035 q 612 1118 564 1035 l 648 1103 q 578 995 621 1040 q 486 950 534 950 z "},"Ő":{"ha":833,"x_min":47,"x_max":772,"o":"m 390 -20 q 207 40 285 -20 q 89 199 130 100 q 47 415 47 299 q 99 643 47 536 q 237 812 150 749 q 429 875 325 875 q 614 813 536 875 q 732 652 692 752 q 772 439 772 553 q 720 212 772 318 q 579 43 667 106 q 390 -20 491 -20 m 410 797 q 272 752 330 797 q 183 626 214 708 q 153 435 153 545 q 188 249 153 335 q 282 112 223 163 q 410 61 341 61 q 544 103 486 61 q 634 228 602 145 q 667 427 667 310 q 634 606 667 521 q 543 744 602 692 q 410 797 484 797 m 307 927 q 290 932 296 929 q 268 945 283 936 l 387 1227 q 431 1220 406 1225 q 468 1210 455 1215 l 483 1182 l 307 927 m 504 927 q 486 932 492 929 q 465 945 479 936 l 585 1227 q 627 1220 603 1225 q 665 1210 651 1215 l 680 1182 l 504 927 z "},"Ō":{"ha":833,"x_min":47,"x_max":772,"o":"m 390 -20 q 207 40 285 -20 q 89 199 130 100 q 47 415 47 299 q 99 643 47 536 q 237 812 150 749 q 429 875 325 875 q 614 813 536 875 q 732 652 692 752 q 772 439 772 553 q 720 212 772 318 q 579 43 667 106 q 390 -20 491 -20 m 410 797 q 272 752 330 797 q 183 626 214 708 q 153 435 153 545 q 188 249 153 335 q 282 112 223 163 q 410 61 341 61 q 544 103 486 61 q 634 228 602 145 q 667 427 667 310 q 634 606 667 521 q 543 744 602 692 q 410 797 484 797 m 210 987 l 195 1004 q 206 1038 197 1017 q 222 1075 214 1059 l 638 1075 l 653 1059 q 639 1018 650 1043 q 627 987 629 992 l 210 987 z "},"Ṓ":{"ha":833,"x_min":47,"x_max":772,"o":"m 390 -20 q 207 40 285 -20 q 89 199 130 100 q 47 415 47 299 q 99 643 47 536 q 237 812 150 749 q 429 875 325 875 q 614 813 536 875 q 732 652 692 752 q 772 439 772 553 q 720 212 772 318 q 579 43 667 106 q 390 -20 491 -20 m 410 797 q 272 752 330 797 q 183 626 214 708 q 153 435 153 545 q 188 249 153 335 q 282 112 223 163 q 410 61 341 61 q 544 103 486 61 q 634 228 602 145 q 667 427 667 310 q 634 606 667 521 q 543 744 602 692 q 410 797 484 797 m 210 987 l 195 1004 q 206 1038 197 1017 q 222 1075 214 1059 l 638 1075 l 653 1059 q 639 1018 650 1043 q 627 987 629 992 l 210 987 m 328 1144 q 314 1153 319 1148 q 304 1164 309 1157 q 297 1175 300 1171 l 559 1390 q 596 1369 565 1387 q 640 1339 628 1351 l 646 1309 l 328 1144 z "},"Ṑ":{"ha":833,"x_min":47,"x_max":772,"o":"m 390 -20 q 207 40 285 -20 q 89 199 130 100 q 47 415 47 299 q 99 643 47 536 q 237 812 150 749 q 429 875 325 875 q 614 813 536 875 q 732 652 692 752 q 772 439 772 553 q 720 212 772 318 q 579 43 667 106 q 390 -20 491 -20 m 410 797 q 272 752 330 797 q 183 626 214 708 q 153 435 153 545 q 188 249 153 335 q 282 112 223 163 q 410 61 341 61 q 544 103 486 61 q 634 228 602 145 q 667 427 667 310 q 634 606 667 521 q 543 744 602 692 q 410 797 484 797 m 210 987 l 195 1004 q 206 1038 197 1017 q 222 1075 214 1059 l 638 1075 l 653 1059 q 639 1018 650 1043 q 627 987 629 992 l 210 987 m 189 1309 l 194 1339 q 239 1370 206 1352 q 275 1390 271 1388 l 537 1175 q 528 1163 534 1171 q 518 1151 523 1155 q 507 1144 513 1147 l 189 1309 z "},"Ɔ":{"ha":745,"x_min":41,"x_max":690,"o":"m 306 -20 q 162 11 222 -20 q 72 89 102 41 q 41 186 41 137 q 51 242 41 216 q 82 293 60 268 q 159 327 117 312 q 205 343 200 341 l 221 310 q 172 265 184 288 q 159 203 159 242 q 182 136 159 170 q 245 80 204 102 q 336 58 286 58 q 461 95 405 58 q 551 216 517 132 q 585 435 585 300 q 543 631 585 549 q 435 755 500 713 q 301 797 369 797 q 72 703 205 797 q 57 718 64 706 q 47 733 50 730 q 157 822 106 791 q 252 864 208 853 q 349 875 297 875 q 514 825 435 875 q 642 680 593 774 q 690 460 690 585 q 641 210 690 319 q 504 40 591 101 q 306 -20 416 -20 z "},"Ø":{"ha":833,"x_min":47,"x_max":772,"o":"m 680 745 q 748 605 725 685 q 772 439 772 525 q 720 212 772 318 q 579 43 667 106 q 390 -20 491 -20 q 194 50 279 -20 l 158 -1 q 127 -18 148 -10 q 71 -36 106 -25 l 52 -14 l 138 110 q 71 249 94 170 q 47 415 47 328 q 99 643 47 536 q 237 812 150 749 q 429 875 325 875 q 625 805 541 875 l 661 857 q 747 890 696 878 l 766 868 l 680 745 m 566 721 q 494 777 534 757 q 410 797 454 797 q 272 752 330 797 q 183 626 214 708 q 153 435 153 545 q 167 314 153 372 q 207 208 181 256 l 566 721 m 256 138 q 328 81 289 101 q 410 61 368 61 q 544 103 486 61 q 634 228 602 145 q 667 427 667 310 q 653 544 667 486 q 614 650 640 602 l 256 138 z "},"Ǿ":{"ha":833,"x_min":47,"x_max":772,"o":"m 680 745 q 748 605 725 685 q 772 439 772 525 q 720 212 772 318 q 579 43 667 106 q 390 -20 491 -20 q 194 50 279 -20 l 158 -1 q 127 -18 148 -10 q 71 -36 106 -25 l 52 -14 l 138 110 q 71 249 94 170 q 47 415 47 328 q 99 643 47 536 q 237 812 150 749 q 429 875 325 875 q 625 805 541 875 l 661 857 q 747 890 696 878 l 766 868 l 680 745 m 566 721 q 494 777 534 757 q 410 797 454 797 q 272 752 330 797 q 183 626 214 708 q 153 435 153 545 q 167 314 153 372 q 207 208 181 256 l 566 721 m 256 138 q 328 81 289 101 q 410 61 368 61 q 544 103 486 61 q 634 228 602 145 q 667 427 667 310 q 653 544 667 486 q 614 650 640 602 l 256 138 m 320 927 q 307 936 311 931 q 297 947 302 940 q 290 958 292 954 l 552 1173 q 589 1152 557 1170 q 632 1122 621 1134 l 638 1092 l 320 927 z "},"Õ":{"ha":833,"x_min":47,"x_max":772,"o":"m 390 -20 q 207 40 285 -20 q 89 199 130 100 q 47 415 47 299 q 99 643 47 536 q 237 812 150 749 q 429 875 325 875 q 614 813 536 875 q 732 652 692 752 q 772 439 772 553 q 720 212 772 318 q 579 43 667 106 q 390 -20 491 -20 m 410 797 q 272 752 330 797 q 183 626 214 708 q 153 435 153 545 q 188 249 153 335 q 282 112 223 163 q 410 61 341 61 q 544 103 486 61 q 634 228 602 145 q 667 427 667 310 q 634 606 667 521 q 543 744 602 692 q 410 797 484 797 m 486 950 q 445 960 464 950 q 395 991 425 970 q 352 1018 369 1009 q 319 1027 336 1027 q 272 1007 294 1027 q 222 945 250 987 l 186 958 q 256 1066 213 1021 q 348 1112 299 1112 q 396 1100 373 1112 q 449 1067 419 1088 q 486 1043 471 1050 q 513 1035 500 1035 q 612 1118 564 1035 l 648 1103 q 578 995 621 1040 q 486 950 534 950 z "},"Ṍ":{"ha":833,"x_min":47,"x_max":772,"o":"m 390 -20 q 207 40 285 -20 q 89 199 130 100 q 47 415 47 299 q 99 643 47 536 q 237 812 150 749 q 429 875 325 875 q 614 813 536 875 q 732 652 692 752 q 772 439 772 553 q 720 212 772 318 q 579 43 667 106 q 390 -20 491 -20 m 410 797 q 272 752 330 797 q 183 626 214 708 q 153 435 153 545 q 188 249 153 335 q 282 112 223 163 q 410 61 341 61 q 544 103 486 61 q 634 228 602 145 q 667 427 667 310 q 634 606 667 521 q 543 744 602 692 q 410 797 484 797 m 486 950 q 445 960 464 950 q 395 991 425 970 q 352 1018 369 1009 q 319 1027 336 1027 q 272 1007 294 1027 q 222 945 250 987 l 186 958 q 256 1066 213 1021 q 348 1112 299 1112 q 396 1100 373 1112 q 449 1067 419 1088 q 486 1043 471 1050 q 513 1035 500 1035 q 612 1118 564 1035 l 648 1103 q 578 995 621 1040 q 486 950 534 950 m 328 1144 q 314 1153 319 1148 q 304 1164 309 1157 q 297 1175 300 1171 l 559 1390 q 596 1369 565 1387 q 640 1339 628 1351 l 646 1309 l 328 1144 z "},"Ṏ":{"ha":833,"x_min":47,"x_max":772,"o":"m 390 -20 q 207 40 285 -20 q 89 199 130 100 q 47 415 47 299 q 99 643 47 536 q 237 812 150 749 q 429 875 325 875 q 614 813 536 875 q 732 652 692 752 q 772 439 772 553 q 720 212 772 318 q 579 43 667 106 q 390 -20 491 -20 m 410 797 q 272 752 330 797 q 183 626 214 708 q 153 435 153 545 q 188 249 153 335 q 282 112 223 163 q 410 61 341 61 q 544 103 486 61 q 634 228 602 145 q 667 427 667 310 q 634 606 667 521 q 543 744 602 692 q 410 797 484 797 m 486 950 q 445 960 464 950 q 395 991 425 970 q 352 1018 369 1009 q 319 1027 336 1027 q 272 1007 294 1027 q 222 945 250 987 l 186 958 q 256 1066 213 1021 q 348 1112 299 1112 q 396 1100 373 1112 q 449 1067 419 1088 q 486 1043 471 1050 q 513 1035 500 1035 q 612 1118 564 1035 l 648 1103 q 578 995 621 1040 q 486 950 534 950 m 271 1169 q 214 1234 214 1169 q 224 1281 214 1259 q 253 1314 235 1302 q 292 1326 271 1326 q 349 1262 349 1326 q 327 1196 349 1223 q 271 1169 304 1169 m 542 1169 q 485 1234 485 1169 q 495 1281 485 1259 q 524 1314 506 1302 q 563 1326 542 1326 q 621 1262 621 1326 q 598 1196 621 1223 q 542 1169 575 1169 z "},"Ȭ":{"ha":833,"x_min":47,"x_max":772,"o":"m 390 -20 q 207 40 285 -20 q 89 199 130 100 q 47 415 47 299 q 99 643 47 536 q 237 812 150 749 q 429 875 325 875 q 614 813 536 875 q 732 652 692 752 q 772 439 772 553 q 720 212 772 318 q 579 43 667 106 q 390 -20 491 -20 m 410 797 q 272 752 330 797 q 183 626 214 708 q 153 435 153 545 q 188 249 153 335 q 282 112 223 163 q 410 61 341 61 q 544 103 486 61 q 634 228 602 145 q 667 427 667 310 q 634 606 667 521 q 543 744 602 692 q 410 797 484 797 m 486 950 q 445 960 464 950 q 395 991 425 970 q 352 1018 369 1009 q 319 1027 336 1027 q 272 1007 294 1027 q 222 945 250 987 l 186 958 q 256 1066 213 1021 q 348 1112 299 1112 q 396 1100 373 1112 q 449 1067 419 1088 q 486 1043 471 1050 q 513 1035 500 1035 q 612 1118 564 1035 l 648 1103 q 578 995 621 1040 q 486 950 534 950 m 210 1204 l 195 1221 q 206 1255 197 1234 q 222 1292 214 1276 l 638 1292 l 653 1276 q 639 1235 650 1260 q 627 1204 629 1209 l 210 1204 z "},"Œ":{"ha":1108,"x_min":47,"x_max":1068,"o":"m 597 0 q 542 -3 564 -1 q 485 -11 519 -5 q 435 -18 454 -16 q 390 -20 416 -20 q 207 40 285 -20 q 89 199 130 100 q 47 415 47 299 q 99 643 47 536 q 237 812 150 749 q 429 875 325 875 q 474 872 454 875 q 517 865 493 869 q 558 858 540 860 q 600 854 576 855 l 1002 854 l 1022 838 q 1012 756 1020 802 q 996 685 1004 711 l 964 685 q 948 769 961 746 q 908 793 935 793 l 689 793 l 689 498 l 935 498 l 954 479 q 923 438 941 460 q 892 407 905 417 q 841 436 870 427 q 757 444 812 444 l 689 444 l 689 104 q 693 79 689 86 q 720 66 696 71 q 800 61 744 61 l 888 61 q 958 68 933 61 q 1000 100 982 76 q 1039 178 1019 125 l 1068 165 q 1040 0 1061 79 l 597 0 m 579 745 q 410 798 511 798 q 272 753 330 798 q 183 627 214 709 q 153 435 153 545 q 188 249 153 335 q 282 112 223 163 q 410 61 341 61 q 510 67 472 61 q 579 94 548 74 l 579 745 z "},"P":{"ha":726,"x_min":28,"x_max":666,"o":"m 34 29 q 105 50 79 38 q 132 71 132 61 l 132 807 q 34 792 94 802 l 28 834 q 181 864 96 852 q 346 875 266 875 q 516 847 444 875 q 627 765 588 819 q 666 635 666 711 q 621 486 666 547 q 512 393 576 424 q 389 363 447 363 q 279 383 325 363 l 264 434 q 368 414 309 414 q 457 436 412 414 q 531 503 502 459 q 561 607 561 547 q 528 726 561 678 q 437 795 494 773 q 307 818 380 818 q 241 817 284 818 l 241 71 q 359 29 241 49 l 359 0 l 34 0 l 34 29 z "},"Ṕ":{"ha":726,"x_min":28,"x_max":666,"o":"m 34 29 q 105 50 79 38 q 132 71 132 61 l 132 807 q 34 792 94 802 l 28 834 q 181 864 96 852 q 346 875 266 875 q 516 847 444 875 q 627 765 588 819 q 666 635 666 711 q 621 486 666 547 q 512 393 576 424 q 389 363 447 363 q 279 383 325 363 l 264 434 q 368 414 309 414 q 457 436 412 414 q 531 503 502 459 q 561 607 561 547 q 528 726 561 678 q 437 795 494 773 q 307 818 380 818 q 241 817 284 818 l 241 71 q 359 29 241 49 l 359 0 l 34 0 l 34 29 m 257 927 q 243 936 248 931 q 234 947 239 940 q 227 958 229 954 l 489 1173 q 526 1152 494 1170 q 569 1122 557 1134 l 575 1092 l 257 927 z "},"Ṗ":{"ha":726,"x_min":28,"x_max":666,"o":"m 34 29 q 105 50 79 38 q 132 71 132 61 l 132 807 q 34 792 94 802 l 28 834 q 181 864 96 852 q 346 875 266 875 q 516 847 444 875 q 627 765 588 819 q 666 635 666 711 q 621 486 666 547 q 512 393 576 424 q 389 363 447 363 q 279 383 325 363 l 264 434 q 368 414 309 414 q 457 436 412 414 q 531 503 502 459 q 561 607 561 547 q 528 726 561 678 q 437 795 494 773 q 307 818 380 818 q 241 817 284 818 l 241 71 q 359 29 241 49 l 359 0 l 34 0 l 34 29 m 336 952 q 279 1017 279 952 q 289 1064 279 1042 q 318 1097 300 1085 q 357 1109 336 1109 q 414 1045 414 1109 q 392 979 414 1006 q 336 952 369 952 z "},"Þ":{"ha":726,"x_min":33,"x_max":666,"o":"m 33 29 q 105 50 78 38 q 132 71 132 61 l 132 783 q 106 804 132 792 q 33 825 79 817 l 33 854 l 359 854 l 359 825 q 267 804 294 814 q 241 783 241 794 l 241 688 q 346 692 283 692 q 516 664 444 692 q 627 582 588 636 q 666 452 666 528 q 621 302 666 364 q 512 210 576 241 q 389 180 447 180 q 279 202 323 180 l 264 250 q 315 235 290 239 q 368 231 340 231 q 457 253 412 231 q 531 320 502 276 q 561 424 561 363 q 528 543 561 496 q 437 613 494 591 q 307 635 380 635 q 241 633 273 635 l 241 71 q 359 29 241 49 l 359 0 l 33 0 l 33 29 z "},"Q":{"ha":833,"x_min":47,"x_max":869,"o":"m 747 -207 q 676 -192 712 -207 q 608 -154 640 -176 q 528 -94 575 -132 q 468 -50 492 -67 q 420 -18 444 -33 q 390 -20 406 -20 q 214 38 292 -20 q 92 197 136 97 q 47 415 47 296 q 99 643 47 536 q 237 812 150 749 q 429 875 325 875 q 614 813 536 875 q 732 652 692 752 q 772 439 772 553 q 739 258 772 345 q 649 106 706 172 q 519 8 591 41 q 600 -40 550 -8 q 687 -91 652 -74 q 751 -109 721 -109 q 789 -97 768 -109 q 851 -56 810 -86 l 869 -79 q 804 -172 838 -136 q 747 -207 769 -207 m 410 797 q 272 752 330 797 q 183 626 214 708 q 153 435 153 545 q 188 249 153 335 q 282 112 223 163 q 410 61 341 61 q 544 103 486 61 q 634 228 602 145 q 667 427 667 310 q 634 606 667 521 q 543 744 602 692 q 410 797 484 797 z "},"Ɋ":{"ha":833,"x_min":45,"x_max":985,"o":"m 606 153 q 475 22 538 65 q 332 -20 411 -20 q 201 32 269 -20 q 90 180 134 83 q 45 405 45 277 q 84 587 45 503 q 178 729 124 671 q 280 816 233 787 q 373 859 324 843 q 455 875 422 875 q 543 859 503 875 q 631 796 583 843 q 711 873 661 817 l 740 848 q 733 820 740 851 q 720 746 726 789 q 715 654 715 703 l 715 -72 q 720 -192 715 -151 q 742 -254 725 -233 q 794 -275 758 -275 q 845 -254 823 -275 q 867 -208 867 -234 q 859 -179 867 -194 q 880 -161 859 -172 q 927 -141 900 -150 q 972 -133 954 -133 l 985 -159 q 948 -244 985 -202 q 856 -312 912 -286 q 744 -339 800 -339 q 658 -313 688 -339 q 617 -239 628 -287 q 606 -114 606 -191 l 606 153 m 606 672 q 534 754 580 725 q 430 783 488 783 q 300 742 366 783 q 190 620 234 700 q 146 433 146 540 q 179 250 146 333 q 262 119 211 167 q 369 71 314 71 q 606 225 456 71 l 606 672 z "},"R":{"ha":779,"x_min":28,"x_max":772,"o":"m 34 29 q 105 50 79 38 q 132 71 132 61 l 132 806 q 71 798 92 801 l 34 792 l 28 834 q 173 864 108 854 q 318 875 237 875 q 490 848 420 875 q 594 775 559 822 q 629 669 629 729 q 577 513 629 576 q 437 424 526 450 l 643 94 q 680 62 659 71 q 732 52 701 52 q 765 54 747 52 l 772 25 q 621 -9 667 -9 q 583 1 602 -9 q 554 28 564 12 l 349 408 q 313 407 337 407 q 241 414 275 407 l 241 71 q 267 50 241 62 q 339 29 293 38 l 339 0 l 34 0 l 34 29 m 241 469 q 301 464 269 464 q 466 511 408 464 q 524 648 524 559 q 467 772 524 726 q 293 818 410 818 q 241 816 267 818 l 241 469 z "},"Ŕ":{"ha":779,"x_min":28,"x_max":772,"o":"m 34 29 q 105 50 79 38 q 132 71 132 61 l 132 806 q 71 798 92 801 l 34 792 l 28 834 q 173 864 108 854 q 318 875 237 875 q 490 848 420 875 q 594 775 559 822 q 629 669 629 729 q 577 513 629 576 q 437 424 526 450 l 643 94 q 680 62 659 71 q 732 52 701 52 q 765 54 747 52 l 772 25 q 621 -9 667 -9 q 583 1 602 -9 q 554 28 564 12 l 349 408 q 313 407 337 407 q 241 414 275 407 l 241 71 q 267 50 241 62 q 339 29 293 38 l 339 0 l 34 0 l 34 29 m 241 469 q 301 464 269 464 q 466 511 408 464 q 524 648 524 559 q 467 772 524 726 q 293 818 410 818 q 241 816 267 818 l 241 469 m 263 927 q 250 936 254 931 q 240 947 245 940 q 233 958 235 954 l 495 1173 q 532 1152 500 1170 q 575 1122 564 1134 l 581 1092 l 263 927 z "},"Ř":{"ha":779,"x_min":28,"x_max":772,"o":"m 34 29 q 105 50 79 38 q 132 71 132 61 l 132 806 q 71 798 92 801 l 34 792 l 28 834 q 173 864 108 854 q 318 875 237 875 q 490 848 420 875 q 594 775 559 822 q 629 669 629 729 q 577 513 629 576 q 437 424 526 450 l 643 94 q 680 62 659 71 q 732 52 701 52 q 765 54 747 52 l 772 25 q 621 -9 667 -9 q 583 1 602 -9 q 554 28 564 12 l 349 408 q 313 407 337 407 q 241 414 275 407 l 241 71 q 267 50 241 62 q 339 29 293 38 l 339 0 l 34 0 l 34 29 m 241 469 q 301 464 269 464 q 466 511 408 464 q 524 648 524 559 q 467 772 524 726 q 293 818 410 818 q 241 816 267 818 l 241 469 m 317 943 l 138 1152 q 145 1163 140 1154 q 156 1175 151 1171 q 168 1183 161 1179 l 355 1040 l 538 1183 q 553 1173 549 1178 q 567 1152 557 1167 l 389 943 l 317 943 z "},"Ṙ":{"ha":779,"x_min":28,"x_max":772,"o":"m 34 29 q 105 50 79 38 q 132 71 132 61 l 132 806 q 71 798 92 801 l 34 792 l 28 834 q 173 864 108 854 q 318 875 237 875 q 490 848 420 875 q 594 775 559 822 q 629 669 629 729 q 577 513 629 576 q 437 424 526 450 l 643 94 q 680 62 659 71 q 732 52 701 52 q 765 54 747 52 l 772 25 q 621 -9 667 -9 q 583 1 602 -9 q 554 28 564 12 l 349 408 q 313 407 337 407 q 241 414 275 407 l 241 71 q 267 50 241 62 q 339 29 293 38 l 339 0 l 34 0 l 34 29 m 241 469 q 301 464 269 464 q 466 511 408 464 q 524 648 524 559 q 467 772 524 726 q 293 818 410 818 q 241 816 267 818 l 241 469 m 342 952 q 285 1017 285 952 q 295 1064 285 1042 q 324 1097 306 1085 q 363 1109 342 1109 q 420 1045 420 1109 q 398 979 420 1006 q 342 952 375 952 z "},"Ṛ":{"ha":779,"x_min":28,"x_max":772,"o":"m 34 29 q 105 50 79 38 q 132 71 132 61 l 132 806 q 71 798 92 801 l 34 792 l 28 834 q 173 864 108 854 q 318 875 237 875 q 490 848 420 875 q 594 775 559 822 q 629 669 629 729 q 577 513 629 576 q 437 424 526 450 l 643 94 q 680 62 659 71 q 732 52 701 52 q 765 54 747 52 l 772 25 q 621 -9 667 -9 q 583 1 602 -9 q 554 28 564 12 l 349 408 q 313 407 337 407 q 241 414 275 407 l 241 71 q 267 50 241 62 q 339 29 293 38 l 339 0 l 34 0 l 34 29 m 241 469 q 301 464 269 464 q 466 511 408 464 q 524 648 524 559 q 467 772 524 726 q 293 818 410 818 q 241 816 267 818 l 241 469 m 342 -282 q 285 -217 285 -282 q 295 -171 285 -192 q 324 -137 306 -149 q 363 -125 342 -125 q 420 -189 420 -125 q 398 -255 420 -228 q 342 -282 375 -282 z "},"Ṝ":{"ha":779,"x_min":28,"x_max":772,"o":"m 34 29 q 105 50 79 38 q 132 71 132 61 l 132 806 q 71 798 92 801 l 34 792 l 28 834 q 173 864 108 854 q 318 875 237 875 q 490 848 420 875 q 594 775 559 822 q 629 669 629 729 q 577 513 629 576 q 437 424 526 450 l 643 94 q 680 62 659 71 q 732 52 701 52 q 765 54 747 52 l 772 25 q 621 -9 667 -9 q 583 1 602 -9 q 554 28 564 12 l 349 408 q 313 407 337 407 q 241 414 275 407 l 241 71 q 267 50 241 62 q 339 29 293 38 l 339 0 l 34 0 l 34 29 m 241 469 q 301 464 269 464 q 466 511 408 464 q 524 648 524 559 q 467 772 524 726 q 293 818 410 818 q 241 816 267 818 l 241 469 m 342 -282 q 285 -217 285 -282 q 295 -171 285 -192 q 324 -137 306 -149 q 363 -125 342 -125 q 420 -189 420 -125 q 398 -255 420 -228 q 342 -282 375 -282 m 145 987 l 130 1004 q 141 1038 133 1017 q 158 1075 150 1059 l 574 1075 l 589 1059 q 575 1018 585 1043 q 562 987 564 992 l 145 987 z "},"Ṟ":{"ha":779,"x_min":28,"x_max":772,"o":"m 34 29 q 105 50 79 38 q 132 71 132 61 l 132 806 q 71 798 92 801 l 34 792 l 28 834 q 173 864 108 854 q 318 875 237 875 q 490 848 420 875 q 594 775 559 822 q 629 669 629 729 q 577 513 629 576 q 437 424 526 450 l 643 94 q 680 62 659 71 q 732 52 701 52 q 765 54 747 52 l 772 25 q 621 -9 667 -9 q 583 1 602 -9 q 554 28 564 12 l 349 408 q 313 407 337 407 q 241 414 275 407 l 241 71 q 267 50 241 62 q 339 29 293 38 l 339 0 l 34 0 l 34 29 m 241 469 q 301 464 269 464 q 466 511 408 464 q 524 648 524 559 q 467 772 524 726 q 293 818 410 818 q 241 816 267 818 l 241 469 m 138 -227 l 123 -210 q 135 -176 126 -197 q 151 -139 143 -155 l 567 -139 l 582 -155 q 568 -196 578 -171 q 555 -227 557 -222 l 138 -227 z "},"S":{"ha":661,"x_min":79,"x_max":600,"o":"m 298 -20 q 194 -2 253 -20 q 89 46 136 16 q 82 70 84 49 q 79 120 79 90 q 89 220 79 186 l 117 216 q 205 100 146 140 q 336 61 264 61 q 417 83 377 61 q 483 142 457 105 q 509 220 509 178 q 482 304 509 269 q 417 362 456 339 q 311 416 378 385 q 193 477 237 450 q 117 548 149 504 q 86 656 86 592 q 114 754 86 703 q 203 840 142 805 q 357 875 264 875 q 476 857 418 875 q 558 812 533 840 q 560 806 560 810 q 541 765 560 793 q 505 722 522 736 l 481 726 q 402 788 446 768 q 317 807 359 807 q 237 789 269 807 q 190 743 205 770 q 174 688 174 715 q 198 625 174 652 q 256 576 221 597 q 352 526 290 555 q 481 455 432 487 q 565 374 530 424 q 600 256 600 325 q 566 127 600 191 q 463 22 532 64 q 298 -20 395 -20 z "},"Ś":{"ha":661,"x_min":79,"x_max":600,"o":"m 298 -20 q 194 -2 253 -20 q 89 46 136 16 q 82 70 84 49 q 79 120 79 90 q 89 220 79 186 l 117 216 q 205 100 146 140 q 336 61 264 61 q 417 83 377 61 q 483 142 457 105 q 509 220 509 178 q 482 304 509 269 q 417 362 456 339 q 311 416 378 385 q 193 477 237 450 q 117 548 149 504 q 86 656 86 592 q 114 754 86 703 q 203 840 142 805 q 357 875 264 875 q 476 857 418 875 q 558 812 533 840 q 560 806 560 810 q 541 765 560 793 q 505 722 522 736 l 481 726 q 402 788 446 768 q 317 807 359 807 q 237 789 269 807 q 190 743 205 770 q 174 688 174 715 q 198 625 174 652 q 256 576 221 597 q 352 526 290 555 q 481 455 432 487 q 565 374 530 424 q 600 256 600 325 q 566 127 600 191 q 463 22 532 64 q 298 -20 395 -20 m 250 927 q 236 936 241 931 q 227 947 231 940 q 219 958 222 954 l 481 1173 q 518 1152 487 1170 q 562 1122 550 1134 l 568 1092 l 250 927 z "},"Ṥ":{"ha":661,"x_min":79,"x_max":600,"o":"m 298 -20 q 194 -2 253 -20 q 89 46 136 16 q 82 70 84 49 q 79 120 79 90 q 89 220 79 186 l 117 216 q 205 100 146 140 q 336 61 264 61 q 417 83 377 61 q 483 142 457 105 q 509 220 509 178 q 482 304 509 269 q 417 362 456 339 q 311 416 378 385 q 193 477 237 450 q 117 548 149 504 q 86 656 86 592 q 114 754 86 703 q 203 840 142 805 q 357 875 264 875 q 476 857 418 875 q 558 812 533 840 q 560 806 560 810 q 541 765 560 793 q 505 722 522 736 l 481 726 q 402 788 446 768 q 317 807 359 807 q 237 789 269 807 q 190 743 205 770 q 174 688 174 715 q 198 625 174 652 q 256 576 221 597 q 352 526 290 555 q 481 455 432 487 q 565 374 530 424 q 600 256 600 325 q 566 127 600 191 q 463 22 532 64 q 298 -20 395 -20 m 250 927 q 236 936 241 931 q 227 947 231 940 q 219 958 222 954 l 481 1173 q 518 1152 487 1170 q 562 1122 550 1134 l 568 1092 l 250 927 m 328 1169 q 271 1234 271 1169 q 282 1281 271 1259 q 310 1314 292 1302 q 349 1326 328 1326 q 407 1262 407 1326 q 384 1196 407 1223 q 328 1169 361 1169 z "},"Ꞌ":{"ha":347,"x_min":92,"x_max":242,"o":"m 203 477 q 173 468 193 472 q 138 463 153 463 l 92 1031 q 148 1054 106 1040 q 206 1072 190 1068 l 242 1054 l 203 477 z "},"Š":{"ha":661,"x_min":79,"x_max":600,"o":"m 298 -20 q 194 -2 253 -20 q 89 46 136 16 q 82 70 84 49 q 79 120 79 90 q 89 220 79 186 l 117 216 q 205 100 146 140 q 336 61 264 61 q 417 83 377 61 q 483 142 457 105 q 509 220 509 178 q 482 304 509 269 q 417 362 456 339 q 311 416 378 385 q 193 477 237 450 q 117 548 149 504 q 86 656 86 592 q 114 754 86 703 q 203 840 142 805 q 357 875 264 875 q 476 857 418 875 q 558 812 533 840 q 560 806 560 810 q 541 765 560 793 q 505 722 522 736 l 481 726 q 402 788 446 768 q 317 807 359 807 q 237 789 269 807 q 190 743 205 770 q 174 688 174 715 q 198 625 174 652 q 256 576 221 597 q 352 526 290 555 q 481 455 432 487 q 565 374 530 424 q 600 256 600 325 q 566 127 600 191 q 463 22 532 64 q 298 -20 395 -20 m 303 943 l 124 1152 q 132 1163 126 1154 q 142 1175 138 1171 q 155 1183 147 1179 l 341 1040 l 524 1183 q 539 1173 535 1178 q 553 1152 544 1167 l 376 943 l 303 943 z "},"Ṧ":{"ha":661,"x_min":79,"x_max":600,"o":"m 298 -20 q 194 -2 253 -20 q 89 46 136 16 q 82 70 84 49 q 79 120 79 90 q 89 220 79 186 l 117 216 q 205 100 146 140 q 336 61 264 61 q 417 83 377 61 q 483 142 457 105 q 509 220 509 178 q 482 304 509 269 q 417 362 456 339 q 311 416 378 385 q 193 477 237 450 q 117 548 149 504 q 86 656 86 592 q 114 754 86 703 q 203 840 142 805 q 357 875 264 875 q 476 857 418 875 q 558 812 533 840 q 560 806 560 810 q 541 765 560 793 q 505 722 522 736 l 481 726 q 402 788 446 768 q 317 807 359 807 q 237 789 269 807 q 190 743 205 770 q 174 688 174 715 q 198 625 174 652 q 256 576 221 597 q 352 526 290 555 q 481 455 432 487 q 565 374 530 424 q 600 256 600 325 q 566 127 600 191 q 463 22 532 64 q 298 -20 395 -20 m 303 943 l 124 1152 q 132 1163 126 1154 q 142 1175 138 1171 q 155 1183 147 1179 l 341 1040 l 524 1183 q 539 1173 535 1178 q 553 1152 544 1167 l 376 943 l 303 943 m 328 1169 q 271 1234 271 1169 q 282 1281 271 1259 q 310 1314 292 1302 q 349 1326 328 1326 q 407 1262 407 1326 q 384 1196 407 1223 q 328 1169 361 1169 z "},"Ŝ":{"ha":661,"x_min":79,"x_max":600,"o":"m 298 -20 q 194 -2 253 -20 q 89 46 136 16 q 82 70 84 49 q 79 120 79 90 q 89 220 79 186 l 117 216 q 205 100 146 140 q 336 61 264 61 q 417 83 377 61 q 483 142 457 105 q 509 220 509 178 q 482 304 509 269 q 417 362 456 339 q 311 416 378 385 q 193 477 237 450 q 117 548 149 504 q 86 656 86 592 q 114 754 86 703 q 203 840 142 805 q 357 875 264 875 q 476 857 418 875 q 558 812 533 840 q 560 806 560 810 q 541 765 560 793 q 505 722 522 736 l 481 726 q 402 788 446 768 q 317 807 359 807 q 237 789 269 807 q 190 743 205 770 q 174 688 174 715 q 198 625 174 652 q 256 576 221 597 q 352 526 290 555 q 481 455 432 487 q 565 374 530 424 q 600 256 600 325 q 566 127 600 191 q 463 22 532 64 q 298 -20 395 -20 m 338 1068 l 155 927 q 142 935 146 931 q 133 946 138 939 q 124 958 127 954 l 303 1167 l 376 1167 l 553 958 q 546 947 551 955 q 536 935 541 939 q 524 927 532 930 l 338 1068 z "},"Ṡ":{"ha":661,"x_min":79,"x_max":600,"o":"m 298 -20 q 194 -2 253 -20 q 89 46 136 16 q 82 70 84 49 q 79 120 79 90 q 89 220 79 186 l 117 216 q 205 100 146 140 q 336 61 264 61 q 417 83 377 61 q 483 142 457 105 q 509 220 509 178 q 482 304 509 269 q 417 362 456 339 q 311 416 378 385 q 193 477 237 450 q 117 548 149 504 q 86 656 86 592 q 114 754 86 703 q 203 840 142 805 q 357 875 264 875 q 476 857 418 875 q 558 812 533 840 q 560 806 560 810 q 541 765 560 793 q 505 722 522 736 l 481 726 q 402 788 446 768 q 317 807 359 807 q 237 789 269 807 q 190 743 205 770 q 174 688 174 715 q 198 625 174 652 q 256 576 221 597 q 352 526 290 555 q 481 455 432 487 q 565 374 530 424 q 600 256 600 325 q 566 127 600 191 q 463 22 532 64 q 298 -20 395 -20 m 328 952 q 271 1017 271 952 q 282 1064 271 1042 q 310 1097 292 1085 q 349 1109 328 1109 q 407 1045 407 1109 q 384 979 407 1006 q 328 952 361 952 z "},"Ṣ":{"ha":661,"x_min":79,"x_max":600,"o":"m 298 -20 q 194 -2 253 -20 q 89 46 136 16 q 82 70 84 49 q 79 120 79 90 q 89 220 79 186 l 117 216 q 205 100 146 140 q 336 61 264 61 q 417 83 377 61 q 483 142 457 105 q 509 220 509 178 q 482 304 509 269 q 417 362 456 339 q 311 416 378 385 q 193 477 237 450 q 117 548 149 504 q 86 656 86 592 q 114 754 86 703 q 203 840 142 805 q 357 875 264 875 q 476 857 418 875 q 558 812 533 840 q 560 806 560 810 q 541 765 560 793 q 505 722 522 736 l 481 726 q 402 788 446 768 q 317 807 359 807 q 237 789 269 807 q 190 743 205 770 q 174 688 174 715 q 198 625 174 652 q 256 576 221 597 q 352 526 290 555 q 481 455 432 487 q 565 374 530 424 q 600 256 600 325 q 566 127 600 191 q 463 22 532 64 q 298 -20 395 -20 m 328 -282 q 271 -217 271 -282 q 282 -171 271 -192 q 310 -137 292 -149 q 349 -125 328 -125 q 407 -189 407 -125 q 384 -255 407 -228 q 328 -282 361 -282 z "},"Ṩ":{"ha":661,"x_min":79,"x_max":600,"o":"m 298 -20 q 194 -2 253 -20 q 89 46 136 16 q 82 70 84 49 q 79 120 79 90 q 89 220 79 186 l 117 216 q 205 100 146 140 q 336 61 264 61 q 417 83 377 61 q 483 142 457 105 q 509 220 509 178 q 482 304 509 269 q 417 362 456 339 q 311 416 378 385 q 193 477 237 450 q 117 548 149 504 q 86 656 86 592 q 114 754 86 703 q 203 840 142 805 q 357 875 264 875 q 476 857 418 875 q 558 812 533 840 q 560 806 560 810 q 541 765 560 793 q 505 722 522 736 l 481 726 q 402 788 446 768 q 317 807 359 807 q 237 789 269 807 q 190 743 205 770 q 174 688 174 715 q 198 625 174 652 q 256 576 221 597 q 352 526 290 555 q 481 455 432 487 q 565 374 530 424 q 600 256 600 325 q 566 127 600 191 q 463 22 532 64 q 298 -20 395 -20 m 328 -282 q 271 -217 271 -282 q 282 -171 271 -192 q 310 -137 292 -149 q 349 -125 328 -125 q 407 -189 407 -125 q 384 -255 407 -228 q 328 -282 361 -282 m 328 952 q 271 1017 271 952 q 282 1064 271 1042 q 310 1097 292 1085 q 349 1109 328 1109 q 407 1045 407 1109 q 384 979 407 1006 q 328 952 361 952 z "},"T":{"ha":765,"x_min":7,"x_max":734,"o":"m 208 29 q 293 54 266 41 q 319 78 319 67 l 319 793 l 117 793 q 92 786 102 793 q 69 753 81 778 q 36 675 56 728 l 7 688 q 16 773 10 728 q 29 854 22 819 l 714 854 l 734 838 q 714 678 732 775 l 684 678 q 667 750 673 728 q 650 783 661 772 q 621 793 640 793 l 428 793 l 428 78 q 455 54 428 68 q 539 29 482 41 l 539 0 l 208 0 l 208 29 z "},"Ť":{"ha":765,"x_min":7,"x_max":734,"o":"m 208 29 q 293 54 266 41 q 319 78 319 67 l 319 793 l 117 793 q 92 786 102 793 q 69 753 81 778 q 36 675 56 728 l 7 688 q 16 773 10 728 q 29 854 22 819 l 714 854 l 734 838 q 714 678 732 775 l 684 678 q 667 750 673 728 q 650 783 661 772 q 621 793 640 793 l 428 793 l 428 78 q 455 54 428 68 q 539 29 482 41 l 539 0 l 208 0 l 208 29 m 334 943 l 155 1152 q 163 1163 157 1154 q 174 1175 169 1171 q 186 1183 178 1179 l 372 1040 l 555 1183 q 571 1173 566 1178 q 585 1152 575 1167 l 407 943 l 334 943 z "},"Ṫ":{"ha":765,"x_min":7,"x_max":734,"o":"m 208 29 q 293 54 266 41 q 319 78 319 67 l 319 793 l 117 793 q 92 786 102 793 q 69 753 81 778 q 36 675 56 728 l 7 688 q 16 773 10 728 q 29 854 22 819 l 714 854 l 734 838 q 714 678 732 775 l 684 678 q 667 750 673 728 q 650 783 661 772 q 621 793 640 793 l 428 793 l 428 78 q 455 54 428 68 q 539 29 482 41 l 539 0 l 208 0 l 208 29 m 359 952 q 302 1017 302 952 q 313 1064 302 1042 q 341 1097 323 1085 q 380 1109 359 1109 q 438 1045 438 1109 q 415 979 438 1006 q 359 952 393 952 z "},"Ṭ":{"ha":765,"x_min":7,"x_max":734,"o":"m 208 29 q 293 54 266 41 q 319 78 319 67 l 319 793 l 117 793 q 92 786 102 793 q 69 753 81 778 q 36 675 56 728 l 7 688 q 16 773 10 728 q 29 854 22 819 l 714 854 l 734 838 q 714 678 732 775 l 684 678 q 667 750 673 728 q 650 783 661 772 q 621 793 640 793 l 428 793 l 428 78 q 455 54 428 68 q 539 29 482 41 l 539 0 l 208 0 l 208 29 m 359 -282 q 302 -217 302 -282 q 313 -171 302 -192 q 341 -137 323 -149 q 380 -125 359 -125 q 438 -189 438 -125 q 415 -255 438 -228 q 359 -282 393 -282 z "},"Ṯ":{"ha":765,"x_min":7,"x_max":734,"o":"m 208 29 q 293 54 266 41 q 319 78 319 67 l 319 793 l 117 793 q 92 786 102 793 q 69 753 81 778 q 36 675 56 728 l 7 688 q 16 773 10 728 q 29 854 22 819 l 714 854 l 734 838 q 714 678 732 775 l 684 678 q 667 750 673 728 q 650 783 661 772 q 621 793 640 793 l 428 793 l 428 78 q 455 54 428 68 q 539 29 482 41 l 539 0 l 208 0 l 208 29 m 156 -227 l 141 -210 q 152 -176 144 -197 q 169 -139 161 -155 l 585 -139 l 600 -155 q 586 -196 596 -171 q 573 -227 575 -222 l 156 -227 z "},"U":{"ha":908,"x_min":34,"x_max":865,"o":"m 766 355 q 728 153 766 238 q 620 24 690 68 q 452 -20 549 -20 q 284 15 356 -20 q 173 122 213 50 q 132 301 132 194 l 132 783 q 106 804 132 792 q 34 825 80 817 l 34 854 l 339 854 l 339 825 q 267 804 294 816 q 241 783 241 793 l 241 335 q 302 131 241 203 q 478 58 363 58 q 585 96 540 58 q 654 196 631 134 q 678 328 678 258 l 678 783 q 652 804 678 792 q 580 825 626 817 l 580 854 l 865 854 l 865 825 q 793 804 819 816 q 766 783 766 793 l 766 355 z "},"Ú":{"ha":908,"x_min":34,"x_max":865,"o":"m 766 355 q 728 153 766 238 q 620 24 690 68 q 452 -20 549 -20 q 284 15 356 -20 q 173 122 213 50 q 132 301 132 194 l 132 783 q 106 804 132 792 q 34 825 80 817 l 34 854 l 339 854 l 339 825 q 267 804 294 816 q 241 783 241 793 l 241 335 q 302 131 241 203 q 478 58 363 58 q 585 96 540 58 q 654 196 631 134 q 678 328 678 258 l 678 783 q 652 804 678 792 q 580 825 626 817 l 580 854 l 865 854 l 865 825 q 793 804 819 816 q 766 783 766 793 l 766 355 m 370 927 q 356 936 361 931 q 347 947 351 940 q 339 958 342 954 l 602 1173 q 638 1152 607 1170 q 682 1122 670 1134 l 688 1092 l 370 927 z "},"Ʉ":{"ha":908,"x_min":30,"x_max":871,"o":"m 766 478 l 854 478 l 871 463 l 854 417 l 766 417 l 766 355 q 728 153 766 238 q 620 24 690 68 q 452 -20 549 -20 q 284 15 356 -20 q 173 122 213 50 q 132 301 132 194 l 132 417 l 45 417 l 30 434 q 45 478 37 457 l 132 478 l 132 783 q 106 804 132 792 q 34 825 80 817 l 34 854 l 339 854 l 339 825 q 267 804 294 816 q 241 783 241 793 l 241 478 l 678 478 l 678 783 q 652 804 678 792 q 580 825 626 817 l 580 854 l 865 854 l 865 825 q 793 804 819 816 q 766 783 766 793 l 766 478 m 678 417 l 241 417 l 241 335 q 302 131 241 203 q 478 58 363 58 q 585 96 540 58 q 654 196 631 134 q 678 328 678 258 l 678 417 z "},"Ŭ":{"ha":908,"x_min":34,"x_max":865,"o":"m 766 355 q 728 153 766 238 q 620 24 690 68 q 452 -20 549 -20 q 284 15 356 -20 q 173 122 213 50 q 132 301 132 194 l 132 783 q 106 804 132 792 q 34 825 80 817 l 34 854 l 339 854 l 339 825 q 267 804 294 816 q 241 783 241 793 l 241 335 q 302 131 241 203 q 478 58 363 58 q 585 96 540 58 q 654 196 631 134 q 678 328 678 258 l 678 783 q 652 804 678 792 q 580 825 626 817 l 580 854 l 865 854 l 865 825 q 793 804 819 816 q 766 783 766 793 l 766 355 m 460 943 q 334 989 390 943 q 239 1139 277 1035 q 255 1158 246 1151 q 275 1170 263 1164 q 356 1065 306 1099 q 458 1032 406 1032 q 563 1065 512 1032 q 644 1170 614 1098 q 664 1158 656 1164 q 680 1139 671 1152 q 584 989 641 1036 q 460 943 527 943 z "},"Ǔ":{"ha":908,"x_min":34,"x_max":865,"o":"m 766 355 q 728 153 766 238 q 620 24 690 68 q 452 -20 549 -20 q 284 15 356 -20 q 173 122 213 50 q 132 301 132 194 l 132 783 q 106 804 132 792 q 34 825 80 817 l 34 854 l 339 854 l 339 825 q 267 804 294 816 q 241 783 241 793 l 241 335 q 302 131 241 203 q 478 58 363 58 q 585 96 540 58 q 654 196 631 134 q 678 328 678 258 l 678 783 q 652 804 678 792 q 580 825 626 817 l 580 854 l 865 854 l 865 825 q 793 804 819 816 q 766 783 766 793 l 766 355 m 423 943 l 244 1152 q 252 1163 246 1154 q 262 1175 258 1171 q 275 1183 267 1179 l 461 1040 l 644 1183 q 660 1173 655 1178 q 673 1152 664 1167 l 496 943 l 423 943 z "},"Û":{"ha":908,"x_min":34,"x_max":865,"o":"m 766 355 q 728 153 766 238 q 620 24 690 68 q 452 -20 549 -20 q 284 15 356 -20 q 173 122 213 50 q 132 301 132 194 l 132 783 q 106 804 132 792 q 34 825 80 817 l 34 854 l 339 854 l 339 825 q 267 804 294 816 q 241 783 241 793 l 241 335 q 302 131 241 203 q 478 58 363 58 q 585 96 540 58 q 654 196 631 134 q 678 328 678 258 l 678 783 q 652 804 678 792 q 580 825 626 817 l 580 854 l 865 854 l 865 825 q 793 804 819 816 q 766 783 766 793 l 766 355 m 458 1068 l 275 927 q 262 935 267 931 q 253 946 258 939 q 244 958 248 954 l 423 1167 l 496 1167 l 673 958 q 666 947 671 955 q 656 935 661 939 q 644 927 652 930 l 458 1068 z "},"Ü":{"ha":908,"x_min":34,"x_max":865,"o":"m 766 355 q 728 153 766 238 q 620 24 690 68 q 452 -20 549 -20 q 284 15 356 -20 q 173 122 213 50 q 132 301 132 194 l 132 783 q 106 804 132 792 q 34 825 80 817 l 34 854 l 339 854 l 339 825 q 267 804 294 816 q 241 783 241 793 l 241 335 q 302 131 241 203 q 478 58 363 58 q 585 96 540 58 q 654 196 631 134 q 678 328 678 258 l 678 783 q 652 804 678 792 q 580 825 626 817 l 580 854 l 865 854 l 865 825 q 793 804 819 816 q 766 783 766 793 l 766 355 m 313 952 q 256 1017 256 952 q 266 1064 256 1042 q 295 1097 277 1085 q 334 1109 313 1109 q 391 1045 391 1109 q 369 979 391 1006 q 313 952 346 952 m 584 952 q 527 1017 527 952 q 537 1064 527 1042 q 566 1097 548 1085 q 605 1109 584 1109 q 663 1045 663 1109 q 640 979 663 1006 q 584 952 617 952 z "},"Ǘ":{"ha":908,"x_min":34,"x_max":865,"o":"m 766 355 q 728 153 766 238 q 620 24 690 68 q 452 -20 549 -20 q 284 15 356 -20 q 173 122 213 50 q 132 301 132 194 l 132 783 q 106 804 132 792 q 34 825 80 817 l 34 854 l 339 854 l 339 825 q 267 804 294 816 q 241 783 241 793 l 241 335 q 302 131 241 203 q 478 58 363 58 q 585 96 540 58 q 654 196 631 134 q 678 328 678 258 l 678 783 q 652 804 678 792 q 580 825 626 817 l 580 854 l 865 854 l 865 825 q 793 804 819 816 q 766 783 766 793 l 766 355 m 313 952 q 256 1017 256 952 q 266 1064 256 1042 q 295 1097 277 1085 q 334 1109 313 1109 q 391 1045 391 1109 q 369 979 391 1006 q 313 952 346 952 m 584 952 q 527 1017 527 952 q 537 1064 527 1042 q 566 1097 548 1085 q 605 1109 584 1109 q 663 1045 663 1109 q 640 979 663 1006 q 584 952 617 952 m 370 1144 q 356 1153 361 1148 q 347 1164 351 1157 q 339 1175 342 1171 l 602 1390 q 638 1369 607 1387 q 682 1339 670 1351 l 688 1309 l 370 1144 z "},"Ǚ":{"ha":908,"x_min":34,"x_max":865,"o":"m 766 355 q 728 153 766 238 q 620 24 690 68 q 452 -20 549 -20 q 284 15 356 -20 q 173 122 213 50 q 132 301 132 194 l 132 783 q 106 804 132 792 q 34 825 80 817 l 34 854 l 339 854 l 339 825 q 267 804 294 816 q 241 783 241 793 l 241 335 q 302 131 241 203 q 478 58 363 58 q 585 96 540 58 q 654 196 631 134 q 678 328 678 258 l 678 783 q 652 804 678 792 q 580 825 626 817 l 580 854 l 865 854 l 865 825 q 793 804 819 816 q 766 783 766 793 l 766 355 m 313 952 q 256 1017 256 952 q 266 1064 256 1042 q 295 1097 277 1085 q 334 1109 313 1109 q 391 1045 391 1109 q 369 979 391 1006 q 313 952 346 952 m 584 952 q 527 1017 527 952 q 537 1064 527 1042 q 566 1097 548 1085 q 605 1109 584 1109 q 663 1045 663 1109 q 640 979 663 1006 q 584 952 617 952 m 423 1160 l 244 1369 q 252 1380 246 1371 q 262 1392 258 1388 q 275 1400 267 1396 l 461 1257 l 644 1400 q 660 1390 655 1395 q 673 1369 664 1384 l 496 1160 l 423 1160 z "},"Ǜ":{"ha":908,"x_min":34,"x_max":865,"o":"m 766 355 q 728 153 766 238 q 620 24 690 68 q 452 -20 549 -20 q 284 15 356 -20 q 173 122 213 50 q 132 301 132 194 l 132 783 q 106 804 132 792 q 34 825 80 817 l 34 854 l 339 854 l 339 825 q 267 804 294 816 q 241 783 241 793 l 241 335 q 302 131 241 203 q 478 58 363 58 q 585 96 540 58 q 654 196 631 134 q 678 328 678 258 l 678 783 q 652 804 678 792 q 580 825 626 817 l 580 854 l 865 854 l 865 825 q 793 804 819 816 q 766 783 766 793 l 766 355 m 313 952 q 256 1017 256 952 q 266 1064 256 1042 q 295 1097 277 1085 q 334 1109 313 1109 q 391 1045 391 1109 q 369 979 391 1006 q 313 952 346 952 m 584 952 q 527 1017 527 952 q 537 1064 527 1042 q 566 1097 548 1085 q 605 1109 584 1109 q 663 1045 663 1109 q 640 979 663 1006 q 584 952 617 952 m 231 1309 l 236 1339 q 281 1370 248 1352 q 317 1390 313 1388 l 579 1175 q 570 1163 576 1171 q 560 1151 565 1155 q 549 1144 555 1147 l 231 1309 z "},"Ǖ":{"ha":908,"x_min":34,"x_max":865,"o":"m 766 355 q 728 153 766 238 q 620 24 690 68 q 452 -20 549 -20 q 284 15 356 -20 q 173 122 213 50 q 132 301 132 194 l 132 783 q 106 804 132 792 q 34 825 80 817 l 34 854 l 339 854 l 339 825 q 267 804 294 816 q 241 783 241 793 l 241 335 q 302 131 241 203 q 478 58 363 58 q 585 96 540 58 q 654 196 631 134 q 678 328 678 258 l 678 783 q 652 804 678 792 q 580 825 626 817 l 580 854 l 865 854 l 865 825 q 793 804 819 816 q 766 783 766 793 l 766 355 m 313 952 q 256 1017 256 952 q 266 1064 256 1042 q 295 1097 277 1085 q 334 1109 313 1109 q 391 1045 391 1109 q 369 979 391 1006 q 313 952 346 952 m 584 952 q 527 1017 527 952 q 537 1064 527 1042 q 566 1097 548 1085 q 605 1109 584 1109 q 663 1045 663 1109 q 640 979 663 1006 q 584 952 617 952 m 252 1204 l 237 1221 q 248 1255 239 1234 q 264 1292 256 1276 l 680 1292 l 695 1276 q 681 1235 692 1260 q 669 1204 671 1209 l 252 1204 z "},"Ụ":{"ha":908,"x_min":34,"x_max":865,"o":"m 766 355 q 728 153 766 238 q 620 24 690 68 q 452 -20 549 -20 q 284 15 356 -20 q 173 122 213 50 q 132 301 132 194 l 132 783 q 106 804 132 792 q 34 825 80 817 l 34 854 l 339 854 l 339 825 q 267 804 294 816 q 241 783 241 793 l 241 335 q 302 131 241 203 q 478 58 363 58 q 585 96 540 58 q 654 196 631 134 q 678 328 678 258 l 678 783 q 652 804 678 792 q 580 825 626 817 l 580 854 l 865 854 l 865 825 q 793 804 819 816 q 766 783 766 793 l 766 355 m 448 -282 q 391 -217 391 -282 q 402 -171 391 -192 q 430 -137 412 -149 q 469 -125 448 -125 q 527 -189 527 -125 q 504 -255 527 -228 q 448 -282 481 -282 z "},"Ù":{"ha":908,"x_min":34,"x_max":865,"o":"m 766 355 q 728 153 766 238 q 620 24 690 68 q 452 -20 549 -20 q 284 15 356 -20 q 173 122 213 50 q 132 301 132 194 l 132 783 q 106 804 132 792 q 34 825 80 817 l 34 854 l 339 854 l 339 825 q 267 804 294 816 q 241 783 241 793 l 241 335 q 302 131 241 203 q 478 58 363 58 q 585 96 540 58 q 654 196 631 134 q 678 328 678 258 l 678 783 q 652 804 678 792 q 580 825 626 817 l 580 854 l 865 854 l 865 825 q 793 804 819 816 q 766 783 766 793 l 766 355 m 231 1092 l 236 1122 q 281 1153 248 1135 q 317 1173 313 1171 l 579 958 q 570 946 576 954 q 560 934 565 938 q 549 927 555 930 l 231 1092 z "},"Ủ":{"ha":908,"x_min":34,"x_max":865,"o":"m 766 355 q 728 153 766 238 q 620 24 690 68 q 452 -20 549 -20 q 284 15 356 -20 q 173 122 213 50 q 132 301 132 194 l 132 783 q 106 804 132 792 q 34 825 80 817 l 34 854 l 339 854 l 339 825 q 267 804 294 816 q 241 783 241 793 l 241 335 q 302 131 241 203 q 478 58 363 58 q 585 96 540 58 q 654 196 631 134 q 678 328 678 258 l 678 783 q 652 804 678 792 q 580 825 626 817 l 580 854 l 865 854 l 865 825 q 793 804 819 816 q 766 783 766 793 l 766 355 m 509 954 q 492 946 500 948 q 467 943 483 944 q 418 973 433 960 q 404 1000 404 987 q 416 1024 404 1013 q 452 1051 428 1035 q 494 1083 480 1070 q 507 1112 507 1096 q 495 1150 507 1137 q 462 1163 482 1163 q 429 1150 443 1163 q 416 1121 416 1137 q 421 1107 416 1116 q 389 1098 411 1103 q 353 1092 367 1093 l 346 1099 l 346 1108 q 367 1149 346 1128 q 421 1183 389 1170 q 484 1196 453 1196 q 550 1175 526 1196 q 573 1121 573 1155 q 558 1084 573 1101 q 515 1048 543 1068 q 481 1019 492 1029 q 471 996 471 1008 q 509 954 471 976 z "},"Ư":{"ha":949,"x_min":34,"x_max":949,"o":"m 766 355 q 728 153 766 238 q 620 24 690 68 q 452 -20 549 -20 q 284 15 356 -20 q 173 122 213 50 q 132 301 132 194 l 132 783 q 106 804 132 792 q 34 825 80 817 l 34 854 l 339 854 l 339 825 q 267 804 294 816 q 241 783 241 793 l 241 335 q 302 131 241 203 q 478 58 363 58 q 585 96 540 58 q 654 196 631 134 q 678 328 678 258 l 678 783 q 652 804 678 792 q 580 825 626 817 l 580 854 l 821 854 q 833 889 833 874 q 793 960 833 926 l 914 1014 q 949 944 949 981 q 932 886 949 918 q 874 818 915 854 q 766 749 833 782 l 766 355 z "},"Ứ":{"ha":949,"x_min":34,"x_max":949,"o":"m 766 355 q 728 153 766 238 q 620 24 690 68 q 452 -20 549 -20 q 284 15 356 -20 q 173 122 213 50 q 132 301 132 194 l 132 783 q 106 804 132 792 q 34 825 80 817 l 34 854 l 339 854 l 339 825 q 267 804 294 816 q 241 783 241 793 l 241 335 q 302 131 241 203 q 478 58 363 58 q 585 96 540 58 q 654 196 631 134 q 678 328 678 258 l 678 783 q 652 804 678 792 q 580 825 626 817 l 580 854 l 821 854 q 833 889 833 874 q 793 960 833 926 l 914 1014 q 949 944 949 981 q 932 886 949 918 q 874 818 915 854 q 766 749 833 782 l 766 355 m 370 927 q 356 936 361 931 q 347 947 351 940 q 339 958 342 954 l 602 1173 q 638 1152 607 1170 q 682 1122 670 1134 l 688 1092 l 370 927 z "},"Ự":{"ha":949,"x_min":34,"x_max":949,"o":"m 766 355 q 728 153 766 238 q 620 24 690 68 q 452 -20 549 -20 q 284 15 356 -20 q 173 122 213 50 q 132 301 132 194 l 132 783 q 106 804 132 792 q 34 825 80 817 l 34 854 l 339 854 l 339 825 q 267 804 294 816 q 241 783 241 793 l 241 335 q 302 131 241 203 q 478 58 363 58 q 585 96 540 58 q 654 196 631 134 q 678 328 678 258 l 678 783 q 652 804 678 792 q 580 825 626 817 l 580 854 l 821 854 q 833 889 833 874 q 793 960 833 926 l 914 1014 q 949 944 949 981 q 932 886 949 918 q 874 818 915 854 q 766 749 833 782 l 766 355 m 448 -282 q 391 -217 391 -282 q 402 -171 391 -192 q 430 -137 412 -149 q 469 -125 448 -125 q 527 -189 527 -125 q 504 -255 527 -228 q 448 -282 481 -282 z "},"Ừ":{"ha":949,"x_min":34,"x_max":949,"o":"m 766 355 q 728 153 766 238 q 620 24 690 68 q 452 -20 549 -20 q 284 15 356 -20 q 173 122 213 50 q 132 301 132 194 l 132 783 q 106 804 132 792 q 34 825 80 817 l 34 854 l 339 854 l 339 825 q 267 804 294 816 q 241 783 241 793 l 241 335 q 302 131 241 203 q 478 58 363 58 q 585 96 540 58 q 654 196 631 134 q 678 328 678 258 l 678 783 q 652 804 678 792 q 580 825 626 817 l 580 854 l 821 854 q 833 889 833 874 q 793 960 833 926 l 914 1014 q 949 944 949 981 q 932 886 949 918 q 874 818 915 854 q 766 749 833 782 l 766 355 m 231 1092 l 236 1122 q 281 1153 248 1135 q 317 1173 313 1171 l 579 958 q 570 946 576 954 q 560 934 565 938 q 549 927 555 930 l 231 1092 z "},"Ử":{"ha":949,"x_min":34,"x_max":949,"o":"m 766 355 q 728 153 766 238 q 620 24 690 68 q 452 -20 549 -20 q 284 15 356 -20 q 173 122 213 50 q 132 301 132 194 l 132 783 q 106 804 132 792 q 34 825 80 817 l 34 854 l 339 854 l 339 825 q 267 804 294 816 q 241 783 241 793 l 241 335 q 302 131 241 203 q 478 58 363 58 q 585 96 540 58 q 654 196 631 134 q 678 328 678 258 l 678 783 q 652 804 678 792 q 580 825 626 817 l 580 854 l 821 854 q 833 889 833 874 q 793 960 833 926 l 914 1014 q 949 944 949 981 q 932 886 949 918 q 874 818 915 854 q 766 749 833 782 l 766 355 m 509 954 q 492 946 500 948 q 467 943 483 944 q 418 973 433 960 q 404 1000 404 987 q 416 1024 404 1013 q 452 1051 428 1035 q 494 1083 480 1070 q 507 1112 507 1096 q 495 1150 507 1137 q 462 1163 482 1163 q 429 1150 443 1163 q 416 1121 416 1137 q 421 1107 416 1116 q 389 1098 411 1103 q 353 1092 367 1093 l 346 1099 l 346 1108 q 367 1149 346 1128 q 421 1183 389 1170 q 484 1196 453 1196 q 550 1175 526 1196 q 573 1121 573 1155 q 558 1084 573 1101 q 515 1048 543 1068 q 481 1019 492 1029 q 471 996 471 1008 q 509 954 471 976 z "},"Ữ":{"ha":949,"x_min":34,"x_max":949,"o":"m 766 355 q 728 153 766 238 q 620 24 690 68 q 452 -20 549 -20 q 284 15 356 -20 q 173 122 213 50 q 132 301 132 194 l 132 783 q 106 804 132 792 q 34 825 80 817 l 34 854 l 339 854 l 339 825 q 267 804 294 816 q 241 783 241 793 l 241 335 q 302 131 241 203 q 478 58 363 58 q 585 96 540 58 q 654 196 631 134 q 678 328 678 258 l 678 783 q 652 804 678 792 q 580 825 626 817 l 580 854 l 821 854 q 833 889 833 874 q 793 960 833 926 l 914 1014 q 949 944 949 981 q 932 886 949 918 q 874 818 915 854 q 766 749 833 782 l 766 355 m 528 950 q 487 960 506 950 q 437 991 467 970 q 394 1018 411 1009 q 361 1027 378 1027 q 314 1007 336 1027 q 264 945 292 987 l 228 958 q 298 1066 255 1021 q 390 1112 341 1112 q 438 1100 415 1112 q 491 1067 461 1088 q 528 1043 513 1050 q 555 1035 543 1035 q 654 1118 606 1035 l 690 1103 q 620 995 663 1040 q 528 950 576 950 z "},"Ű":{"ha":908,"x_min":34,"x_max":865,"o":"m 766 355 q 728 153 766 238 q 620 24 690 68 q 452 -20 549 -20 q 284 15 356 -20 q 173 122 213 50 q 132 301 132 194 l 132 783 q 106 804 132 792 q 34 825 80 817 l 34 854 l 339 854 l 339 825 q 267 804 294 816 q 241 783 241 793 l 241 335 q 302 131 241 203 q 478 58 363 58 q 585 96 540 58 q 654 196 631 134 q 678 328 678 258 l 678 783 q 652 804 678 792 q 580 825 626 817 l 580 854 l 865 854 l 865 825 q 793 804 819 816 q 766 783 766 793 l 766 355 m 349 927 q 332 932 338 929 q 310 945 326 936 l 429 1227 q 473 1220 448 1225 q 510 1210 497 1215 l 525 1182 l 349 927 m 546 927 q 528 932 534 929 q 507 945 522 936 l 627 1227 q 669 1220 645 1225 q 707 1210 693 1215 l 722 1182 l 546 927 z "},"Ū":{"ha":908,"x_min":34,"x_max":865,"o":"m 766 355 q 728 153 766 238 q 620 24 690 68 q 452 -20 549 -20 q 284 15 356 -20 q 173 122 213 50 q 132 301 132 194 l 132 783 q 106 804 132 792 q 34 825 80 817 l 34 854 l 339 854 l 339 825 q 267 804 294 816 q 241 783 241 793 l 241 335 q 302 131 241 203 q 478 58 363 58 q 585 96 540 58 q 654 196 631 134 q 678 328 678 258 l 678 783 q 652 804 678 792 q 580 825 626 817 l 580 854 l 865 854 l 865 825 q 793 804 819 816 q 766 783 766 793 l 766 355 m 252 987 l 237 1004 q 248 1038 239 1017 q 264 1075 256 1059 l 680 1075 l 695 1059 q 681 1018 692 1043 q 669 987 671 992 l 252 987 z "},"Ṻ":{"ha":908,"x_min":34,"x_max":865,"o":"m 766 355 q 728 153 766 238 q 620 24 690 68 q 452 -20 549 -20 q 284 15 356 -20 q 173 122 213 50 q 132 301 132 194 l 132 783 q 106 804 132 792 q 34 825 80 817 l 34 854 l 339 854 l 339 825 q 267 804 294 816 q 241 783 241 793 l 241 335 q 302 131 241 203 q 478 58 363 58 q 585 96 540 58 q 654 196 631 134 q 678 328 678 258 l 678 783 q 652 804 678 792 q 580 825 626 817 l 580 854 l 865 854 l 865 825 q 793 804 819 816 q 766 783 766 793 l 766 355 m 252 987 l 237 1004 q 248 1038 239 1017 q 264 1075 256 1059 l 680 1075 l 695 1059 q 681 1018 692 1043 q 669 987 671 992 l 252 987 m 313 1169 q 256 1234 256 1169 q 266 1281 256 1259 q 295 1314 277 1302 q 334 1326 313 1326 q 391 1262 391 1326 q 369 1196 391 1223 q 313 1169 346 1169 m 584 1169 q 527 1234 527 1169 q 537 1281 527 1259 q 566 1314 548 1302 q 605 1326 584 1326 q 663 1262 663 1326 q 640 1196 663 1223 q 584 1169 617 1169 z "},"Ů":{"ha":908,"x_min":34,"x_max":865,"o":"m 766 355 q 728 153 766 238 q 620 24 690 68 q 452 -20 549 -20 q 284 15 356 -20 q 173 122 213 50 q 132 301 132 194 l 132 783 q 106 804 132 792 q 34 825 80 817 l 34 854 l 339 854 l 339 825 q 267 804 294 816 q 241 783 241 793 l 241 335 q 302 131 241 203 q 478 58 363 58 q 585 96 540 58 q 654 196 631 134 q 678 328 678 258 l 678 783 q 652 804 678 792 q 580 825 626 817 l 580 854 l 865 854 l 865 825 q 793 804 819 816 q 766 783 766 793 l 766 355 m 438 929 q 384 943 408 929 q 347 981 360 958 q 333 1034 333 1005 q 355 1115 333 1078 q 411 1173 376 1152 q 480 1194 445 1194 q 533 1179 509 1194 q 571 1140 557 1164 q 585 1088 585 1116 q 563 1007 585 1044 q 507 950 541 971 q 438 929 473 929 m 466 1142 q 415 1119 437 1142 q 394 1061 394 1097 q 410 1005 394 1029 q 452 981 427 981 q 503 1002 481 981 q 524 1060 524 1023 q 508 1118 524 1094 q 466 1142 492 1142 z "},"Ũ":{"ha":908,"x_min":34,"x_max":865,"o":"m 766 355 q 728 153 766 238 q 620 24 690 68 q 452 -20 549 -20 q 284 15 356 -20 q 173 122 213 50 q 132 301 132 194 l 132 783 q 106 804 132 792 q 34 825 80 817 l 34 854 l 339 854 l 339 825 q 267 804 294 816 q 241 783 241 793 l 241 335 q 302 131 241 203 q 478 58 363 58 q 585 96 540 58 q 654 196 631 134 q 678 328 678 258 l 678 783 q 652 804 678 792 q 580 825 626 817 l 580 854 l 865 854 l 865 825 q 793 804 819 816 q 766 783 766 793 l 766 355 m 528 950 q 487 960 506 950 q 437 991 467 970 q 394 1018 411 1009 q 361 1027 378 1027 q 314 1007 336 1027 q 264 945 292 987 l 228 958 q 298 1066 255 1021 q 390 1112 341 1112 q 438 1100 415 1112 q 491 1067 461 1088 q 528 1043 513 1050 q 555 1035 543 1035 q 654 1118 606 1035 l 690 1103 q 620 995 663 1040 q 528 950 576 950 z "},"Ṹ":{"ha":908,"x_min":34,"x_max":865,"o":"m 766 355 q 728 153 766 238 q 620 24 690 68 q 452 -20 549 -20 q 284 15 356 -20 q 173 122 213 50 q 132 301 132 194 l 132 783 q 106 804 132 792 q 34 825 80 817 l 34 854 l 339 854 l 339 825 q 267 804 294 816 q 241 783 241 793 l 241 335 q 302 131 241 203 q 478 58 363 58 q 585 96 540 58 q 654 196 631 134 q 678 328 678 258 l 678 783 q 652 804 678 792 q 580 825 626 817 l 580 854 l 865 854 l 865 825 q 793 804 819 816 q 766 783 766 793 l 766 355 m 528 950 q 487 960 506 950 q 437 991 467 970 q 394 1018 411 1009 q 361 1027 378 1027 q 314 1007 336 1027 q 264 945 292 987 l 228 958 q 298 1066 255 1021 q 390 1112 341 1112 q 438 1100 415 1112 q 491 1067 461 1088 q 528 1043 513 1050 q 555 1035 543 1035 q 654 1118 606 1035 l 690 1103 q 620 995 663 1040 q 528 950 576 950 m 370 1144 q 356 1153 361 1148 q 347 1164 351 1157 q 339 1175 342 1171 l 602 1390 q 638 1369 607 1387 q 682 1339 670 1351 l 688 1309 l 370 1144 z "},"V":{"ha":903,"x_min":14,"x_max":875,"o":"m 510 40 q 408 -20 496 -1 l 110 781 q 80 809 103 798 q 14 825 57 820 l 14 854 l 309 854 l 309 825 q 240 814 261 822 q 220 791 220 806 q 222 782 220 787 l 461 138 l 689 781 q 690 789 690 783 q 668 811 690 803 q 593 825 646 819 l 593 854 l 875 854 l 875 825 q 799 807 822 815 q 770 781 776 798 l 510 40 z "},"Ṿ":{"ha":903,"x_min":14,"x_max":875,"o":"m 510 40 q 408 -20 496 -1 l 110 781 q 80 809 103 798 q 14 825 57 820 l 14 854 l 309 854 l 309 825 q 240 814 261 822 q 220 791 220 806 q 222 782 220 787 l 461 138 l 689 781 q 690 789 690 783 q 668 811 690 803 q 593 825 646 819 l 593 854 l 875 854 l 875 825 q 799 807 822 815 q 770 781 776 798 l 510 40 m 433 -282 q 376 -217 376 -282 q 387 -171 376 -192 q 415 -137 397 -149 q 454 -125 433 -125 q 512 -189 512 -125 q 489 -255 512 -228 q 433 -282 467 -282 z "},"Ṽ":{"ha":903,"x_min":14,"x_max":875,"o":"m 510 40 q 408 -20 496 -1 l 110 781 q 80 809 103 798 q 14 825 57 820 l 14 854 l 309 854 l 309 825 q 240 814 261 822 q 220 791 220 806 q 222 782 220 787 l 461 138 l 689 781 q 690 789 690 783 q 668 811 690 803 q 593 825 646 819 l 593 854 l 875 854 l 875 825 q 799 807 822 815 q 770 781 776 798 l 510 40 m 519 950 q 478 960 498 950 q 429 991 459 970 q 386 1018 403 1009 q 353 1027 370 1027 q 306 1007 328 1027 q 256 945 283 987 l 220 958 q 290 1066 247 1021 q 382 1112 333 1112 q 430 1100 407 1112 q 483 1067 453 1088 q 520 1043 505 1050 q 547 1035 534 1035 q 646 1118 597 1035 l 682 1103 q 612 995 655 1040 q 519 950 568 950 z "},"Ʌ":{"ha":903,"x_min":14,"x_max":875,"o":"m 378 814 q 480 875 393 855 l 779 74 q 808 45 785 56 q 875 29 831 35 l 875 0 l 580 0 l 580 29 q 648 40 627 33 q 669 63 669 48 q 667 73 669 68 l 427 717 l 199 74 q 198 66 198 71 q 220 44 198 52 q 296 29 243 36 l 296 0 l 14 0 l 14 29 q 90 48 66 39 q 119 74 113 56 l 378 814 z "},"W":{"ha":1181,"x_min":14,"x_max":1154,"o":"m 896 40 q 802 -20 887 -1 l 581 640 l 386 40 q 350 1 377 14 q 283 -20 322 -12 l 107 778 q 82 806 104 795 q 14 825 61 817 l 14 854 l 304 854 l 304 825 q 231 810 251 820 q 212 785 212 800 q 212 778 212 781 l 347 170 l 567 854 l 604 854 l 844 170 l 971 783 q 947 807 974 798 q 867 825 920 817 l 867 854 l 1154 854 l 1154 825 q 1075 804 1097 814 q 1051 783 1053 795 l 896 40 z "},"Ẃ":{"ha":1181,"x_min":14,"x_max":1154,"o":"m 896 40 q 802 -20 887 -1 l 581 640 l 386 40 q 350 1 377 14 q 283 -20 322 -12 l 107 778 q 82 806 104 795 q 14 825 61 817 l 14 854 l 304 854 l 304 825 q 231 810 251 820 q 212 785 212 800 q 212 778 212 781 l 347 170 l 567 854 l 604 854 l 844 170 l 971 783 q 947 807 974 798 q 867 825 920 817 l 867 854 l 1154 854 l 1154 825 q 1075 804 1097 814 q 1051 783 1053 795 l 896 40 m 494 927 q 481 936 486 931 q 471 947 476 940 q 464 958 467 954 l 726 1173 q 763 1152 732 1170 q 806 1122 795 1134 l 812 1092 l 494 927 z "},"Ŵ":{"ha":1181,"x_min":14,"x_max":1154,"o":"m 896 40 q 802 -20 887 -1 l 581 640 l 386 40 q 350 1 377 14 q 283 -20 322 -12 l 107 778 q 82 806 104 795 q 14 825 61 817 l 14 854 l 304 854 l 304 825 q 231 810 251 820 q 212 785 212 800 q 212 778 212 781 l 347 170 l 567 854 l 604 854 l 844 170 l 971 783 q 947 807 974 798 q 867 825 920 817 l 867 854 l 1154 854 l 1154 825 q 1075 804 1097 814 q 1051 783 1053 795 l 896 40 m 583 1068 l 399 927 q 387 935 391 931 q 377 946 382 939 q 369 958 372 954 l 548 1167 l 621 1167 l 798 958 q 791 947 796 955 q 781 935 786 939 q 769 927 777 930 l 583 1068 z "},"Ẅ":{"ha":1181,"x_min":14,"x_max":1154,"o":"m 896 40 q 802 -20 887 -1 l 581 640 l 386 40 q 350 1 377 14 q 283 -20 322 -12 l 107 778 q 82 806 104 795 q 14 825 61 817 l 14 854 l 304 854 l 304 825 q 231 810 251 820 q 212 785 212 800 q 212 778 212 781 l 347 170 l 567 854 l 604 854 l 844 170 l 971 783 q 947 807 974 798 q 867 825 920 817 l 867 854 l 1154 854 l 1154 825 q 1075 804 1097 814 q 1051 783 1053 795 l 896 40 m 437 952 q 380 1017 380 952 q 391 1064 380 1042 q 419 1097 401 1085 q 458 1109 437 1109 q 516 1045 516 1109 q 493 979 516 1006 q 437 952 471 952 m 709 952 q 652 1017 652 952 q 662 1064 652 1042 q 691 1097 673 1085 q 730 1109 709 1109 q 787 1045 787 1109 q 765 979 787 1006 q 709 952 742 952 z "},"Ẇ":{"ha":1181,"x_min":14,"x_max":1154,"o":"m 896 40 q 802 -20 887 -1 l 581 640 l 386 40 q 350 1 377 14 q 283 -20 322 -12 l 107 778 q 82 806 104 795 q 14 825 61 817 l 14 854 l 304 854 l 304 825 q 231 810 251 820 q 212 785 212 800 q 212 778 212 781 l 347 170 l 567 854 l 604 854 l 844 170 l 971 783 q 947 807 974 798 q 867 825 920 817 l 867 854 l 1154 854 l 1154 825 q 1075 804 1097 814 q 1051 783 1053 795 l 896 40 m 573 952 q 516 1017 516 952 q 527 1064 516 1042 q 555 1097 537 1085 q 594 1109 573 1109 q 652 1045 652 1109 q 629 979 652 1006 q 573 952 606 952 z "},"Ẉ":{"ha":1181,"x_min":14,"x_max":1154,"o":"m 896 40 q 802 -20 887 -1 l 581 640 l 386 40 q 350 1 377 14 q 283 -20 322 -12 l 107 778 q 82 806 104 795 q 14 825 61 817 l 14 854 l 304 854 l 304 825 q 231 810 251 820 q 212 785 212 800 q 212 778 212 781 l 347 170 l 567 854 l 604 854 l 844 170 l 971 783 q 947 807 974 798 q 867 825 920 817 l 867 854 l 1154 854 l 1154 825 q 1075 804 1097 814 q 1051 783 1053 795 l 896 40 m 573 -282 q 516 -217 516 -282 q 527 -171 516 -192 q 555 -137 537 -149 q 594 -125 573 -125 q 652 -189 652 -125 q 629 -255 652 -228 q 573 -282 606 -282 z "},"Ẁ":{"ha":1181,"x_min":14,"x_max":1154,"o":"m 896 40 q 802 -20 887 -1 l 581 640 l 386 40 q 350 1 377 14 q 283 -20 322 -12 l 107 778 q 82 806 104 795 q 14 825 61 817 l 14 854 l 304 854 l 304 825 q 231 810 251 820 q 212 785 212 800 q 212 778 212 781 l 347 170 l 567 854 l 604 854 l 844 170 l 971 783 q 947 807 974 798 q 867 825 920 817 l 867 854 l 1154 854 l 1154 825 q 1075 804 1097 814 q 1051 783 1053 795 l 896 40 m 355 1092 l 361 1122 q 406 1153 373 1135 q 441 1173 438 1171 l 704 958 q 695 946 701 954 q 685 934 690 938 q 673 927 680 930 l 355 1092 z "},"X":{"ha":854,"x_min":21,"x_max":833,"o":"m 528 29 q 591 41 572 34 q 610 61 610 48 q 599 86 610 70 l 410 363 l 239 86 q 230 62 230 73 q 253 40 230 47 q 326 29 276 33 l 326 0 l 21 0 l 21 29 q 98 46 67 33 q 144 86 128 59 l 359 437 l 134 768 q 107 799 119 789 q 77 815 94 810 q 28 825 60 821 l 28 854 l 334 854 l 334 825 q 270 814 289 821 q 250 794 250 808 q 261 768 250 784 l 429 522 l 582 768 q 590 791 590 782 q 567 814 590 807 q 493 825 545 821 l 493 854 l 800 854 l 800 825 q 721 808 748 819 q 676 768 693 796 l 479 449 l 726 86 q 769 46 745 58 q 833 29 792 35 l 833 0 l 528 0 l 528 29 z "},"Ẍ":{"ha":854,"x_min":21,"x_max":833,"o":"m 528 29 q 591 41 572 34 q 610 61 610 48 q 599 86 610 70 l 410 363 l 239 86 q 230 62 230 73 q 253 40 230 47 q 326 29 276 33 l 326 0 l 21 0 l 21 29 q 98 46 67 33 q 144 86 128 59 l 359 437 l 134 768 q 107 799 119 789 q 77 815 94 810 q 28 825 60 821 l 28 854 l 334 854 l 334 825 q 270 814 289 821 q 250 794 250 808 q 261 768 250 784 l 429 522 l 582 768 q 590 791 590 782 q 567 814 590 807 q 493 825 545 821 l 493 854 l 800 854 l 800 825 q 721 808 748 819 q 676 768 693 796 l 479 449 l 726 86 q 769 46 745 58 q 833 29 792 35 l 833 0 l 528 0 l 528 29 m 281 952 q 224 1017 224 952 q 234 1064 224 1042 q 263 1097 245 1085 q 302 1109 281 1109 q 359 1045 359 1109 q 337 979 359 1006 q 281 952 314 952 m 552 952 q 495 1017 495 952 q 506 1064 495 1042 q 534 1097 516 1085 q 573 1109 552 1109 q 631 1045 631 1109 q 608 979 631 1006 q 552 952 585 952 z "},"Ẋ":{"ha":854,"x_min":21,"x_max":833,"o":"m 528 29 q 591 41 572 34 q 610 61 610 48 q 599 86 610 70 l 410 363 l 239 86 q 230 62 230 73 q 253 40 230 47 q 326 29 276 33 l 326 0 l 21 0 l 21 29 q 98 46 67 33 q 144 86 128 59 l 359 437 l 134 768 q 107 799 119 789 q 77 815 94 810 q 28 825 60 821 l 28 854 l 334 854 l 334 825 q 270 814 289 821 q 250 794 250 808 q 261 768 250 784 l 429 522 l 582 768 q 590 791 590 782 q 567 814 590 807 q 493 825 545 821 l 493 854 l 800 854 l 800 825 q 721 808 748 819 q 676 768 693 796 l 479 449 l 726 86 q 769 46 745 58 q 833 29 792 35 l 833 0 l 528 0 l 528 29 m 416 952 q 359 1017 359 952 q 370 1064 359 1042 q 398 1097 380 1085 q 437 1109 416 1109 q 495 1045 495 1109 q 472 979 495 1006 q 416 952 450 952 z "},"Y":{"ha":825,"x_min":0,"x_max":798,"o":"m 244 29 q 328 54 301 41 q 355 78 355 67 l 355 364 q 238 587 309 467 q 114 781 167 708 q 92 801 104 793 q 59 813 81 808 q 3 818 38 818 l 0 847 q 149 861 101 861 q 201 835 180 861 q 312 667 251 771 q 422 461 374 562 l 604 781 q 608 793 608 788 q 590 813 608 805 q 529 825 571 821 l 529 854 l 798 854 l 798 825 q 725 806 749 816 q 692 781 701 797 l 464 367 l 464 78 q 491 54 464 68 q 576 29 519 41 l 576 0 l 244 0 l 244 29 z "},"Ý":{"ha":825,"x_min":0,"x_max":798,"o":"m 244 29 q 328 54 301 41 q 355 78 355 67 l 355 364 q 238 587 309 467 q 114 781 167 708 q 92 801 104 793 q 59 813 81 808 q 3 818 38 818 l 0 847 q 149 861 101 861 q 201 835 180 861 q 312 667 251 771 q 422 461 374 562 l 604 781 q 608 793 608 788 q 590 813 608 805 q 529 825 571 821 l 529 854 l 798 854 l 798 825 q 725 806 749 816 q 692 781 701 797 l 464 367 l 464 78 q 491 54 464 68 q 576 29 519 41 l 576 0 l 244 0 l 244 29 m 320 927 q 307 936 311 931 q 297 947 302 940 q 290 958 292 954 l 552 1173 q 589 1152 557 1170 q 632 1122 621 1134 l 638 1092 l 320 927 z "},"Ŷ":{"ha":825,"x_min":0,"x_max":798,"o":"m 244 29 q 328 54 301 41 q 355 78 355 67 l 355 364 q 238 587 309 467 q 114 781 167 708 q 92 801 104 793 q 59 813 81 808 q 3 818 38 818 l 0 847 q 149 861 101 861 q 201 835 180 861 q 312 667 251 771 q 422 461 374 562 l 604 781 q 608 793 608 788 q 590 813 608 805 q 529 825 571 821 l 529 854 l 798 854 l 798 825 q 725 806 749 816 q 692 781 701 797 l 464 367 l 464 78 q 491 54 464 68 q 576 29 519 41 l 576 0 l 244 0 l 244 29 m 409 1068 l 225 927 q 213 935 217 931 q 203 946 208 939 q 195 958 198 954 l 374 1167 l 446 1167 l 624 958 q 617 947 622 955 q 607 935 612 939 q 595 927 602 930 l 409 1068 z "},"Ÿ":{"ha":825,"x_min":0,"x_max":798,"o":"m 244 29 q 328 54 301 41 q 355 78 355 67 l 355 364 q 238 587 309 467 q 114 781 167 708 q 92 801 104 793 q 59 813 81 808 q 3 818 38 818 l 0 847 q 149 861 101 861 q 201 835 180 861 q 312 667 251 771 q 422 461 374 562 l 604 781 q 608 793 608 788 q 590 813 608 805 q 529 825 571 821 l 529 854 l 798 854 l 798 825 q 725 806 749 816 q 692 781 701 797 l 464 367 l 464 78 q 491 54 464 68 q 576 29 519 41 l 576 0 l 244 0 l 244 29 m 263 952 q 206 1017 206 952 q 217 1064 206 1042 q 245 1097 227 1085 q 284 1109 263 1109 q 342 1045 342 1109 q 319 979 342 1006 q 263 952 296 952 m 534 952 q 477 1017 477 952 q 488 1064 477 1042 q 516 1097 498 1085 q 555 1109 534 1109 q 613 1045 613 1109 q 590 979 613 1006 q 534 952 568 952 z "},"Ẏ":{"ha":825,"x_min":0,"x_max":798,"o":"m 244 29 q 328 54 301 41 q 355 78 355 67 l 355 364 q 238 587 309 467 q 114 781 167 708 q 92 801 104 793 q 59 813 81 808 q 3 818 38 818 l 0 847 q 149 861 101 861 q 201 835 180 861 q 312 667 251 771 q 422 461 374 562 l 604 781 q 608 793 608 788 q 590 813 608 805 q 529 825 571 821 l 529 854 l 798 854 l 798 825 q 725 806 749 816 q 692 781 701 797 l 464 367 l 464 78 q 491 54 464 68 q 576 29 519 41 l 576 0 l 244 0 l 244 29 m 399 952 q 342 1017 342 952 q 352 1064 342 1042 q 381 1097 363 1085 q 420 1109 399 1109 q 477 1045 477 1109 q 455 979 477 1006 q 399 952 432 952 z "},"Ỵ":{"ha":825,"x_min":0,"x_max":798,"o":"m 244 29 q 328 54 301 41 q 355 78 355 67 l 355 364 q 238 587 309 467 q 114 781 167 708 q 92 801 104 793 q 59 813 81 808 q 3 818 38 818 l 0 847 q 149 861 101 861 q 201 835 180 861 q 312 667 251 771 q 422 461 374 562 l 604 781 q 608 793 608 788 q 590 813 608 805 q 529 825 571 821 l 529 854 l 798 854 l 798 825 q 725 806 749 816 q 692 781 701 797 l 464 367 l 464 78 q 491 54 464 68 q 576 29 519 41 l 576 0 l 244 0 l 244 29 m 399 -282 q 342 -217 342 -282 q 352 -171 342 -192 q 381 -137 363 -149 q 420 -125 399 -125 q 477 -189 477 -125 q 455 -255 477 -228 q 399 -282 432 -282 z "},"Ỳ":{"ha":825,"x_min":0,"x_max":798,"o":"m 244 29 q 328 54 301 41 q 355 78 355 67 l 355 364 q 238 587 309 467 q 114 781 167 708 q 92 801 104 793 q 59 813 81 808 q 3 818 38 818 l 0 847 q 149 861 101 861 q 201 835 180 861 q 312 667 251 771 q 422 461 374 562 l 604 781 q 608 793 608 788 q 590 813 608 805 q 529 825 571 821 l 529 854 l 798 854 l 798 825 q 725 806 749 816 q 692 781 701 797 l 464 367 l 464 78 q 491 54 464 68 q 576 29 519 41 l 576 0 l 244 0 l 244 29 m 181 1092 l 186 1122 q 231 1153 199 1135 q 267 1173 264 1171 l 530 958 q 521 946 526 954 q 511 934 515 938 q 499 927 506 930 l 181 1092 z "},"Ƴ":{"ha":941,"x_min":0,"x_max":941,"o":"m 244 29 q 328 54 301 41 q 355 78 355 67 l 355 364 q 238 587 309 467 q 114 781 167 708 q 92 801 104 793 q 59 813 81 808 q 3 818 38 818 l 0 847 q 149 861 101 861 q 201 835 180 861 q 312 667 251 771 q 422 461 374 562 l 585 746 q 639 826 612 794 q 703 876 665 857 q 791 895 740 895 q 866 875 832 895 q 921 820 901 854 q 941 747 941 786 q 938 718 941 734 q 932 694 936 702 q 885 661 926 679 q 811 635 844 644 l 799 654 q 817 693 811 677 q 822 730 822 709 q 804 790 822 766 q 755 814 787 814 q 671 743 711 814 l 464 367 l 464 78 q 491 54 464 68 q 576 29 519 41 l 576 0 l 244 0 l 244 29 z "},"Ỷ":{"ha":825,"x_min":0,"x_max":798,"o":"m 244 29 q 328 54 301 41 q 355 78 355 67 l 355 364 q 238 587 309 467 q 114 781 167 708 q 92 801 104 793 q 59 813 81 808 q 3 818 38 818 l 0 847 q 149 861 101 861 q 201 835 180 861 q 312 667 251 771 q 422 461 374 562 l 604 781 q 608 793 608 788 q 590 813 608 805 q 529 825 571 821 l 529 854 l 798 854 l 798 825 q 725 806 749 816 q 692 781 701 797 l 464 367 l 464 78 q 491 54 464 68 q 576 29 519 41 l 576 0 l 244 0 l 244 29 m 459 954 q 442 946 451 948 q 418 943 433 944 q 369 973 384 960 q 354 1000 354 987 q 366 1024 354 1013 q 403 1051 378 1035 q 444 1083 431 1070 q 458 1112 458 1096 q 445 1150 458 1137 q 412 1163 433 1163 q 380 1150 393 1163 q 366 1121 366 1137 q 372 1107 366 1116 q 339 1098 361 1103 q 304 1092 317 1093 l 296 1099 l 296 1108 q 318 1149 296 1128 q 371 1183 339 1170 q 435 1196 404 1196 q 500 1175 477 1196 q 524 1121 524 1155 q 509 1084 524 1101 q 466 1048 494 1068 q 432 1019 442 1029 q 421 996 421 1008 q 459 954 421 976 z "},"Ȳ":{"ha":825,"x_min":0,"x_max":798,"o":"m 244 29 q 328 54 301 41 q 355 78 355 67 l 355 364 q 238 587 309 467 q 114 781 167 708 q 92 801 104 793 q 59 813 81 808 q 3 818 38 818 l 0 847 q 149 861 101 861 q 201 835 180 861 q 312 667 251 771 q 422 461 374 562 l 604 781 q 608 793 608 788 q 590 813 608 805 q 529 825 571 821 l 529 854 l 798 854 l 798 825 q 725 806 749 816 q 692 781 701 797 l 464 367 l 464 78 q 491 54 464 68 q 576 29 519 41 l 576 0 l 244 0 l 244 29 m 202 987 l 187 1004 q 198 1038 190 1017 q 215 1075 207 1059 l 631 1075 l 646 1059 q 632 1018 642 1043 q 619 987 621 992 l 202 987 z "},"Ỹ":{"ha":825,"x_min":0,"x_max":798,"o":"m 244 29 q 328 54 301 41 q 355 78 355 67 l 355 364 q 238 587 309 467 q 114 781 167 708 q 92 801 104 793 q 59 813 81 808 q 3 818 38 818 l 0 847 q 149 861 101 861 q 201 835 180 861 q 312 667 251 771 q 422 461 374 562 l 604 781 q 608 793 608 788 q 590 813 608 805 q 529 825 571 821 l 529 854 l 798 854 l 798 825 q 725 806 749 816 q 692 781 701 797 l 464 367 l 464 78 q 491 54 464 68 q 576 29 519 41 l 576 0 l 244 0 l 244 29 m 478 950 q 437 960 456 950 q 388 991 418 970 q 345 1018 361 1009 q 311 1027 328 1027 q 264 1007 286 1027 q 214 945 242 987 l 178 958 q 249 1066 205 1021 q 340 1112 292 1112 q 389 1100 366 1112 q 441 1067 412 1088 q 478 1043 464 1050 q 506 1035 493 1035 q 604 1118 556 1035 l 641 1103 q 570 995 614 1040 q 478 950 527 950 z "},"Z":{"ha":726,"x_min":40,"x_max":672,"o":"m 60 0 l 40 31 l 522 787 l 211 787 q 178 772 195 787 q 145 728 161 758 q 121 653 130 698 l 82 661 l 102 865 q 160 856 136 858 q 231 854 184 854 l 648 854 l 665 825 l 187 68 l 542 68 q 576 80 562 68 q 604 122 590 92 q 635 208 617 151 l 672 199 q 664 0 665 53 l 60 0 z "},"Ź":{"ha":726,"x_min":40,"x_max":672,"o":"m 60 0 l 40 31 l 522 787 l 211 787 q 178 772 195 787 q 145 728 161 758 q 121 653 130 698 l 82 661 l 102 865 q 160 856 136 858 q 231 854 184 854 l 648 854 l 665 825 l 187 68 l 542 68 q 576 80 562 68 q 604 122 590 92 q 635 208 617 151 l 672 199 q 664 0 665 53 l 60 0 m 287 927 q 273 936 278 931 q 264 947 269 940 q 256 958 259 954 l 519 1173 q 556 1152 524 1170 q 599 1122 587 1134 l 605 1092 l 287 927 z "},"Ž":{"ha":726,"x_min":40,"x_max":672,"o":"m 60 0 l 40 31 l 522 787 l 211 787 q 178 772 195 787 q 145 728 161 758 q 121 653 130 698 l 82 661 l 102 865 q 160 856 136 858 q 231 854 184 854 l 648 854 l 665 825 l 187 68 l 542 68 q 576 80 562 68 q 604 122 590 92 q 635 208 617 151 l 672 199 q 664 0 665 53 l 60 0 m 340 943 l 161 1152 q 169 1163 163 1154 q 180 1175 175 1171 q 192 1183 184 1179 l 378 1040 l 562 1183 q 577 1173 572 1178 q 591 1152 581 1167 l 413 943 l 340 943 z "},"Ẑ":{"ha":726,"x_min":40,"x_max":672,"o":"m 60 0 l 40 31 l 522 787 l 211 787 q 178 772 195 787 q 145 728 161 758 q 121 653 130 698 l 82 661 l 102 865 q 160 856 136 858 q 231 854 184 854 l 648 854 l 665 825 l 187 68 l 542 68 q 576 80 562 68 q 604 122 590 92 q 635 208 617 151 l 672 199 q 664 0 665 53 l 60 0 m 376 1068 l 192 927 q 179 935 184 931 q 170 946 175 939 q 161 958 165 954 l 340 1167 l 413 1167 l 591 958 q 584 947 589 955 q 574 935 578 939 q 562 927 569 930 l 376 1068 z "},"Ż":{"ha":726,"x_min":40,"x_max":672,"o":"m 60 0 l 40 31 l 522 787 l 211 787 q 178 772 195 787 q 145 728 161 758 q 121 653 130 698 l 82 661 l 102 865 q 160 856 136 858 q 231 854 184 854 l 648 854 l 665 825 l 187 68 l 542 68 q 576 80 562 68 q 604 122 590 92 q 635 208 617 151 l 672 199 q 664 0 665 53 l 60 0 m 366 952 q 309 1017 309 952 q 319 1064 309 1042 q 348 1097 330 1085 q 387 1109 366 1109 q 444 1045 444 1109 q 421 979 444 1006 q 366 952 399 952 z "},"Ẓ":{"ha":726,"x_min":40,"x_max":672,"o":"m 60 0 l 40 31 l 522 787 l 211 787 q 178 772 195 787 q 145 728 161 758 q 121 653 130 698 l 82 661 l 102 865 q 160 856 136 858 q 231 854 184 854 l 648 854 l 665 825 l 187 68 l 542 68 q 576 80 562 68 q 604 122 590 92 q 635 208 617 151 l 672 199 q 664 0 665 53 l 60 0 m 352 -282 q 295 -217 295 -282 q 306 -171 295 -192 q 334 -137 316 -149 q 373 -125 352 -125 q 431 -189 431 -125 q 408 -255 431 -228 q 352 -282 385 -282 z "},"Ẕ":{"ha":726,"x_min":40,"x_max":672,"o":"m 60 0 l 40 31 l 522 787 l 211 787 q 178 772 195 787 q 145 728 161 758 q 121 653 130 698 l 82 661 l 102 865 q 160 856 136 858 q 231 854 184 854 l 648 854 l 665 825 l 187 68 l 542 68 q 576 80 562 68 q 604 122 590 92 q 635 208 617 151 l 672 199 q 664 0 665 53 l 60 0 m 149 -227 l 134 -210 q 145 -176 136 -197 q 161 -139 153 -155 l 577 -139 l 592 -155 q 578 -196 589 -171 q 566 -227 568 -222 l 149 -227 z "},"a":{"ha":637,"x_min":54,"x_max":628,"o":"m 476 -20 q 439 12 454 -20 q 422 97 424 43 q 305 9 365 39 q 199 -20 245 -20 q 131 -5 163 -20 q 76 44 98 11 q 54 126 54 77 q 71 209 54 174 q 115 272 87 243 q 172 315 140 297 q 263 350 203 333 q 422 380 323 366 l 422 476 q 398 554 422 526 q 315 583 374 583 q 257 572 285 583 q 212 539 229 560 q 198 491 195 518 q 179 474 199 484 q 133 458 159 465 q 90 452 106 452 q 83 452 85 452 l 73 479 q 142 563 94 523 q 252 627 191 603 q 369 651 313 651 q 484 612 443 651 q 524 503 524 573 l 524 121 q 551 68 524 68 q 618 86 574 68 l 628 56 q 534 -2 572 17 q 476 -20 496 -20 m 422 330 q 308 306 350 318 q 243 282 265 294 q 205 252 221 269 q 165 155 165 211 q 178 103 165 122 q 207 76 191 83 q 239 68 224 68 q 422 154 323 68 l 422 330 z "},"á":{"ha":637,"x_min":54,"x_max":628,"o":"m 476 -20 q 439 12 454 -20 q 422 97 424 43 q 305 9 365 39 q 199 -20 245 -20 q 131 -5 163 -20 q 76 44 98 11 q 54 126 54 77 q 71 209 54 174 q 115 272 87 243 q 172 315 140 297 q 263 350 203 333 q 422 380 323 366 l 422 476 q 398 554 422 526 q 315 583 374 583 q 257 572 285 583 q 212 539 229 560 q 198 491 195 518 q 179 474 199 484 q 133 458 159 465 q 90 452 106 452 q 83 452 85 452 l 73 479 q 142 563 94 523 q 252 627 191 603 q 369 651 313 651 q 484 612 443 651 q 524 503 524 573 l 524 121 q 551 68 524 68 q 618 86 574 68 l 628 56 q 534 -2 572 17 q 476 -20 496 -20 m 422 330 q 308 306 350 318 q 243 282 265 294 q 205 252 221 269 q 165 155 165 211 q 178 103 165 122 q 207 76 191 83 q 239 68 224 68 q 422 154 323 68 l 422 330 m 296 710 q 258 729 277 713 l 416 1010 q 467 1003 434 1008 q 515 994 500 998 l 530 968 l 296 710 z "},"ă":{"ha":637,"x_min":54,"x_max":628,"o":"m 476 -20 q 439 12 454 -20 q 422 97 424 43 q 305 9 365 39 q 199 -20 245 -20 q 131 -5 163 -20 q 76 44 98 11 q 54 126 54 77 q 71 209 54 174 q 115 272 87 243 q 172 315 140 297 q 263 350 203 333 q 422 380 323 366 l 422 476 q 398 554 422 526 q 315 583 374 583 q 257 572 285 583 q 212 539 229 560 q 198 491 195 518 q 179 474 199 484 q 133 458 159 465 q 90 452 106 452 q 83 452 85 452 l 73 479 q 142 563 94 523 q 252 627 191 603 q 369 651 313 651 q 484 612 443 651 q 524 503 524 573 l 524 121 q 551 68 524 68 q 618 86 574 68 l 628 56 q 534 -2 572 17 q 476 -20 496 -20 m 422 330 q 308 306 350 318 q 243 282 265 294 q 205 252 221 269 q 165 155 165 211 q 178 103 165 122 q 207 76 191 83 q 239 68 224 68 q 422 154 323 68 l 422 330 m 327 726 q 200 772 256 726 q 105 922 144 818 q 121 941 113 934 q 141 953 130 947 q 222 848 172 882 q 324 815 273 815 q 429 848 378 815 q 510 953 480 881 q 530 941 522 947 q 546 922 538 935 q 450 772 507 819 q 327 726 393 726 z "},"ắ":{"ha":637,"x_min":54,"x_max":628,"o":"m 476 -20 q 439 12 454 -20 q 422 97 424 43 q 305 9 365 39 q 199 -20 245 -20 q 131 -5 163 -20 q 76 44 98 11 q 54 126 54 77 q 71 209 54 174 q 115 272 87 243 q 172 315 140 297 q 263 350 203 333 q 422 380 323 366 l 422 476 q 398 554 422 526 q 315 583 374 583 q 257 572 285 583 q 212 539 229 560 q 198 491 195 518 q 179 474 199 484 q 133 458 159 465 q 90 452 106 452 q 83 452 85 452 l 73 479 q 142 563 94 523 q 252 627 191 603 q 369 651 313 651 q 484 612 443 651 q 524 503 524 573 l 524 121 q 551 68 524 68 q 618 86 574 68 l 628 56 q 534 -2 572 17 q 476 -20 496 -20 m 422 330 q 308 306 350 318 q 243 282 265 294 q 205 252 221 269 q 165 155 165 211 q 178 103 165 122 q 207 76 191 83 q 239 68 224 68 q 422 154 323 68 l 422 330 m 327 726 q 200 772 256 726 q 105 922 144 818 q 121 941 113 934 q 141 953 130 947 q 222 848 172 882 q 324 815 273 815 q 429 848 378 815 q 510 953 480 881 q 530 941 522 947 q 546 922 538 935 q 450 772 507 819 q 327 726 393 726 m 296 927 q 258 946 277 930 l 416 1227 q 467 1220 434 1225 q 515 1211 500 1215 l 530 1185 l 296 927 z "},"ặ":{"ha":637,"x_min":54,"x_max":628,"o":"m 476 -20 q 439 12 454 -20 q 422 97 424 43 q 305 9 365 39 q 199 -20 245 -20 q 131 -5 163 -20 q 76 44 98 11 q 54 126 54 77 q 71 209 54 174 q 115 272 87 243 q 172 315 140 297 q 263 350 203 333 q 422 380 323 366 l 422 476 q 398 554 422 526 q 315 583 374 583 q 257 572 285 583 q 212 539 229 560 q 198 491 195 518 q 179 474 199 484 q 133 458 159 465 q 90 452 106 452 q 83 452 85 452 l 73 479 q 142 563 94 523 q 252 627 191 603 q 369 651 313 651 q 484 612 443 651 q 524 503 524 573 l 524 121 q 551 68 524 68 q 618 86 574 68 l 628 56 q 534 -2 572 17 q 476 -20 496 -20 m 422 330 q 308 306 350 318 q 243 282 265 294 q 205 252 221 269 q 165 155 165 211 q 178 103 165 122 q 207 76 191 83 q 239 68 224 68 q 422 154 323 68 l 422 330 m 301 -282 q 244 -217 244 -282 q 255 -171 244 -192 q 283 -137 265 -149 q 322 -125 301 -125 q 380 -189 380 -125 q 357 -255 380 -228 q 301 -282 334 -282 m 327 726 q 200 772 256 726 q 105 922 144 818 q 121 941 113 934 q 141 953 130 947 q 222 848 172 882 q 324 815 273 815 q 429 848 378 815 q 510 953 480 881 q 530 941 522 947 q 546 922 538 935 q 450 772 507 819 q 327 726 393 726 z "},"ằ":{"ha":637,"x_min":54,"x_max":628,"o":"m 476 -20 q 439 12 454 -20 q 422 97 424 43 q 305 9 365 39 q 199 -20 245 -20 q 131 -5 163 -20 q 76 44 98 11 q 54 126 54 77 q 71 209 54 174 q 115 272 87 243 q 172 315 140 297 q 263 350 203 333 q 422 380 323 366 l 422 476 q 398 554 422 526 q 315 583 374 583 q 257 572 285 583 q 212 539 229 560 q 198 491 195 518 q 179 474 199 484 q 133 458 159 465 q 90 452 106 452 q 83 452 85 452 l 73 479 q 142 563 94 523 q 252 627 191 603 q 369 651 313 651 q 484 612 443 651 q 524 503 524 573 l 524 121 q 551 68 524 68 q 618 86 574 68 l 628 56 q 534 -2 572 17 q 476 -20 496 -20 m 422 330 q 308 306 350 318 q 243 282 265 294 q 205 252 221 269 q 165 155 165 211 q 178 103 165 122 q 207 76 191 83 q 239 68 224 68 q 422 154 323 68 l 422 330 m 327 726 q 200 772 256 726 q 105 922 144 818 q 121 941 113 934 q 141 953 130 947 q 222 848 172 882 q 324 815 273 815 q 429 848 378 815 q 510 953 480 881 q 530 941 522 947 q 546 922 538 935 q 450 772 507 819 q 327 726 393 726 m 126 1183 l 141 1211 q 190 1220 155 1215 q 240 1227 224 1226 l 403 948 q 365 927 388 934 l 126 1183 z "},"ẳ":{"ha":637,"x_min":54,"x_max":628,"o":"m 476 -20 q 439 12 454 -20 q 422 97 424 43 q 305 9 365 39 q 199 -20 245 -20 q 131 -5 163 -20 q 76 44 98 11 q 54 126 54 77 q 71 209 54 174 q 115 272 87 243 q 172 315 140 297 q 263 350 203 333 q 422 380 323 366 l 422 476 q 398 554 422 526 q 315 583 374 583 q 257 572 285 583 q 212 539 229 560 q 198 491 195 518 q 179 474 199 484 q 133 458 159 465 q 90 452 106 452 q 83 452 85 452 l 73 479 q 142 563 94 523 q 252 627 191 603 q 369 651 313 651 q 484 612 443 651 q 524 503 524 573 l 524 121 q 551 68 524 68 q 618 86 574 68 l 628 56 q 534 -2 572 17 q 476 -20 496 -20 m 422 330 q 308 306 350 318 q 243 282 265 294 q 205 252 221 269 q 165 155 165 211 q 178 103 165 122 q 207 76 191 83 q 239 68 224 68 q 422 154 323 68 l 422 330 m 327 726 q 200 772 256 726 q 105 922 144 818 q 121 941 113 934 q 141 953 130 947 q 222 848 172 882 q 324 815 273 815 q 429 848 378 815 q 510 953 480 881 q 530 941 522 947 q 546 922 538 935 q 450 772 507 819 q 327 726 393 726 m 375 954 q 358 946 367 948 q 334 943 349 944 q 285 973 300 960 q 270 1000 270 987 q 282 1024 270 1013 q 319 1051 294 1035 q 360 1083 347 1070 q 374 1112 374 1096 q 361 1150 374 1137 q 328 1163 349 1163 q 296 1150 309 1163 q 282 1121 282 1137 q 288 1107 282 1116 q 255 1098 277 1103 q 220 1092 233 1093 l 212 1099 l 212 1108 q 234 1149 212 1128 q 287 1183 255 1170 q 351 1196 319 1196 q 416 1175 393 1196 q 439 1121 439 1155 q 425 1084 439 1101 q 382 1048 410 1068 q 348 1019 358 1029 q 337 996 337 1008 q 375 954 337 976 z "},"ẵ":{"ha":637,"x_min":54,"x_max":628,"o":"m 476 -20 q 439 12 454 -20 q 422 97 424 43 q 305 9 365 39 q 199 -20 245 -20 q 131 -5 163 -20 q 76 44 98 11 q 54 126 54 77 q 71 209 54 174 q 115 272 87 243 q 172 315 140 297 q 263 350 203 333 q 422 380 323 366 l 422 476 q 398 554 422 526 q 315 583 374 583 q 257 572 285 583 q 212 539 229 560 q 198 491 195 518 q 179 474 199 484 q 133 458 159 465 q 90 452 106 452 q 83 452 85 452 l 73 479 q 142 563 94 523 q 252 627 191 603 q 369 651 313 651 q 484 612 443 651 q 524 503 524 573 l 524 121 q 551 68 524 68 q 618 86 574 68 l 628 56 q 534 -2 572 17 q 476 -20 496 -20 m 422 330 q 308 306 350 318 q 243 282 265 294 q 205 252 221 269 q 165 155 165 211 q 178 103 165 122 q 207 76 191 83 q 239 68 224 68 q 422 154 323 68 l 422 330 m 327 726 q 200 772 256 726 q 105 922 144 818 q 121 941 113 934 q 141 953 130 947 q 222 848 172 882 q 324 815 273 815 q 429 848 378 815 q 510 953 480 881 q 530 941 522 947 q 546 922 538 935 q 450 772 507 819 q 327 726 393 726 m 394 977 q 353 987 372 977 q 304 1018 334 998 q 261 1045 277 1036 q 227 1054 244 1054 q 180 1034 202 1054 q 130 972 158 1014 l 94 985 q 164 1094 121 1048 q 256 1139 208 1139 q 304 1127 281 1139 q 357 1094 328 1115 q 394 1070 380 1078 q 422 1062 409 1062 q 520 1145 472 1062 l 557 1130 q 486 1022 530 1067 q 394 977 443 977 z "},"ǎ":{"ha":637,"x_min":54,"x_max":628,"o":"m 476 -20 q 439 12 454 -20 q 422 97 424 43 q 305 9 365 39 q 199 -20 245 -20 q 131 -5 163 -20 q 76 44 98 11 q 54 126 54 77 q 71 209 54 174 q 115 272 87 243 q 172 315 140 297 q 263 350 203 333 q 422 380 323 366 l 422 476 q 398 554 422 526 q 315 583 374 583 q 257 572 285 583 q 212 539 229 560 q 198 491 195 518 q 179 474 199 484 q 133 458 159 465 q 90 452 106 452 q 83 452 85 452 l 73 479 q 142 563 94 523 q 252 627 191 603 q 369 651 313 651 q 484 612 443 651 q 524 503 524 573 l 524 121 q 551 68 524 68 q 618 86 574 68 l 628 56 q 534 -2 572 17 q 476 -20 496 -20 m 422 330 q 308 306 350 318 q 243 282 265 294 q 205 252 221 269 q 165 155 165 211 q 178 103 165 122 q 207 76 191 83 q 239 68 224 68 q 422 154 323 68 l 422 330 m 290 726 l 111 968 q 118 980 113 971 q 129 992 124 988 q 141 1000 134 996 l 328 830 l 511 1000 q 526 989 522 995 q 540 968 530 984 l 362 726 l 290 726 z "},"â":{"ha":637,"x_min":54,"x_max":628,"o":"m 476 -20 q 439 12 454 -20 q 422 97 424 43 q 305 9 365 39 q 199 -20 245 -20 q 131 -5 163 -20 q 76 44 98 11 q 54 126 54 77 q 71 209 54 174 q 115 272 87 243 q 172 315 140 297 q 263 350 203 333 q 422 380 323 366 l 422 476 q 398 554 422 526 q 315 583 374 583 q 257 572 285 583 q 212 539 229 560 q 198 491 195 518 q 179 474 199 484 q 133 458 159 465 q 90 452 106 452 q 83 452 85 452 l 73 479 q 142 563 94 523 q 252 627 191 603 q 369 651 313 651 q 484 612 443 651 q 524 503 524 573 l 524 121 q 551 68 524 68 q 618 86 574 68 l 628 56 q 534 -2 572 17 q 476 -20 496 -20 m 422 330 q 308 306 350 318 q 243 282 265 294 q 205 252 221 269 q 165 155 165 211 q 178 103 165 122 q 207 76 191 83 q 239 68 224 68 q 422 154 323 68 l 422 330 m 325 892 l 141 710 q 129 718 133 714 q 119 729 124 722 q 111 741 114 736 l 290 998 l 362 998 l 540 741 q 533 730 538 738 q 523 718 528 722 q 511 710 518 713 l 325 892 z "},"ấ":{"ha":637,"x_min":54,"x_max":628,"o":"m 476 -20 q 439 12 454 -20 q 422 97 424 43 q 305 9 365 39 q 199 -20 245 -20 q 131 -5 163 -20 q 76 44 98 11 q 54 126 54 77 q 71 209 54 174 q 115 272 87 243 q 172 315 140 297 q 263 350 203 333 q 422 380 323 366 l 422 476 q 398 554 422 526 q 315 583 374 583 q 257 572 285 583 q 212 539 229 560 q 198 491 195 518 q 179 474 199 484 q 133 458 159 465 q 90 452 106 452 q 83 452 85 452 l 73 479 q 142 563 94 523 q 252 627 191 603 q 369 651 313 651 q 484 612 443 651 q 524 503 524 573 l 524 121 q 551 68 524 68 q 618 86 574 68 l 628 56 q 534 -2 572 17 q 476 -20 496 -20 m 422 330 q 308 306 350 318 q 243 282 265 294 q 205 252 221 269 q 165 155 165 211 q 178 103 165 122 q 207 76 191 83 q 239 68 224 68 q 422 154 323 68 l 422 330 m 325 892 l 141 710 q 129 718 133 714 q 119 729 124 722 q 111 741 114 736 l 290 998 l 362 998 l 540 741 q 533 730 538 738 q 523 718 528 722 q 511 710 518 713 l 325 892 m 296 1015 q 258 1034 277 1019 l 416 1315 q 467 1309 434 1314 q 515 1299 500 1303 l 530 1273 l 296 1015 z "},"ậ":{"ha":637,"x_min":54,"x_max":628,"o":"m 476 -20 q 439 12 454 -20 q 422 97 424 43 q 305 9 365 39 q 199 -20 245 -20 q 131 -5 163 -20 q 76 44 98 11 q 54 126 54 77 q 71 209 54 174 q 115 272 87 243 q 172 315 140 297 q 263 350 203 333 q 422 380 323 366 l 422 476 q 398 554 422 526 q 315 583 374 583 q 257 572 285 583 q 212 539 229 560 q 198 491 195 518 q 179 474 199 484 q 133 458 159 465 q 90 452 106 452 q 83 452 85 452 l 73 479 q 142 563 94 523 q 252 627 191 603 q 369 651 313 651 q 484 612 443 651 q 524 503 524 573 l 524 121 q 551 68 524 68 q 618 86 574 68 l 628 56 q 534 -2 572 17 q 476 -20 496 -20 m 422 330 q 308 306 350 318 q 243 282 265 294 q 205 252 221 269 q 165 155 165 211 q 178 103 165 122 q 207 76 191 83 q 239 68 224 68 q 422 154 323 68 l 422 330 m 301 -282 q 244 -217 244 -282 q 255 -171 244 -192 q 283 -137 265 -149 q 322 -125 301 -125 q 380 -189 380 -125 q 357 -255 380 -228 q 301 -282 334 -282 m 325 892 l 141 710 q 129 718 133 714 q 119 729 124 722 q 111 741 114 736 l 290 998 l 362 998 l 540 741 q 533 730 538 738 q 523 718 528 722 q 511 710 518 713 l 325 892 z "}}}
